<svg width="990" height="391" viewBox="0 0 990 391" fill="none" xmlns="http://www.w3.org/2000/svg">
<g clip-path="url(#clip0_166_1203)">
<g filter="url(#filter0_d_166_1203)">
<path d="M269.759 271.643C270.343 271.903 270.579 272.372 270.465 273.051C270.352 273.73 269.991 274.439 269.381 275.18C268.783 275.96 268.012 276.658 267.069 277.273C266.126 277.889 265.112 278.243 264.026 278.336C262.981 278.424 261.885 278.248 260.739 277.808C259.592 277.369 258.466 276.615 257.361 275.547C256.286 274.433 255.259 273.023 254.278 271.317C253.339 269.605 252.533 267.523 251.861 265.072L236.201 207.929C235.562 205.598 234.819 203.821 233.97 202.596C233.163 201.367 232.351 200.512 231.535 200.031C230.75 199.505 229.995 199.246 229.27 199.252C228.575 199.214 228.021 199.22 227.608 199.271C227.153 199.328 226.59 199.46 225.92 199.667C225.25 199.875 224.678 200.361 224.204 201.126C223.76 201.846 223.509 202.957 223.45 204.461C223.381 205.923 223.71 207.981 224.436 210.633L242.707 277.3C242.831 277.285 242.971 277.329 243.128 277.435C243.338 277.575 243.459 277.705 243.492 277.826C243.58 278.147 243.42 278.5 243.012 278.882C242.656 279.3 242.165 279.694 241.54 280.062C240.925 280.471 240.184 280.812 239.319 281.085C238.505 281.394 237.706 281.596 236.92 281.694C236.093 281.796 235.321 281.788 234.605 281.669C233.929 281.545 233.432 280.9 233.113 279.735L214.182 210.657C213.543 208.326 212.82 206.546 212.013 205.316C211.247 204.082 210.477 203.222 209.702 202.736C208.917 202.21 208.162 201.95 207.437 201.957C206.742 201.918 206.147 201.93 205.65 201.991C205.237 202.043 204.695 202.172 204.025 202.38C203.386 202.542 202.818 202.965 202.321 203.65C201.814 204.295 201.488 205.291 201.344 206.638C201.242 207.98 201.51 209.817 202.149 212.148L217.132 266.819C218.629 272.284 218.839 276.559 217.76 279.642C216.681 282.726 214.364 284.488 210.807 284.929C209.608 285.077 208.561 284.999 207.665 284.695C206.811 284.385 206.073 283.957 205.453 283.411C204.833 282.864 204.326 282.262 203.932 281.605C203.58 280.942 203.326 280.329 203.172 279.767C203.095 279.486 203.128 279.294 203.271 279.194C203.456 279.088 203.714 279.014 204.045 278.973C204.376 278.932 204.748 278.886 205.161 278.835C205.564 278.743 205.97 278.589 206.381 278.372C206.751 278.16 207.076 277.787 207.357 277.254C207.68 276.715 207.88 275.964 207.958 274.998C208.035 274.033 207.985 272.834 207.806 271.402C207.627 269.97 207.257 268.229 206.695 266.18L192.555 214.583C191.564 210.966 191.182 207.855 191.409 205.251C191.677 202.642 192.341 200.462 193.4 198.71C194.459 196.958 195.825 195.626 197.499 194.712C199.214 193.793 201.022 193.216 202.924 192.98C203.462 192.914 204.202 192.884 205.145 192.892C206.077 192.86 207.13 192.958 208.304 193.187C209.519 193.41 210.779 193.794 212.083 194.339C213.375 194.843 214.672 195.597 215.973 196.599C216.45 195.377 217.076 194.385 217.851 193.624C218.615 192.823 219.402 192.186 220.213 191.711C221.065 191.232 221.893 190.901 222.698 190.718C223.534 190.49 224.261 190.337 224.882 190.26C226.866 190.014 228.904 190.115 230.993 190.563C233.124 191.005 235.148 191.918 237.066 193.301C239.026 194.678 240.822 196.554 242.456 198.928C244.09 201.301 245.402 204.296 246.394 207.913L261.442 262.826C261.795 264.112 262.259 265.259 262.835 266.268C263.441 267.232 264.102 268.085 264.819 268.827C265.565 269.524 266.367 270.11 267.225 270.585C268.071 271.021 268.915 271.373 269.759 271.643ZM296.409 233.627C297.036 235.917 297.267 238.319 297.101 240.833C296.976 243.341 296.405 245.78 295.387 248.15C294.399 250.475 292.963 252.647 291.08 254.667C289.227 256.641 286.891 258.26 284.074 259.524C284.774 260.517 285.586 261.455 286.512 262.338C287.469 263.175 288.516 263.876 289.654 264.441C290.792 265.007 292.037 265.413 293.388 265.662C294.78 265.905 296.303 265.924 297.957 265.719C300.438 265.411 302.446 264.706 303.982 263.601C305.507 262.457 306.665 261.067 307.457 259.431C308.29 257.791 308.825 256 309.063 254.06C309.3 252.119 309.347 250.181 309.201 248.246C309.116 246.844 309.447 245.868 310.195 245.319C310.972 244.724 311.849 244.49 312.825 244.619C313.842 244.742 314.791 245.165 315.673 245.886C316.585 246.563 317.128 247.451 317.301 248.552C317.477 249.818 317.579 251.28 317.606 252.939C317.674 254.592 317.541 256.292 317.207 258.037C316.873 259.781 316.306 261.534 315.506 263.295C314.736 265.011 313.633 266.602 312.196 268.068C310.76 269.534 308.947 270.797 306.758 271.858C304.569 272.919 301.923 273.641 298.822 274.025C295.928 274.384 292.962 274.17 289.924 273.383C286.939 272.631 284.111 271.36 281.441 269.572C278.8 267.739 276.426 265.394 274.319 262.539C272.241 259.639 270.674 256.26 269.617 252.402C268.548 248.504 268.115 244.818 268.318 241.345C268.509 237.831 269.179 234.736 270.326 232.059C271.474 229.382 273.018 227.217 274.96 225.564C276.89 223.871 279.075 222.873 281.514 222.571C283.292 222.351 284.967 222.455 286.538 222.883C288.151 223.307 289.607 224.02 290.908 225.022C292.198 225.984 293.3 227.198 294.215 228.663C295.171 230.124 295.902 231.778 296.409 233.627ZM279.938 250.75C280.037 251.111 280.157 251.47 280.297 251.827C280.438 252.183 280.563 252.563 280.673 252.965C282.046 252.047 283.219 250.946 284.193 249.662C285.166 248.378 285.91 246.956 286.423 245.397C286.936 243.837 287.21 242.183 287.243 240.434C287.266 238.644 287.024 236.825 286.518 234.977C286.143 233.611 285.603 232.576 284.898 231.874C284.234 231.167 283.488 230.865 282.661 230.967C281.627 231.095 280.791 231.552 280.151 232.338C279.552 233.118 279.097 234.109 278.785 235.311C278.504 236.468 278.349 237.775 278.321 239.233C278.323 240.645 278.393 242.07 278.53 243.507C278.668 244.945 278.871 246.311 279.141 247.608C279.399 248.864 279.665 249.911 279.938 250.75ZM314.355 230.78C314.579 229.88 314.704 228.701 314.732 227.243C314.791 225.74 314.769 224.102 314.668 222.328C314.608 220.549 314.485 218.694 314.298 216.765C314.111 214.835 313.894 212.951 313.646 211.111C313.399 209.272 313.122 207.562 312.817 205.979C312.542 204.351 312.25 202.975 311.942 201.849C310.818 197.751 309.688 194.795 308.55 192.983C307.401 191.131 306.31 190.269 305.276 190.397C304.945 190.438 304.7 190.635 304.54 190.987C304.38 191.339 304.289 191.787 304.267 192.33C304.233 192.833 304.258 193.39 304.34 194.003C304.453 194.571 304.576 195.096 304.708 195.578L314.355 230.78ZM337.509 247.17C337.427 245.934 337.562 245.024 337.915 244.44C338.298 243.811 338.774 243.44 339.342 243.328C339.94 243.171 340.599 243.235 341.318 243.52C342.027 243.764 342.685 244.14 343.294 244.646C343.904 245.152 344.411 245.754 344.816 246.452C345.251 247.104 345.479 247.782 345.501 248.486C345.374 250.205 345.075 252.237 344.606 254.58C344.137 256.923 343.345 259.182 342.23 261.356C341.116 263.53 339.629 265.438 337.771 267.081C335.912 268.724 333.536 269.725 330.641 270.083C328.202 270.386 325.941 270.25 323.86 269.677C321.79 269.144 319.922 268.254 318.254 267.006C316.617 265.713 315.198 264.123 313.997 262.236C312.826 260.304 311.905 258.112 311.233 255.66L295.837 199.482C295.209 197.191 294.921 195.046 294.971 193.045C295.052 190.999 295.422 189.229 296.081 187.735C296.771 186.195 297.714 184.956 298.911 184.019C300.096 183.041 301.475 182.455 303.046 182.26C304.907 182.029 306.572 182.176 308.041 182.701C309.499 183.185 310.79 183.918 311.914 184.901C313.039 185.883 314.021 187.05 314.861 188.4C315.743 189.745 316.491 191.148 317.105 192.609C317.708 194.03 318.229 195.461 318.667 196.903C319.094 198.304 319.467 199.588 319.786 200.753C320.612 203.767 321.193 206.977 321.528 210.384C321.852 213.751 322 217.099 321.971 220.426C321.984 223.748 321.86 226.963 321.6 230.07C321.37 233.131 321.072 235.869 320.708 238.282C320.384 240.691 320.028 242.667 319.639 244.211C319.291 245.75 319.006 246.658 318.782 246.935L320.748 254.108C321.431 256.599 322.53 258.582 324.046 260.056C325.55 261.49 327.481 262.061 329.838 261.769C331.285 261.59 332.513 261.002 333.523 260.004C334.562 258.961 335.381 257.738 335.98 256.334C336.609 254.885 337.045 253.356 337.288 251.747C337.52 250.098 337.594 248.572 337.509 247.17ZM328.171 179.397C328.998 179.294 329.827 179.358 330.66 179.587C331.522 179.771 332.326 180.128 333.07 180.66C333.814 181.191 334.478 181.898 335.062 182.781C335.635 183.624 336.093 184.669 336.434 185.914C336.753 187.08 336.776 188.489 336.503 190.144C336.218 191.758 335.773 193.33 335.166 194.859C334.559 196.388 333.835 197.725 332.993 198.868C332.183 199.965 331.384 200.563 330.599 200.66C330.061 200.727 329.532 200.668 329.011 200.483C328.479 200.258 327.998 199.985 327.568 199.664C327.169 199.298 326.805 198.907 326.477 198.491C326.19 198.069 325.998 197.678 325.899 197.316C325.81 196.994 325.844 196.803 325.998 196.743C326.141 196.642 326.315 196.496 326.519 196.304C326.941 196.127 327.444 195.546 328.029 194.559C328.644 193.527 329.247 192.372 329.837 191.094C328.426 190.937 327.128 190.412 325.943 189.52C324.747 188.588 323.961 187.439 323.587 186.072C323.356 185.228 323.312 184.444 323.455 183.72C323.588 182.956 323.872 182.277 324.308 181.683C324.733 181.048 325.278 180.544 325.946 180.171C326.602 179.757 327.344 179.499 328.171 179.397ZM369.53 244.2C369.552 245.527 369.152 246.408 368.33 246.842C367.498 247.236 366.577 247.309 365.568 247.06C364.601 246.805 363.686 246.275 362.823 245.468C362.002 244.655 361.572 243.711 361.534 242.636C361.406 239.826 361.469 236.702 361.723 233.264C362.009 229.78 362.278 226.319 362.533 222.88C361.66 222.033 360.91 221.17 360.285 220.292C359.648 219.373 359.187 218.392 358.901 217.347C358.614 216.302 358.71 215.168 359.187 213.946C359.695 212.678 360.375 211.493 361.227 210.39C362.12 209.282 363.084 208.353 364.118 207.601C365.182 206.805 366.149 206.352 367.017 206.245C368.547 206.055 369.822 206.417 370.841 207.329C371.902 208.237 372.664 209.534 373.127 211.222C373.38 212.146 373.468 213.091 373.39 214.056C373.343 214.976 373.244 215.861 373.092 216.711C372.929 217.52 372.759 218.227 372.582 218.83C372.447 219.429 372.381 219.811 372.384 219.977C374.577 222.364 376.75 224.443 378.902 226.212C381.054 227.981 383.056 229.748 384.908 231.513C386.801 233.273 388.48 235.184 389.943 237.247C391.406 239.309 392.539 241.807 393.343 244.741C393.541 245.464 393.683 246.215 393.768 246.994C393.895 247.768 393.948 248.509 393.929 249.218C395.34 248.752 396.522 248.149 397.473 247.407C398.466 246.661 399.271 245.855 399.889 244.989C400.537 244.078 401.003 243.127 401.287 242.136C401.613 241.14 401.824 240.117 401.921 239.066C402.056 237.844 402.28 236.944 402.592 236.365C402.903 235.787 403.349 235.461 403.927 235.39C404.465 235.323 405.052 235.437 405.689 235.732C406.356 235.982 406.968 236.343 407.524 236.814C408.122 237.28 408.622 237.779 409.025 238.311C409.468 238.837 409.751 239.322 409.872 239.764C410.037 240.367 410.07 241.11 409.97 241.995C409.871 242.88 409.653 243.8 409.316 244.756C409.021 245.707 408.637 246.648 408.166 247.579C407.683 248.469 407.152 249.262 406.573 249.957C405.018 251.77 403.045 253.386 400.654 254.804C398.253 256.182 395.106 257.257 391.213 258.03C390.036 259.506 388.503 260.776 386.614 261.841C384.778 262.941 382.557 263.652 379.952 263.975C378.629 264.139 377.22 264.147 375.726 264C374.273 263.847 372.835 263.589 371.41 263.226C370.037 262.897 368.751 262.496 367.552 262.021C366.353 261.546 365.361 261.046 364.575 260.52C362.608 259.268 361.198 257.947 360.347 256.556C359.485 255.126 359.018 253.813 358.946 252.616C358.834 251.425 359.009 250.427 359.473 249.622C359.925 248.777 360.503 248.31 361.206 248.223C361.619 248.172 362.31 248.273 363.277 248.528C364.275 248.736 365.43 249.05 366.742 249.469C368.043 249.848 369.458 250.255 370.988 250.688C372.518 251.122 374.042 251.536 375.561 251.929C377.068 252.283 378.513 252.561 379.894 252.764C381.305 252.921 382.548 252.933 383.623 252.8C384.106 251.91 384.455 250.765 384.671 249.367C384.886 247.97 384.779 246.487 384.35 244.92C383.821 242.991 383.062 241.236 382.073 239.655C381.084 238.074 379.963 236.634 378.709 235.335C377.455 234.036 376.105 232.853 374.658 231.786C373.241 230.673 371.826 229.644 370.412 228.697C370.07 231.191 369.846 233.649 369.74 236.072C369.623 238.455 369.554 241.164 369.53 244.2ZM461.87 234.569C462.806 237.984 464.054 240.51 465.613 242.145C467.203 243.734 469.28 244.37 471.844 244.053C473.457 243.853 474.952 243.148 476.331 241.939C477.71 240.729 478.932 239.103 479.996 237.06C481.05 234.976 481.881 232.547 482.488 229.771C483.126 226.95 483.521 223.867 483.674 220.525C483.815 217.142 483.658 213.525 483.202 209.676C482.746 205.827 481.956 201.853 480.833 197.754C479.698 193.615 478.149 189.756 476.185 186.177C474.262 182.593 471.934 179.557 469.2 177.071C466.496 174.539 463.395 172.658 459.894 171.43C456.435 170.197 452.597 169.841 448.379 170.364C444.864 170.799 441.867 171.565 439.389 172.661C436.91 173.758 434.866 175.112 433.255 176.724C431.675 178.291 430.451 180.063 429.582 182.041C428.754 184.013 428.213 186.095 427.959 188.287C427.735 190.434 427.766 192.653 428.052 194.944C428.327 197.196 428.761 199.406 429.356 201.576C430.171 204.55 431.208 207.164 432.467 209.417C433.767 211.666 435.036 213.566 436.273 215.116C437.541 216.621 438.647 217.772 439.592 218.569C440.579 219.361 441.151 219.809 441.308 219.914C441.956 219.626 442.474 219.645 442.863 219.971C443.251 220.297 443.528 220.761 443.693 221.364C443.913 222.168 443.959 223.035 443.829 223.965C443.729 224.85 443.489 225.69 443.108 226.485C442.717 227.24 442.215 227.904 441.603 228.479C441.021 229.008 440.358 229.318 439.614 229.411C439.283 229.452 438.941 229.452 438.588 229.413C438.277 229.369 437.922 229.246 437.526 229.046C437.432 229.016 437.045 228.773 436.364 228.317C435.672 227.821 434.796 227.12 433.735 226.213C432.674 225.305 431.485 224.164 430.168 222.79C428.881 221.371 427.575 219.725 426.249 217.854C424.965 215.977 423.739 213.843 422.571 211.454C421.404 209.064 420.423 206.422 419.63 203.529C418.099 197.943 417.564 192.712 418.023 187.835C418.512 182.913 419.913 178.585 422.224 174.85C424.524 171.075 427.696 167.982 431.738 165.57C435.769 163.117 440.575 161.545 446.157 160.854C452.071 160.121 457.46 160.596 462.324 162.279C467.22 163.916 471.527 166.374 475.248 169.653C479.009 172.926 482.19 176.812 484.791 181.309C487.392 185.807 489.375 190.547 490.74 195.53C492.337 201.357 493.337 206.8 493.741 211.861C494.186 216.916 494.153 221.553 493.641 225.771C493.171 229.985 492.306 233.769 491.045 237.124C489.773 240.44 488.245 243.288 486.46 245.67C484.665 248.011 482.67 249.858 480.475 251.21C478.281 252.562 476.025 253.382 473.71 253.669C470.733 254.038 468.063 253.89 465.701 253.227C463.391 252.6 461.358 251.501 459.603 249.932C457.836 248.323 456.317 246.288 455.044 243.828C453.76 241.328 452.673 238.45 451.781 235.195L438.813 187.877C438.494 186.712 438.185 185.899 437.888 185.437C437.579 184.935 437.364 184.463 437.243 184.021C437.067 183.378 437.26 182.835 437.823 182.391C438.374 181.907 439.105 181.609 440.014 181.496C442.123 181.235 443.967 181.568 445.546 182.494C447.156 183.375 448.165 184.558 448.572 186.045L461.87 234.569ZM541.591 243.951C540.103 244.135 538.512 244.104 536.82 243.856C535.169 243.604 533.553 243.014 531.974 242.088C530.436 241.157 529.012 239.858 527.7 238.193C526.419 236.482 525.404 234.26 524.655 231.527C523.565 227.549 522.951 223.283 522.815 218.73C522.709 214.131 522.958 209.031 523.56 203.43L513.884 204.629L512.458 204.806C512.747 206.016 513.083 207.554 513.465 209.417C513.889 211.276 514.263 213.266 514.588 215.386C514.912 217.506 515.16 219.657 515.33 221.838C515.541 224.014 515.606 226.042 515.522 227.922C515.461 229.259 515.003 230.085 514.149 230.398C513.335 230.707 512.428 230.674 511.428 230.299C510.416 229.884 509.51 229.228 508.708 228.33C507.906 227.432 507.507 226.443 507.51 225.362C507.499 224.076 507.376 222.533 507.139 220.734C506.892 218.895 506.56 216.983 506.145 214.999C505.759 212.969 505.338 210.964 504.881 208.985C504.413 206.966 503.985 205.17 503.597 203.597C501.795 202.948 500.2 202.045 498.814 200.887C497.417 199.689 496.47 198.185 495.975 196.377C495.744 195.533 495.7 194.749 495.843 194.025C496.017 193.256 496.328 192.594 496.774 192.04C497.21 191.446 497.788 190.98 498.507 190.641C499.216 190.263 499.984 190.022 500.811 189.92C501.555 189.827 502.348 189.833 503.188 189.937C504.07 190.035 504.935 190.302 505.781 190.737C506.668 191.168 507.517 191.769 508.327 192.541C509.137 193.313 509.899 194.299 510.613 195.499C511.68 195.491 512.575 195.484 513.3 195.477C514.056 195.425 514.687 195.389 515.194 195.367C515.701 195.346 516.12 195.315 516.451 195.274C516.782 195.233 517.113 195.192 517.444 195.151L524.08 194.329C524.453 194.283 525.051 194.437 525.875 194.792C526.74 195.142 527.624 195.635 528.525 196.271C529.415 196.867 530.198 197.539 530.873 198.286C531.589 199.029 531.984 199.769 532.059 200.508C532.125 200.749 532.14 201.349 532.104 202.31C532.067 203.27 532.035 204.479 532.007 205.936C531.979 207.394 531.97 209.078 531.981 210.988C531.98 212.858 532.048 214.823 532.185 216.883C532.323 218.944 532.544 221.077 532.849 223.283C533.143 225.448 533.571 227.556 534.133 229.605C534.364 230.449 534.693 231.26 535.12 232.038C535.547 232.816 536.056 233.501 536.645 234.093C537.224 234.645 537.873 235.063 538.592 235.348C539.353 235.627 540.168 235.713 541.036 235.606C542.483 235.426 543.603 234.831 544.394 233.819C545.186 232.806 545.751 231.594 546.091 230.181C546.43 228.767 546.597 227.272 546.593 225.693C546.618 224.07 546.588 222.557 546.503 221.155C546.399 219.838 546.559 218.863 546.984 218.228C547.397 217.554 547.914 217.178 548.535 217.101C549.031 217.04 549.592 217.137 550.217 217.392C550.832 217.606 551.412 217.929 551.958 218.36C552.545 218.786 553.045 219.285 553.458 219.857C553.913 220.424 554.223 221.009 554.388 221.612C554.443 221.812 554.467 221.976 554.458 222.101C554.45 222.227 554.462 222.35 554.495 222.471C554.478 224.592 554.302 226.837 553.968 229.205C553.675 231.568 553.064 233.783 552.134 235.851C551.204 237.919 549.897 239.702 548.212 241.198C546.527 242.695 544.321 243.613 541.591 243.951ZM542.49 178.898C541.456 179.026 540.409 178.948 539.348 178.664C538.328 178.375 537.373 177.932 536.483 177.336C535.634 176.735 534.881 176.018 534.226 175.185C533.559 174.312 533.082 173.353 532.796 172.308C532.499 171.223 532.43 170.193 532.59 169.218C532.75 168.242 533.073 167.392 533.559 166.667C534.074 165.897 534.738 165.274 535.548 164.8C536.389 164.28 537.326 163.957 538.36 163.829C539.477 163.69 540.566 163.763 541.627 164.047C542.677 164.291 543.626 164.713 544.475 165.315C545.354 165.871 546.107 166.588 546.732 167.466C547.399 168.339 547.881 169.318 548.178 170.403C548.465 171.448 548.528 172.458 548.368 173.433C548.238 174.363 547.915 175.214 547.399 175.984C546.925 176.749 546.267 177.391 545.426 177.911C544.585 178.431 543.606 178.76 542.49 178.898ZM558.835 227.542C558.912 227.824 559.06 228.283 559.277 228.921C559.484 229.519 559.779 230.126 560.161 230.744C560.544 231.361 561.029 231.882 561.616 232.308C562.203 232.734 562.91 232.896 563.737 232.793C564.978 232.64 565.932 232.065 566.599 231.068C567.308 230.066 567.812 228.861 568.11 227.453C568.449 226.04 568.637 224.541 568.674 222.958C568.699 221.334 568.669 219.822 568.584 218.419C568.491 217.143 568.615 216.193 568.957 215.569C569.341 214.939 569.816 214.569 570.384 214.457C570.983 214.3 571.621 214.366 572.299 214.656C573.018 214.941 573.688 215.357 574.308 215.903C574.958 216.404 575.486 217.004 575.891 217.701C576.337 218.394 576.566 219.072 576.577 219.735C576.559 221.856 576.384 224.101 576.049 226.469C575.756 228.832 575.145 231.048 574.215 233.116C573.285 235.184 571.978 236.966 570.293 238.463C568.609 239.96 566.402 240.877 563.673 241.215C561.977 241.425 560.38 241.291 558.88 240.812C557.392 240.373 556.05 239.687 554.854 238.755C553.658 237.823 552.619 236.685 551.737 235.34C550.897 233.989 550.262 232.531 549.832 230.964L540.797 197.992C540.477 196.826 540.143 195.995 539.793 195.499C539.484 194.997 539.269 194.525 539.148 194.083C538.983 193.48 539.181 192.957 539.744 192.513C540.295 192.029 541.026 191.731 541.936 191.618C544.045 191.357 545.847 191.695 547.344 192.631C548.871 193.522 549.838 194.711 550.245 196.198L558.835 227.542ZM562.754 195.272C562.434 194.106 562.1 193.275 561.75 192.778C561.441 192.277 561.226 191.805 561.105 191.363C560.94 190.76 561.139 190.237 561.701 189.793C562.253 189.309 562.983 189.011 563.893 188.898C566.002 188.637 567.805 188.975 569.301 189.911C570.828 190.802 571.795 191.991 572.202 193.478L581.305 226.691C581.624 227.856 582.063 228.757 582.623 229.394C583.182 230.031 584.02 230.281 585.136 230.143C586.708 229.948 588.141 229.251 589.437 228.052C590.764 226.807 591.783 225.143 592.495 223.061C593.237 220.933 593.615 218.414 593.63 215.504C593.686 212.588 593.224 209.342 592.244 205.766C591.561 203.274 590.788 201.231 589.923 199.634C589.099 198.033 588.281 196.763 587.468 195.825C586.644 194.847 585.85 194.135 585.087 193.689C584.365 193.239 583.753 192.878 583.251 192.608C582.854 192.408 582.444 192.313 582.019 192.324C581.584 192.295 581.316 192.1 581.217 191.738C581.063 191.175 581.037 190.535 581.139 189.816C581.272 189.051 581.504 188.337 581.835 187.673C582.155 186.968 582.57 186.377 583.08 185.898C583.579 185.379 584.139 185.081 584.759 185.005C586.041 184.846 587.514 185.307 589.179 186.389C590.832 187.431 592.472 188.889 594.098 190.766C595.765 192.636 597.302 194.814 598.71 197.299C600.107 199.744 601.169 202.292 601.895 204.944C603.041 209.123 603.541 213.133 603.396 216.974C603.252 220.814 602.484 224.254 601.094 227.293C599.745 230.327 597.781 232.835 595.203 234.816C592.625 236.798 589.475 238.019 585.754 238.48C583.728 238.731 581.923 238.622 580.341 238.153C578.801 237.679 577.468 236.951 576.344 235.968C575.219 234.986 574.273 233.794 573.504 232.394C572.725 230.953 572.109 229.409 571.657 227.761L562.754 195.272ZM634.698 191.719C635.325 194.01 635.556 196.412 635.39 198.925C635.265 201.434 634.694 203.873 633.676 206.242C632.688 208.567 631.252 210.739 629.369 212.759C627.516 214.734 625.181 216.353 622.363 217.616C623.063 218.609 623.876 219.547 624.801 220.43C625.758 221.267 626.805 221.968 627.943 222.534C629.082 223.099 630.326 223.506 631.677 223.754C633.069 223.997 634.592 224.016 636.246 223.811C638.727 223.504 640.735 222.798 642.271 221.693C643.796 220.549 644.954 219.159 645.746 217.524C646.579 215.883 647.114 214.092 647.352 212.152C647.59 210.211 647.636 208.273 647.49 206.338C647.405 204.936 647.736 203.96 648.484 203.411C649.261 202.816 650.138 202.583 651.114 202.711C652.131 202.834 653.08 203.257 653.962 203.979C654.874 204.655 655.417 205.543 655.59 206.644C655.766 207.91 655.868 209.372 655.895 211.031C655.963 212.685 655.83 214.384 655.496 216.129C655.162 217.874 654.595 219.627 653.795 221.388C653.025 223.103 651.922 224.694 650.485 226.16C649.049 227.626 647.236 228.89 645.047 229.95C642.858 231.011 640.212 231.733 637.111 232.118C634.217 232.476 631.251 232.262 628.213 231.475C625.228 230.723 622.4 229.453 619.73 227.664C617.089 225.831 614.715 223.487 612.608 220.632C610.53 217.731 608.963 214.352 607.906 210.494C606.837 206.596 606.404 202.911 606.607 199.437C606.798 195.923 607.468 192.828 608.615 190.151C609.763 187.475 611.307 185.31 613.249 183.656C615.179 181.963 617.364 180.965 619.803 180.663C621.582 180.443 623.256 180.547 624.827 180.976C626.44 181.399 627.896 182.112 629.197 183.114C630.487 184.076 631.589 185.29 632.504 186.756C633.46 188.216 634.191 189.871 634.698 191.719ZM618.227 208.842C618.326 209.204 618.446 209.563 618.586 209.919C618.727 210.276 618.852 210.655 618.962 211.057C620.335 210.139 621.508 209.038 622.482 207.754C623.455 206.47 624.199 205.048 624.712 203.489C625.225 201.929 625.499 200.275 625.533 198.526C625.555 196.736 625.313 194.918 624.807 193.069C624.432 191.703 623.892 190.669 623.187 189.967C622.523 189.259 621.777 188.957 620.95 189.059C619.916 189.188 619.08 189.644 618.44 190.43C617.841 191.21 617.386 192.202 617.074 193.404C616.793 194.56 616.638 195.868 616.61 197.325C616.612 198.738 616.682 200.162 616.819 201.6C616.957 203.037 617.16 204.404 617.43 205.7C617.689 206.956 617.954 208.003 618.227 208.842ZM671.504 162.915C670.47 163.044 669.423 162.966 668.361 162.682C667.342 162.392 666.387 161.95 665.496 161.354C664.648 160.753 663.895 160.035 663.239 159.203C662.573 158.33 662.096 157.371 661.81 156.326C661.512 155.241 661.444 154.211 661.604 153.235C661.764 152.26 662.087 151.41 662.572 150.685C663.088 149.914 663.751 149.292 664.562 148.818C665.403 148.298 666.34 147.974 667.374 147.846C668.491 147.708 669.579 147.781 670.641 148.065C671.691 148.309 672.64 148.731 673.489 149.332C674.368 149.888 675.121 150.605 675.746 151.483C676.413 152.356 676.895 153.335 677.192 154.42C677.479 155.465 677.542 156.475 677.381 157.451C677.251 158.381 676.929 159.231 676.413 160.001C675.939 160.766 675.281 161.409 674.44 161.928C673.599 162.448 672.62 162.777 671.504 162.915ZM687.849 211.56C687.926 211.841 688.073 212.301 688.291 212.939C688.498 213.536 688.792 214.144 689.175 214.761C689.558 215.378 690.043 215.9 690.63 216.326C691.217 216.752 691.924 216.913 692.751 216.811C693.992 216.657 694.946 216.082 695.613 215.085C696.322 214.083 696.825 212.879 697.124 211.47C697.463 210.057 697.651 208.559 697.688 206.976C697.713 205.352 697.683 203.839 697.598 202.437C697.505 201.161 697.629 200.21 697.971 199.586C698.355 198.957 698.83 198.587 699.398 198.475C699.996 198.317 700.634 198.384 701.312 198.674C702.032 198.959 702.702 199.374 703.322 199.921C703.972 200.422 704.5 201.021 704.905 201.719C705.351 202.411 705.58 203.089 705.59 203.753C705.573 205.874 705.397 208.119 705.063 210.487C704.77 212.85 704.159 215.065 703.229 217.133C702.299 219.201 700.992 220.984 699.307 222.481C697.622 223.977 695.416 224.895 692.686 225.233C690.991 225.443 689.394 225.308 687.894 224.829C686.406 224.39 685.064 223.705 683.868 222.773C682.671 221.841 681.633 220.702 680.751 219.357C679.911 218.007 679.276 216.548 678.846 214.981L669.81 182.009C669.491 180.844 669.156 180.013 668.806 179.516C668.498 179.014 668.283 178.542 668.162 178.1C667.997 177.497 668.195 176.974 668.758 176.531C669.309 176.047 670.04 175.749 670.95 175.636C673.058 175.375 674.861 175.712 676.358 176.649C677.885 177.54 678.852 178.729 679.259 180.216L687.849 211.56ZM691.767 179.289C691.448 178.124 691.113 177.293 690.764 176.796C690.455 176.294 690.24 175.822 690.119 175.38C689.954 174.777 690.152 174.254 690.715 173.811C691.266 173.327 691.997 173.028 692.907 172.916C695.016 172.655 696.818 172.992 698.315 173.929C699.842 174.82 700.809 176.009 701.216 177.496L702.736 183.041C703.131 181.206 703.621 179.483 704.206 177.873C704.832 176.258 705.575 174.837 706.436 173.608C707.327 172.334 708.351 171.314 709.509 170.547C710.697 169.735 712.077 169.232 713.649 169.037C715.758 168.776 717.599 168.943 719.173 169.537C720.746 170.132 722.091 170.983 723.207 172.091C724.323 173.2 725.23 174.479 725.927 175.93C726.665 177.376 727.227 178.802 727.612 180.209L734.617 205.766C734.694 206.048 734.841 206.507 735.059 207.145C735.265 207.743 735.56 208.35 735.943 208.967C736.326 209.585 736.79 210.109 737.336 210.54C737.923 210.966 738.63 211.128 739.457 211.025C740.739 210.866 741.713 210.289 742.381 209.292C743.089 208.29 743.593 207.085 743.891 205.677C744.231 204.264 744.398 202.768 744.393 201.19C744.418 199.566 744.389 198.053 744.304 196.651C744.199 195.334 744.359 194.359 744.784 193.725C745.198 193.05 745.715 192.674 746.335 192.598C746.831 192.536 747.392 192.633 748.018 192.888C748.633 193.102 749.213 193.425 749.758 193.856C750.345 194.282 750.846 194.781 751.259 195.353C751.714 195.92 752.023 196.505 752.189 197.108C752.211 197.188 752.238 197.289 752.271 197.409C752.304 197.53 752.312 197.716 752.296 197.967C752.32 200.083 752.165 202.325 751.83 204.693C751.537 207.056 750.905 209.274 749.934 211.348C749.005 213.415 747.698 215.198 746.013 216.695C744.328 218.191 742.121 219.109 739.392 219.447C737.696 219.657 736.099 219.522 734.6 219.043C733.153 218.599 731.81 217.914 730.573 216.987C729.377 216.055 728.338 214.916 727.456 213.571C726.616 212.221 725.981 210.762 725.552 209.195L718.68 184.12C718.415 183.155 718.147 182.254 717.874 181.415C717.602 180.576 717.274 179.848 716.891 179.231C716.549 178.608 716.143 178.139 715.672 177.824C715.231 177.463 714.7 177.321 714.08 177.398C713.17 177.51 712.219 178.252 711.226 179.621C710.233 180.99 709.36 182.719 708.607 184.807C707.854 186.894 707.317 189.225 706.996 191.8C706.706 194.328 706.773 196.834 707.196 199.316L712.135 217.339C712.301 217.942 712.451 218.567 712.585 219.215C712.751 219.818 712.775 220.376 712.659 220.889C712.596 221.437 712.36 221.902 711.952 222.285C711.596 222.703 710.963 222.969 710.054 223.081C709.433 223.158 708.729 223.162 707.941 223.094C707.205 223.06 706.472 222.881 705.741 222.556C705.063 222.266 704.418 221.785 703.806 221.113C703.247 220.476 702.808 219.575 702.488 218.409L691.767 179.289ZM762.333 203.704C764.07 203.489 765.698 203.889 767.216 204.906C768.724 205.883 769.709 207.215 770.171 208.903C770.381 209.666 770.419 210.43 770.286 211.195C770.143 211.919 769.853 212.578 769.417 213.172C769.023 213.761 768.498 214.262 767.841 214.676C767.185 215.09 766.423 215.35 765.555 215.458C764.728 215.56 763.898 215.497 763.065 215.268C762.233 215.038 761.456 214.698 760.734 214.248C760.053 213.792 759.454 213.243 758.936 212.601C758.407 211.918 758.037 211.195 757.828 210.432C757.597 209.588 757.548 208.784 757.68 208.02C757.813 207.255 758.076 206.579 758.471 205.99C758.895 205.355 759.441 204.851 760.109 204.478C760.765 204.064 761.506 203.806 762.333 203.704ZM764.669 193.505C765.109 195.112 765.036 196.326 764.449 197.147C763.861 197.968 763.03 198.445 761.955 198.578C761.293 198.66 760.572 198.604 759.792 198.409C759.012 198.215 758.267 197.913 757.556 197.502C756.875 197.047 756.255 196.5 755.695 195.863C755.166 195.181 754.786 194.418 754.555 193.574L737.887 132.754C737.568 131.588 737.119 130.73 736.54 130.178C735.992 129.582 735.652 129.042 735.519 128.56C735.398 128.118 735.609 127.718 736.152 127.36C736.696 127.001 737.629 126.74 738.952 126.576C739.82 126.469 740.69 126.444 741.561 126.503C742.474 126.556 743.316 126.742 744.087 127.062C744.889 127.337 745.585 127.77 746.175 128.362C746.754 128.913 747.175 129.671 747.44 130.636L764.669 193.505Z" fill="#28FAEF"/>
</g>
<g clip-path="url(#clip1_166_1203)">
<g filter="url(#filter1_dd_166_1203)">
<path d="M74.1256 363.193L15.2488 195.501C56.16 200.424 107.548 190.546 143.719 170.807L151.208 348.376C151.208 348.376 115.037 368.115 74.1256 363.193Z" stroke="#28FAEF" stroke-width="6" stroke-linecap="round" stroke-linejoin="round"/>
</g>
<g filter="url(#filter2_dd_166_1203)">
<path d="M13.2003 187.729C20.8428 191.394 47.8349 189.623 75.479 184.735C103.123 179.846 131.419 171.84 141.67 163.035C147.799 157.77 120.409 159.995 89.3628 165.131C87.6507 165.414 90.5425 175.946 88.8131 176.246C85.3867 176.841 74.2627 179.051 70.8273 179.703C67.3714 180.36 66.9892 169.218 63.6032 169.921C36.1054 175.624 12.2232 182.646 13.2003 187.729Z" stroke="#28FAEF" stroke-width="6" stroke-linecap="round" stroke-linejoin="round"/>
</g>
<g filter="url(#filter3_dd_166_1203)">
<path d="M72.4486 174.277L82.7262 172.302L82.3139 90.4345L82.2494 77.615L82.2244 72.6649L87.922 73.7638L99.3171 75.9617L148.63 85.473L152.821 79.553L102.58 69.5865L80.8023 65.2665L75.6635 66.2542L73.5682 69.2143L73.3475 89.9258L72.4486 174.277Z" stroke="#28FAEF" stroke-width="6" stroke-linecap="round" stroke-linejoin="round"/>
</g>
</g>
<g clip-path="url(#clip2_166_1203)">
<g filter="url(#filter4_dd_166_1203)">
<path d="M949.859 160.303C949.859 160.303 930.379 183.96 953.717 185.996C977.055 188.032 959.803 173.618 959.803 173.618C959.803 173.618 982.008 195.024 980.235 179.506C978.463 163.987 964.752 169.217 964.752 169.217C964.752 169.217 987.106 165.163 977.557 156.562C968.007 147.96 972.526 150.906 968.167 156.682C963.807 162.459 963.054 137.906 955.19 137.445C947.327 136.985 937.226 149.315 949.859 160.303Z" stroke="#28FAEF" stroke-width="6"/>
</g>
<g filter="url(#filter5_dd_166_1203)">
<path d="M938.357 145.117C938.357 145.117 956.367 120.322 932.949 119.705C909.53 119.087 927.624 132.429 927.624 132.429C927.624 132.429 904.163 112.409 906.873 127.791C909.583 143.174 922.951 137.123 922.951 137.123C922.951 137.123 900.884 142.524 910.938 150.53C920.991 158.537 916.302 155.871 920.303 149.841C924.304 143.81 926.545 168.273 934.422 168.256C942.298 168.238 951.634 155.319 938.357 145.117Z" stroke="#28FAEF" stroke-width="6"/>
</g>
<g filter="url(#filter6_dd_166_1203)">
<path d="M870.644 140.197C870.644 140.197 879.694 169.477 894.227 151.103C908.76 132.729 887.234 139.213 887.234 139.213C887.234 139.213 917.323 132.437 903.386 125.384C889.45 118.332 886.279 132.659 886.279 132.659C886.279 132.659 895.185 111.759 882.749 115.006C870.314 118.253 875.259 116.098 877.687 122.915C880.115 129.733 859.192 116.861 854.484 123.176C849.776 129.491 854.52 144.708 870.644 140.197Z" stroke="#28FAEF" stroke-width="6"/>
</g>
<g filter="url(#filter7_dd_166_1203)">
<path d="M827.21 159.187C827.21 159.187 852.121 177.036 852.587 153.614C853.053 130.192 839.829 148.372 839.829 148.372C839.829 148.372 859.697 124.781 844.332 127.591C828.968 130.401 835.105 143.729 835.105 143.729C835.105 143.729 829.561 121.697 821.62 131.803C813.678 141.908 816.314 137.201 822.37 141.163C828.426 145.125 803.979 147.524 804.047 155.401C804.115 163.277 817.094 172.529 827.21 159.187Z" stroke="#28FAEF" stroke-width="6"/>
</g>
<g filter="url(#filter8_dd_166_1203)">
<path d="M981.484 183.631L886.358 156.308L835.946 160.839L817.684 356.789L864.297 376.515L938.966 375.783L981.484 183.631Z" stroke="#28FAEF" stroke-width="6" stroke-linecap="round" stroke-linejoin="round"/>
</g>
<g filter="url(#filter9_dd_166_1203)">
<path d="M884.459 168.436L866.197 364.387" stroke="#28FAEF" stroke-width="6" stroke-linecap="round" stroke-linejoin="round"/>
</g>
<g filter="url(#filter10_dd_166_1203)">
<path d="M842.89 354.524L858.303 176.766" stroke="#28FAEF" stroke-width="6" stroke-linecap="round" stroke-linejoin="round"/>
</g>
<g filter="url(#filter11_dd_166_1203)">
<path d="M890.453 368.185L919.894 180.199" stroke="#28FAEF" stroke-width="6" stroke-linecap="round" stroke-linejoin="round"/>
</g>
<g filter="url(#filter12_dd_166_1203)">
<path d="M915.659 365.92L955.329 191.961" stroke="#28FAEF" stroke-width="6" stroke-linecap="round" stroke-linejoin="round"/>
</g>
<g filter="url(#filter13_dd_166_1203)">
<path d="M861.908 88.8222C861.908 88.8222 835.522 73.2363 837.121 96.6085C838.72 119.981 850.291 100.706 850.291 100.706C850.291 100.706 832.578 125.955 847.635 121.803C862.693 117.651 855.405 104.915 855.405 104.915C855.405 104.915 862.868 126.373 869.889 115.608C876.909 104.842 874.699 109.763 868.317 106.349C861.935 102.936 886.077 98.3934 885.315 90.5534C884.553 82.7135 870.81 74.6412 861.908 88.8222Z" stroke="#28FAEF" stroke-width="6"/>
</g>
<g filter="url(#filter14_dd_166_1203)">
<path d="M824.738 235.938C824.738 235.938 816.523 206.414 801.475 224.368C786.427 242.323 808.127 236.451 808.127 236.451C808.127 236.451 777.859 242.372 791.59 249.817C805.321 257.261 808.896 243.03 808.896 243.03C808.896 243.03 799.402 263.669 811.924 260.776C824.447 257.883 819.443 259.897 817.209 253.013C814.975 246.13 835.525 259.589 840.41 253.41C845.295 247.231 840.984 231.886 824.738 235.938Z" stroke="#28FAEF" stroke-width="6"/>
</g>
<g filter="url(#filter15_dd_166_1203)">
<path d="M804.046 335.498C804.046 335.498 806.459 304.947 786.164 316.649C765.869 328.35 788.267 330.281 788.267 330.281C788.267 330.281 757.804 325.457 768.148 337.161C778.491 348.865 786.732 336.724 786.732 336.724C786.732 336.724 770.733 352.853 783.488 354.432C796.242 356.011 790.851 356.186 791.115 348.953C791.378 341.721 806.062 361.414 812.771 357.287C819.48 353.159 820.696 337.267 804.046 335.498Z" stroke="#28FAEF" stroke-width="6"/>
</g>
<g filter="url(#filter16_dd_166_1203)">
<path d="M829.749 356.262C829.749 356.262 809.238 379.032 832.463 382.101C855.688 385.171 839.092 370.006 839.092 370.006C839.092 370.006 860.325 392.375 859.243 376.793C858.16 361.211 844.232 365.828 844.232 365.828C844.232 365.828 866.744 362.77 857.585 353.753C848.426 344.737 852.81 347.88 848.199 353.457C843.587 359.035 843.924 334.472 836.089 333.664C828.253 332.855 817.615 344.724 829.749 356.262Z" stroke="#28FAEF" stroke-width="6"/>
</g>
<g filter="url(#filter17_dd_166_1203)">
<path d="M915.24 116.096C915.24 116.096 945.759 118.872 934.3 98.4395C922.841 78.0068 920.644 100.38 920.644 100.38C920.644 100.38 925.83 69.9769 914.004 80.1804C902.178 90.3839 914.22 98.769 914.22 98.769C914.22 98.769 898.282 82.5785 896.552 95.3138C894.821 108.049 894.71 102.656 901.939 103.006C909.168 103.355 889.301 117.804 893.349 124.561C897.397 131.319 913.273 132.724 915.24 116.096Z" stroke="#28FAEF" stroke-width="6"/>
</g>
</g>
</g>
<defs>
<filter id="filter0_d_166_1203" x="175.632" y="123.61" width="600.67" height="171.33" filterUnits="userSpaceOnUse" color-interpolation-filters="sRGB">
<feFlood flood-opacity="0" result="BackgroundImageFix"/>
<feColorMatrix in="SourceAlpha" type="matrix" values="0 0 0 0 0 0 0 0 0 0 0 0 0 0 0 0 0 0 127 0" result="hardAlpha"/>
<feOffset dy="4"/>
<feGaussianBlur stdDeviation="2"/>
<feComposite in2="hardAlpha" operator="out"/>
<feColorMatrix type="matrix" values="0 0 0 0 0.980392 0 0 0 0 0.207843 0 0 0 0 0.564706 0 0 0 1 0"/>
<feBlend mode="normal" in2="BackgroundImageFix" result="effect1_dropShadow_166_1203"/>
<feBlend mode="normal" in="SourceGraphic" in2="effect1_dropShadow_166_1203" result="shape"/>
</filter>
<filter id="filter1_dd_166_1203" x="-2.75122" y="152.807" width="171.959" height="229.174" filterUnits="userSpaceOnUse" color-interpolation-filters="sRGB">
<feFlood flood-opacity="0" result="BackgroundImageFix"/>
<feColorMatrix in="SourceAlpha" type="matrix" values="0 0 0 0 0 0 0 0 0 0 0 0 0 0 0 0 0 0 127 0" result="hardAlpha"/>
<feOffset/>
<feGaussianBlur stdDeviation="5"/>
<feColorMatrix type="matrix" values="0 0 0 0 0.980392 0 0 0 0 0.207843 0 0 0 0 0.564706 0 0 0 1 0"/>
<feBlend mode="normal" in2="BackgroundImageFix" result="effect1_dropShadow_166_1203"/>
<feColorMatrix in="SourceAlpha" type="matrix" values="0 0 0 0 0 0 0 0 0 0 0 0 0 0 0 0 0 0 127 0" result="hardAlpha"/>
<feOffset/>
<feGaussianBlur stdDeviation="7.5"/>
<feColorMatrix type="matrix" values="0 0 0 0 0.980392 0 0 0 0 0.207843 0 0 0 0 0.564706 0 0 0 1 0"/>
<feBlend mode="normal" in2="effect1_dropShadow_166_1203" result="effect2_dropShadow_166_1203"/>
<feBlend mode="normal" in="SourceGraphic" in2="effect2_dropShadow_166_1203" result="shape"/>
</filter>
<filter id="filter2_dd_166_1203" x="-4.83057" y="142.019" width="165.366" height="65.6638" filterUnits="userSpaceOnUse" color-interpolation-filters="sRGB">
<feFlood flood-opacity="0" result="BackgroundImageFix"/>
<feColorMatrix in="SourceAlpha" type="matrix" values="0 0 0 0 0 0 0 0 0 0 0 0 0 0 0 0 0 0 127 0" result="hardAlpha"/>
<feOffset/>
<feGaussianBlur stdDeviation="5"/>
<feColorMatrix type="matrix" values="0 0 0 0 0.980392 0 0 0 0 0.207843 0 0 0 0 0.564706 0 0 0 1 0"/>
<feBlend mode="normal" in2="BackgroundImageFix" result="effect1_dropShadow_166_1203"/>
<feColorMatrix in="SourceAlpha" type="matrix" values="0 0 0 0 0 0 0 0 0 0 0 0 0 0 0 0 0 0 127 0" result="hardAlpha"/>
<feOffset/>
<feGaussianBlur stdDeviation="7.5"/>
<feColorMatrix type="matrix" values="0 0 0 0 0.980392 0 0 0 0 0.207843 0 0 0 0 0.564706 0 0 0 1 0"/>
<feBlend mode="normal" in2="effect1_dropShadow_166_1203" result="effect2_dropShadow_166_1203"/>
<feBlend mode="normal" in="SourceGraphic" in2="effect2_dropShadow_166_1203" result="shape"/>
</filter>
<filter id="filter3_dd_166_1203" x="54.4487" y="47.2664" width="116.372" height="145.011" filterUnits="userSpaceOnUse" color-interpolation-filters="sRGB">
<feFlood flood-opacity="0" result="BackgroundImageFix"/>
<feColorMatrix in="SourceAlpha" type="matrix" values="0 0 0 0 0 0 0 0 0 0 0 0 0 0 0 0 0 0 127 0" result="hardAlpha"/>
<feOffset/>
<feGaussianBlur stdDeviation="5"/>
<feColorMatrix type="matrix" values="0 0 0 0 0.980392 0 0 0 0 0.207843 0 0 0 0 0.564706 0 0 0 1 0"/>
<feBlend mode="normal" in2="BackgroundImageFix" result="effect1_dropShadow_166_1203"/>
<feColorMatrix in="SourceAlpha" type="matrix" values="0 0 0 0 0 0 0 0 0 0 0 0 0 0 0 0 0 0 127 0" result="hardAlpha"/>
<feOffset/>
<feGaussianBlur stdDeviation="7.5"/>
<feColorMatrix type="matrix" values="0 0 0 0 0.980392 0 0 0 0 0.207843 0 0 0 0 0.564706 0 0 0 1 0"/>
<feBlend mode="normal" in2="effect1_dropShadow_166_1203" result="effect2_dropShadow_166_1203"/>
<feBlend mode="normal" in="SourceGraphic" in2="effect2_dropShadow_166_1203" result="shape"/>
</filter>
<filter id="filter4_dd_166_1203" x="924.24" y="119.433" width="74.0957" height="84.7607" filterUnits="userSpaceOnUse" color-interpolation-filters="sRGB">
<feFlood flood-opacity="0" result="BackgroundImageFix"/>
<feColorMatrix in="SourceAlpha" type="matrix" values="0 0 0 0 0 0 0 0 0 0 0 0 0 0 0 0 0 0 127 0" result="hardAlpha"/>
<feOffset/>
<feGaussianBlur stdDeviation="7.5"/>
<feColorMatrix type="matrix" values="0 0 0 0 0.980392 0 0 0 0 0.207843 0 0 0 0 0.564706 0 0 0 1 0"/>
<feBlend mode="normal" in2="BackgroundImageFix" result="effect1_dropShadow_166_1203"/>
<feColorMatrix in="SourceAlpha" type="matrix" values="0 0 0 0 0 0 0 0 0 0 0 0 0 0 0 0 0 0 127 0" result="hardAlpha"/>
<feOffset/>
<feGaussianBlur stdDeviation="5"/>
<feColorMatrix type="matrix" values="0 0 0 0 0.980392 0 0 0 0 0.207843 0 0 0 0 0.564706 0 0 0 1 0"/>
<feBlend mode="normal" in2="effect1_dropShadow_166_1203" result="effect2_dropShadow_166_1203"/>
<feBlend mode="normal" in="SourceGraphic" in2="effect2_dropShadow_166_1203" result="shape"/>
</filter>
<filter id="filter5_dd_166_1203" x="888.655" y="101.684" width="74.373" height="84.5715" filterUnits="userSpaceOnUse" color-interpolation-filters="sRGB">
<feFlood flood-opacity="0" result="BackgroundImageFix"/>
<feColorMatrix in="SourceAlpha" type="matrix" values="0 0 0 0 0 0 0 0 0 0 0 0 0 0 0 0 0 0 127 0" result="hardAlpha"/>
<feOffset/>
<feGaussianBlur stdDeviation="7.5"/>
<feColorMatrix type="matrix" values="0 0 0 0 0.980392 0 0 0 0 0.207843 0 0 0 0 0.564706 0 0 0 1 0"/>
<feBlend mode="normal" in2="BackgroundImageFix" result="effect1_dropShadow_166_1203"/>
<feColorMatrix in="SourceAlpha" type="matrix" values="0 0 0 0 0 0 0 0 0 0 0 0 0 0 0 0 0 0 127 0" result="hardAlpha"/>
<feOffset/>
<feGaussianBlur stdDeviation="5"/>
<feColorMatrix type="matrix" values="0 0 0 0 0.980392 0 0 0 0 0.207843 0 0 0 0 0.564706 0 0 0 1 0"/>
<feBlend mode="normal" in2="effect1_dropShadow_166_1203" result="effect2_dropShadow_166_1203"/>
<feBlend mode="normal" in="SourceGraphic" in2="effect2_dropShadow_166_1203" result="shape"/>
</filter>
<filter id="filter6_dd_166_1203" x="834.754" y="96.6633" width="90.3171" height="78.498" filterUnits="userSpaceOnUse" color-interpolation-filters="sRGB">
<feFlood flood-opacity="0" result="BackgroundImageFix"/>
<feColorMatrix in="SourceAlpha" type="matrix" values="0 0 0 0 0 0 0 0 0 0 0 0 0 0 0 0 0 0 127 0" result="hardAlpha"/>
<feOffset/>
<feGaussianBlur stdDeviation="7.5"/>
<feColorMatrix type="matrix" values="0 0 0 0 0.980392 0 0 0 0 0.207843 0 0 0 0 0.564706 0 0 0 1 0"/>
<feBlend mode="normal" in2="BackgroundImageFix" result="effect1_dropShadow_166_1203"/>
<feColorMatrix in="SourceAlpha" type="matrix" values="0 0 0 0 0 0 0 0 0 0 0 0 0 0 0 0 0 0 127 0" result="hardAlpha"/>
<feOffset/>
<feGaussianBlur stdDeviation="5"/>
<feColorMatrix type="matrix" values="0 0 0 0 0.980392 0 0 0 0 0.207843 0 0 0 0 0.564706 0 0 0 1 0"/>
<feBlend mode="normal" in2="effect1_dropShadow_166_1203" result="effect2_dropShadow_166_1203"/>
<feBlend mode="normal" in="SourceGraphic" in2="effect2_dropShadow_166_1203" result="shape"/>
</filter>
<filter id="filter7_dd_166_1203" x="786.047" y="109.359" width="84.5525" height="74.5732" filterUnits="userSpaceOnUse" color-interpolation-filters="sRGB">
<feFlood flood-opacity="0" result="BackgroundImageFix"/>
<feColorMatrix in="SourceAlpha" type="matrix" values="0 0 0 0 0 0 0 0 0 0 0 0 0 0 0 0 0 0 127 0" result="hardAlpha"/>
<feOffset/>
<feGaussianBlur stdDeviation="7.5"/>
<feColorMatrix type="matrix" values="0 0 0 0 0.980392 0 0 0 0 0.207843 0 0 0 0 0.564706 0 0 0 1 0"/>
<feBlend mode="normal" in2="BackgroundImageFix" result="effect1_dropShadow_166_1203"/>
<feColorMatrix in="SourceAlpha" type="matrix" values="0 0 0 0 0 0 0 0 0 0 0 0 0 0 0 0 0 0 127 0" result="hardAlpha"/>
<feOffset/>
<feGaussianBlur stdDeviation="5"/>
<feColorMatrix type="matrix" values="0 0 0 0 0.980392 0 0 0 0 0.207843 0 0 0 0 0.564706 0 0 0 1 0"/>
<feBlend mode="normal" in2="effect1_dropShadow_166_1203" result="effect2_dropShadow_166_1203"/>
<feBlend mode="normal" in="SourceGraphic" in2="effect2_dropShadow_166_1203" result="shape"/>
</filter>
<filter id="filter8_dd_166_1203" x="799.684" y="138.308" width="199.801" height="256.207" filterUnits="userSpaceOnUse" color-interpolation-filters="sRGB">
<feFlood flood-opacity="0" result="BackgroundImageFix"/>
<feColorMatrix in="SourceAlpha" type="matrix" values="0 0 0 0 0 0 0 0 0 0 0 0 0 0 0 0 0 0 127 0" result="hardAlpha"/>
<feOffset/>
<feGaussianBlur stdDeviation="7.5"/>
<feColorMatrix type="matrix" values="0 0 0 0 0.980392 0 0 0 0 0.207843 0 0 0 0 0.564706 0 0 0 1 0"/>
<feBlend mode="normal" in2="BackgroundImageFix" result="effect1_dropShadow_166_1203"/>
<feColorMatrix in="SourceAlpha" type="matrix" values="0 0 0 0 0 0 0 0 0 0 0 0 0 0 0 0 0 0 127 0" result="hardAlpha"/>
<feOffset/>
<feGaussianBlur stdDeviation="5"/>
<feColorMatrix type="matrix" values="0 0 0 0 0.980392 0 0 0 0 0.207843 0 0 0 0 0.564706 0 0 0 1 0"/>
<feBlend mode="normal" in2="effect1_dropShadow_166_1203" result="effect2_dropShadow_166_1203"/>
<feBlend mode="normal" in="SourceGraphic" in2="effect2_dropShadow_166_1203" result="shape"/>
</filter>
<filter id="filter9_dd_166_1203" x="848.197" y="150.436" width="54.2627" height="231.951" filterUnits="userSpaceOnUse" color-interpolation-filters="sRGB">
<feFlood flood-opacity="0" result="BackgroundImageFix"/>
<feColorMatrix in="SourceAlpha" type="matrix" values="0 0 0 0 0 0 0 0 0 0 0 0 0 0 0 0 0 0 127 0" result="hardAlpha"/>
<feOffset/>
<feGaussianBlur stdDeviation="7.5"/>
<feColorMatrix type="matrix" values="0 0 0 0 0.980392 0 0 0 0 0.207843 0 0 0 0 0.564706 0 0 0 1 0"/>
<feBlend mode="normal" in2="BackgroundImageFix" result="effect1_dropShadow_166_1203"/>
<feColorMatrix in="SourceAlpha" type="matrix" values="0 0 0 0 0 0 0 0 0 0 0 0 0 0 0 0 0 0 127 0" result="hardAlpha"/>
<feOffset/>
<feGaussianBlur stdDeviation="5"/>
<feColorMatrix type="matrix" values="0 0 0 0 0.980392 0 0 0 0 0.207843 0 0 0 0 0.564706 0 0 0 1 0"/>
<feBlend mode="normal" in2="effect1_dropShadow_166_1203" result="effect2_dropShadow_166_1203"/>
<feBlend mode="normal" in="SourceGraphic" in2="effect2_dropShadow_166_1203" result="shape"/>
</filter>
<filter id="filter10_dd_166_1203" x="824.89" y="158.765" width="51.4136" height="213.759" filterUnits="userSpaceOnUse" color-interpolation-filters="sRGB">
<feFlood flood-opacity="0" result="BackgroundImageFix"/>
<feColorMatrix in="SourceAlpha" type="matrix" values="0 0 0 0 0 0 0 0 0 0 0 0 0 0 0 0 0 0 127 0" result="hardAlpha"/>
<feOffset/>
<feGaussianBlur stdDeviation="7.5"/>
<feColorMatrix type="matrix" values="0 0 0 0 0.980392 0 0 0 0 0.207843 0 0 0 0 0.564706 0 0 0 1 0"/>
<feBlend mode="normal" in2="BackgroundImageFix" result="effect1_dropShadow_166_1203"/>
<feColorMatrix in="SourceAlpha" type="matrix" values="0 0 0 0 0 0 0 0 0 0 0 0 0 0 0 0 0 0 127 0" result="hardAlpha"/>
<feOffset/>
<feGaussianBlur stdDeviation="5"/>
<feColorMatrix type="matrix" values="0 0 0 0 0.980392 0 0 0 0 0.207843 0 0 0 0 0.564706 0 0 0 1 0"/>
<feBlend mode="normal" in2="effect1_dropShadow_166_1203" result="effect2_dropShadow_166_1203"/>
<feBlend mode="normal" in="SourceGraphic" in2="effect2_dropShadow_166_1203" result="shape"/>
</filter>
<filter id="filter11_dd_166_1203" x="872.453" y="162.198" width="65.4421" height="223.988" filterUnits="userSpaceOnUse" color-interpolation-filters="sRGB">
<feFlood flood-opacity="0" result="BackgroundImageFix"/>
<feColorMatrix in="SourceAlpha" type="matrix" values="0 0 0 0 0 0 0 0 0 0 0 0 0 0 0 0 0 0 127 0" result="hardAlpha"/>
<feOffset/>
<feGaussianBlur stdDeviation="7.5"/>
<feColorMatrix type="matrix" values="0 0 0 0 0.980392 0 0 0 0 0.207843 0 0 0 0 0.564706 0 0 0 1 0"/>
<feBlend mode="normal" in2="BackgroundImageFix" result="effect1_dropShadow_166_1203"/>
<feColorMatrix in="SourceAlpha" type="matrix" values="0 0 0 0 0 0 0 0 0 0 0 0 0 0 0 0 0 0 127 0" result="hardAlpha"/>
<feOffset/>
<feGaussianBlur stdDeviation="5"/>
<feColorMatrix type="matrix" values="0 0 0 0 0.980392 0 0 0 0 0.207843 0 0 0 0 0.564706 0 0 0 1 0"/>
<feBlend mode="normal" in2="effect1_dropShadow_166_1203" result="effect2_dropShadow_166_1203"/>
<feBlend mode="normal" in="SourceGraphic" in2="effect2_dropShadow_166_1203" result="shape"/>
</filter>
<filter id="filter12_dd_166_1203" x="897.658" y="173.96" width="75.6709" height="209.96" filterUnits="userSpaceOnUse" color-interpolation-filters="sRGB">
<feFlood flood-opacity="0" result="BackgroundImageFix"/>
<feColorMatrix in="SourceAlpha" type="matrix" values="0 0 0 0 0 0 0 0 0 0 0 0 0 0 0 0 0 0 127 0" result="hardAlpha"/>
<feOffset/>
<feGaussianBlur stdDeviation="7.5"/>
<feColorMatrix type="matrix" values="0 0 0 0 0.980392 0 0 0 0 0.207843 0 0 0 0 0.564706 0 0 0 1 0"/>
<feBlend mode="normal" in2="BackgroundImageFix" result="effect1_dropShadow_166_1203"/>
<feColorMatrix in="SourceAlpha" type="matrix" values="0 0 0 0 0 0 0 0 0 0 0 0 0 0 0 0 0 0 127 0" result="hardAlpha"/>
<feOffset/>
<feGaussianBlur stdDeviation="5"/>
<feColorMatrix type="matrix" values="0 0 0 0 0.980392 0 0 0 0 0.207843 0 0 0 0 0.564706 0 0 0 1 0"/>
<feBlend mode="normal" in2="effect1_dropShadow_166_1203" result="effect2_dropShadow_166_1203"/>
<feBlend mode="normal" in="SourceGraphic" in2="effect2_dropShadow_166_1203" result="shape"/>
</filter>
<filter id="filter13_dd_166_1203" x="819.052" y="63.0476" width="84.282" height="77.2166" filterUnits="userSpaceOnUse" color-interpolation-filters="sRGB">
<feFlood flood-opacity="0" result="BackgroundImageFix"/>
<feColorMatrix in="SourceAlpha" type="matrix" values="0 0 0 0 0 0 0 0 0 0 0 0 0 0 0 0 0 0 127 0" result="hardAlpha"/>
<feOffset/>
<feGaussianBlur stdDeviation="7.5"/>
<feColorMatrix type="matrix" values="0 0 0 0 0.980392 0 0 0 0 0.207843 0 0 0 0 0.564706 0 0 0 1 0"/>
<feBlend mode="normal" in2="BackgroundImageFix" result="effect1_dropShadow_166_1203"/>
<feColorMatrix in="SourceAlpha" type="matrix" values="0 0 0 0 0 0 0 0 0 0 0 0 0 0 0 0 0 0 127 0" result="hardAlpha"/>
<feOffset/>
<feGaussianBlur stdDeviation="5"/>
<feColorMatrix type="matrix" values="0 0 0 0 0.980392 0 0 0 0 0.207843 0 0 0 0 0.564706 0 0 0 1 0"/>
<feBlend mode="normal" in2="effect1_dropShadow_166_1203" result="effect2_dropShadow_166_1203"/>
<feBlend mode="normal" in="SourceGraphic" in2="effect2_dropShadow_166_1203" result="shape"/>
</filter>
<filter id="filter14_dd_166_1203" x="770.016" y="200.576" width="90.291" height="78.478" filterUnits="userSpaceOnUse" color-interpolation-filters="sRGB">
<feFlood flood-opacity="0" result="BackgroundImageFix"/>
<feColorMatrix in="SourceAlpha" type="matrix" values="0 0 0 0 0 0 0 0 0 0 0 0 0 0 0 0 0 0 127 0" result="hardAlpha"/>
<feOffset/>
<feGaussianBlur stdDeviation="7.5"/>
<feColorMatrix type="matrix" values="0 0 0 0 0.980392 0 0 0 0 0.207843 0 0 0 0 0.564706 0 0 0 1 0"/>
<feBlend mode="normal" in2="BackgroundImageFix" result="effect1_dropShadow_166_1203"/>
<feColorMatrix in="SourceAlpha" type="matrix" values="0 0 0 0 0 0 0 0 0 0 0 0 0 0 0 0 0 0 127 0" result="hardAlpha"/>
<feOffset/>
<feGaussianBlur stdDeviation="5"/>
<feColorMatrix type="matrix" values="0 0 0 0 0.980392 0 0 0 0 0.207843 0 0 0 0 0.564706 0 0 0 1 0"/>
<feBlend mode="normal" in2="effect1_dropShadow_166_1203" result="effect2_dropShadow_166_1203"/>
<feBlend mode="normal" in="SourceGraphic" in2="effect2_dropShadow_166_1203" result="shape"/>
</filter>
<filter id="filter15_dd_166_1203" x="748.005" y="295.976" width="87.3936" height="79.8884" filterUnits="userSpaceOnUse" color-interpolation-filters="sRGB">
<feFlood flood-opacity="0" result="BackgroundImageFix"/>
<feColorMatrix in="SourceAlpha" type="matrix" values="0 0 0 0 0 0 0 0 0 0 0 0 0 0 0 0 0 0 127 0" result="hardAlpha"/>
<feOffset/>
<feGaussianBlur stdDeviation="7.5"/>
<feColorMatrix type="matrix" values="0 0 0 0 0.980392 0 0 0 0 0.207843 0 0 0 0 0.564706 0 0 0 1 0"/>
<feBlend mode="normal" in2="BackgroundImageFix" result="effect1_dropShadow_166_1203"/>
<feColorMatrix in="SourceAlpha" type="matrix" values="0 0 0 0 0 0 0 0 0 0 0 0 0 0 0 0 0 0 127 0" result="hardAlpha"/>
<feOffset/>
<feGaussianBlur stdDeviation="5"/>
<feColorMatrix type="matrix" values="0 0 0 0 0.980392 0 0 0 0 0.207843 0 0 0 0 0.564706 0 0 0 1 0"/>
<feBlend mode="normal" in2="effect1_dropShadow_166_1203" result="effect2_dropShadow_166_1203"/>
<feBlend mode="normal" in="SourceGraphic" in2="effect2_dropShadow_166_1203" result="shape"/>
</filter>
<filter id="filter16_dd_166_1203" x="803.386" y="315.624" width="74.3899" height="84.8877" filterUnits="userSpaceOnUse" color-interpolation-filters="sRGB">
<feFlood flood-opacity="0" result="BackgroundImageFix"/>
<feColorMatrix in="SourceAlpha" type="matrix" values="0 0 0 0 0 0 0 0 0 0 0 0 0 0 0 0 0 0 127 0" result="hardAlpha"/>
<feOffset/>
<feGaussianBlur stdDeviation="7.5"/>
<feColorMatrix type="matrix" values="0 0 0 0 0.980392 0 0 0 0 0.207843 0 0 0 0 0.564706 0 0 0 1 0"/>
<feBlend mode="normal" in2="BackgroundImageFix" result="effect1_dropShadow_166_1203"/>
<feColorMatrix in="SourceAlpha" type="matrix" values="0 0 0 0 0 0 0 0 0 0 0 0 0 0 0 0 0 0 127 0" result="hardAlpha"/>
<feOffset/>
<feGaussianBlur stdDeviation="5"/>
<feColorMatrix type="matrix" values="0 0 0 0 0.980392 0 0 0 0 0.207843 0 0 0 0 0.564706 0 0 0 1 0"/>
<feBlend mode="normal" in2="effect1_dropShadow_166_1203" result="effect2_dropShadow_166_1203"/>
<feBlend mode="normal" in="SourceGraphic" in2="effect2_dropShadow_166_1203" result="shape"/>
</filter>
<filter id="filter17_dd_166_1203" x="874.796" y="60.0862" width="80.0803" height="87.2148" filterUnits="userSpaceOnUse" color-interpolation-filters="sRGB">
<feFlood flood-opacity="0" result="BackgroundImageFix"/>
<feColorMatrix in="SourceAlpha" type="matrix" values="0 0 0 0 0 0 0 0 0 0 0 0 0 0 0 0 0 0 127 0" result="hardAlpha"/>
<feOffset/>
<feGaussianBlur stdDeviation="7.5"/>
<feColorMatrix type="matrix" values="0 0 0 0 0.980392 0 0 0 0 0.207843 0 0 0 0 0.564706 0 0 0 1 0"/>
<feBlend mode="normal" in2="BackgroundImageFix" result="effect1_dropShadow_166_1203"/>
<feColorMatrix in="SourceAlpha" type="matrix" values="0 0 0 0 0 0 0 0 0 0 0 0 0 0 0 0 0 0 127 0" result="hardAlpha"/>
<feOffset/>
<feGaussianBlur stdDeviation="5"/>
<feColorMatrix type="matrix" values="0 0 0 0 0.980392 0 0 0 0 0.207843 0 0 0 0 0.564706 0 0 0 1 0"/>
<feBlend mode="normal" in2="effect1_dropShadow_166_1203" result="effect2_dropShadow_166_1203"/>
<feBlend mode="normal" in="SourceGraphic" in2="effect2_dropShadow_166_1203" result="shape"/>
</filter>
<clipPath id="clip0_166_1203">
<rect width="990" height="391" fill="white"/>
</clipPath>
<clipPath id="clip1_166_1203">
<rect width="245.023" height="358.817" fill="white" transform="matrix(-0.866025 0.5 0.5 0.866025 112.197 -11)"/>
</clipPath>
<clipPath id="clip2_166_1203">
<rect width="287.722" height="336.824" fill="white" transform="translate(704 71.8262) rotate(-5.54984)"/>
</clipPath>
</defs>
</svg>
