<svg width="34" height="33" viewBox="0 0 34 33" fill="none" xmlns="http://www.w3.org/2000/svg">
<path d="M18.3313 32.5173L18.3312 32.5171L18.3259 32.5206C17.959 32.7643 17.4888 32.9 17 32.9C16.5112 32.9 16.041 32.7643 15.6741 32.5206L15.6711 32.5186C15.3298 32.2889 11.4449 29.6748 7.63968 26.0103C5.7303 24.1715 3.84364 22.0707 2.43493 19.8764C1.02553 17.681 0.1 15.4004 0.1 13.2C0.1 9.73498 1.87257 6.40497 5.04051 3.94516C8.20904 1.4849 12.5108 0.1 17 0.1C21.4892 0.1 25.791 1.4849 28.9595 3.94516C32.1274 6.40497 33.9 9.73498 33.9 13.2C33.9 15.4006 32.981 17.6812 31.5799 19.8766C30.1794 22.0709 28.3027 24.1716 26.4 26.0104C22.5936 29.6889 18.6954 32.3072 18.3313 32.5173ZM16.9411 29.2032L16.9999 29.2461L17.0587 29.2033C19.3253 27.5591 22.5185 24.9517 25.1463 22.0638C26.4602 20.6198 27.6348 19.1034 28.4814 17.6001C29.3276 16.0977 29.85 14.6016 29.85 13.2C29.85 10.5385 28.4882 7.99291 26.0769 6.12064C23.6663 4.24882 20.401 3.19999 17 3.19999C13.599 3.19999 10.3337 4.24882 7.92306 6.12064C5.5118 7.99291 4.15 10.5385 4.15 13.2C4.15 14.6016 4.67244 16.0967 5.51857 17.5978C6.3652 19.0998 7.53983 20.6147 8.85372 22.0576C11.4815 24.9435 14.6747 27.5508 16.9411 29.2032ZM12.3237 7.80104C13.7063 7.0837 15.3338 6.69998 17 6.69998C19.2349 6.69998 21.3746 7.38953 22.9491 8.61205C24.523 9.83412 25.4 11.4854 25.4 13.2C25.4 14.479 24.9117 15.7324 23.9917 16.8015C23.0713 17.871 21.7603 18.7076 20.2222 19.2023C18.6842 19.697 16.9908 19.8266 15.357 19.5743C13.7231 19.3219 12.2248 18.6994 11.0509 17.7879C9.87715 16.8765 9.08191 15.7186 8.7602 14.4627C8.43865 13.2076 8.60322 11.9061 9.23525 10.7213C9.86769 9.53578 10.941 8.5184 12.3237 7.80104ZM14.5928 16.0326C15.3069 16.403 16.1445 16.5999 17 16.5999C18.1466 16.5999 19.2499 16.2465 20.0665 15.6124C20.8837 14.9779 21.35 14.111 21.35 13.2C21.35 12.521 21.0905 11.8603 20.6095 11.3014C20.1289 10.7429 19.4486 10.3106 18.657 10.056C17.8653 9.80133 16.995 9.7349 16.1556 9.86455C15.3163 9.99418 14.5427 10.3145 13.9335 10.7875C13.3241 11.2607 12.905 11.8668 12.7348 12.5313C12.5644 13.1966 12.6523 13.8857 12.9853 14.5099C13.3179 15.1333 13.8787 15.6621 14.5928 16.0326Z" fill="#28FAEF" stroke="#080A0D" stroke-width="0.2"/>
</svg>
