<svg width="311" height="326" viewBox="0 0 311 326" fill="none" xmlns="http://www.w3.org/2000/svg">
<path d="M52.4934 179.603C65.9561 179.603 76.8697 168.572 76.8697 154.964C76.8697 141.357 65.9561 130.326 52.4934 130.326C39.0307 130.326 28.117 141.357 28.117 154.964C28.117 168.572 39.0307 179.603 52.4934 179.603Z" stroke="url(#paint0_linear_64_1096)" stroke-width="6" stroke-linecap="round" stroke-linejoin="round"/>
<path d="M236.238 52.0573C228.205 61.8699 228.049 90.7489 251.252 79.0084C274.455 67.2679 261.583 43.2936 236.238 52.0573Z" stroke="url(#paint1_linear_64_1096)" stroke-width="7.27147" stroke-linecap="round" stroke-linejoin="round"/>
<path d="M48.7473 70.605C82.5246 27.8866 168.955 25.8997 173.922 33.8473C178.889 41.795 168.955 52.7229 178.889 61.664C188.824 70.605 201.739 75.5723 206.706 72.5919C211.673 69.6116 198.758 98.4216 216.64 106.369C234.523 114.317 246.444 117.297 251.411 113.323C256.379 109.35 245.451 127.232 263.333 136.173C281.215 145.114 290.156 140.147 290.156 140.147C290.156 140.147 305.058 198.76 279.228 240.485C253.398 282.21 153.067 376.038 42.7866 281.217C-31.6259 217.235 14.9699 98.4217 48.7473 70.605Z" stroke="url(#paint2_linear_64_1096)" stroke-width="6" stroke-linecap="round" stroke-linejoin="round"/>
<path d="M210.68 3.05035C200.745 2.05691 181.87 15.9652 199.752 26.8932C217.634 37.8212 227.568 16.9587 210.68 3.05035Z" stroke="url(#paint3_linear_64_1096)" stroke-width="6" stroke-linecap="round" stroke-linejoin="round"/>
<path d="M302.755 90.3945C310.099 83.6307 312.249 60.2831 292.2 66.3845C272.151 72.4859 281.139 93.773 302.755 90.3945Z" stroke="url(#paint4_linear_64_1096)" stroke-width="6" stroke-linecap="round" stroke-linejoin="round"/>
<path d="M219.01 180.981C232.473 180.981 243.386 169.95 243.386 156.343C243.386 142.735 232.473 131.704 219.01 131.704C205.547 131.704 194.634 142.735 194.634 156.343C194.634 169.95 205.547 180.981 219.01 180.981Z" stroke="url(#paint5_linear_64_1096)" stroke-width="6" stroke-linecap="round" stroke-linejoin="round"/>
<path d="M140.969 208.852C154.432 208.852 165.345 197.821 165.345 184.214C165.345 170.606 154.432 159.575 140.969 159.575C127.506 159.575 116.593 170.606 116.593 184.214C116.593 197.821 127.506 208.852 140.969 208.852Z" stroke="url(#paint6_linear_64_1096)" stroke-width="6" stroke-linecap="round" stroke-linejoin="round"/>
<path d="M186.651 280.56C200.114 280.56 211.028 269.529 211.028 255.921C211.028 242.314 200.114 231.283 186.651 231.283C173.189 231.283 162.275 242.314 162.275 255.921C162.275 269.529 173.189 280.56 186.651 280.56Z" stroke="url(#paint7_linear_64_1096)" stroke-width="6" stroke-linecap="round" stroke-linejoin="round"/>
<path d="M95.2187 284.931C108.681 284.931 119.595 273.9 119.595 260.292C119.595 246.685 108.681 235.654 95.2187 235.654C81.756 235.654 70.8424 246.685 70.8424 260.292C70.8424 273.9 81.756 284.931 95.2187 284.931Z" stroke="url(#paint8_linear_64_1096)" stroke-width="6" stroke-linecap="round" stroke-linejoin="round"/>
<path d="M140.737 112.909C155.389 112.909 167.266 101.031 167.266 86.3791C167.266 71.7271 155.389 59.8492 140.737 59.8492C126.084 59.8492 114.207 71.7271 114.207 86.3791C114.207 101.031 126.084 112.909 140.737 112.909Z" stroke="url(#paint9_linear_64_1096)" stroke-width="6.49523" stroke-linecap="round" stroke-linejoin="round"/>
<defs>
<linearGradient id="paint0_linear_64_1096" x1="-391.34" y1="-6469.66" x2="-391.34" y2="-6469.66" gradientUnits="userSpaceOnUse">
<stop stop-color="#28FAEF"/>
</linearGradient>
<linearGradient id="paint1_linear_64_1096" x1="-391.34" y1="-6469.67" x2="-391.34" y2="-6469.67" gradientUnits="userSpaceOnUse">
<stop stop-color="#28FAEF"/>
</linearGradient>
<linearGradient id="paint2_linear_64_1096" x1="-391.34" y1="-6469.67" x2="-391.34" y2="-6469.67" gradientUnits="userSpaceOnUse">
<stop stop-color="#28FAEF"/>
</linearGradient>
<linearGradient id="paint3_linear_64_1096" x1="-391.34" y1="-6469.67" x2="-391.34" y2="-6469.67" gradientUnits="userSpaceOnUse">
<stop stop-color="#28FAEF"/>
</linearGradient>
<linearGradient id="paint4_linear_64_1096" x1="-391.34" y1="-6469.67" x2="-391.34" y2="-6469.67" gradientUnits="userSpaceOnUse">
<stop stop-color="#28FAEF"/>
</linearGradient>
<linearGradient id="paint5_linear_64_1096" x1="-391.34" y1="-6469.67" x2="-391.34" y2="-6469.67" gradientUnits="userSpaceOnUse">
<stop stop-color="#28FAEF"/>
</linearGradient>
<linearGradient id="paint6_linear_64_1096" x1="-391.34" y1="-6469.67" x2="-391.34" y2="-6469.67" gradientUnits="userSpaceOnUse">
<stop stop-color="#28FAEF"/>
</linearGradient>
<linearGradient id="paint7_linear_64_1096" x1="-391.34" y1="-6469.67" x2="-391.34" y2="-6469.67" gradientUnits="userSpaceOnUse">
<stop stop-color="#28FAEF"/>
</linearGradient>
<linearGradient id="paint8_linear_64_1096" x1="-391.34" y1="-6469.67" x2="-391.34" y2="-6469.67" gradientUnits="userSpaceOnUse">
<stop stop-color="#28FAEF"/>
</linearGradient>
<linearGradient id="paint9_linear_64_1096" x1="-391.34" y1="-6469.67" x2="-391.34" y2="-6469.67" gradientUnits="userSpaceOnUse">
<stop stop-color="#28FAEF"/>
</linearGradient>
</defs>
</svg>
