<svg width="480" height="317" viewBox="0 0 480 317" fill="none" xmlns="http://www.w3.org/2000/svg">
<g filter="url(#filter0_i_361_962)">
<path d="M96 2H382C393.046 2 402 10.9543 402 22V276H116C104.954 276 96 267.046 96 256V2Z" fill="#080A0D"/>
</g>
<path d="M96 1H95V2V256C95 267.598 104.402 277 116 277H402H403V276V22C403 10.402 393.598 1 382 1H96Z" stroke="#28FAEF" stroke-width="2"/>
<g filter="url(#filter1_d_361_962)">
<path d="M140.946 97.1875C140.946 99.8438 141.352 101.859 142.165 103.234C143.008 104.578 144.399 105.25 146.337 105.25C147.555 105.25 148.79 104.859 150.04 104.078C151.29 103.297 152.508 102.188 153.696 100.75C154.883 99.2812 155.977 97.5312 156.977 95.5C158.008 93.4375 158.915 91.1562 159.696 88.6562C160.477 86.125 161.087 83.3906 161.524 80.4531C161.962 77.5156 162.18 74.4531 162.18 71.2656C162.18 68.0469 161.821 65 161.102 62.125C160.415 59.25 159.321 56.75 157.821 54.625C156.352 52.4688 154.462 50.7656 152.149 49.5156C149.868 48.2656 147.133 47.6406 143.946 47.6406C141.29 47.6406 138.946 47.9375 136.915 48.5312C134.883 49.125 133.118 49.9531 131.618 51.0156C130.149 52.0469 128.899 53.2656 127.868 54.6719C126.868 56.0781 126.055 57.5938 125.43 59.2188C124.837 60.8125 124.415 62.4844 124.165 64.2344C123.915 65.9531 123.79 67.6562 123.79 69.3438C123.79 71.6562 124.024 73.7188 124.493 75.5312C124.993 77.3438 125.54 78.8906 126.133 80.1719C126.758 81.4219 127.337 82.3906 127.868 83.0781C128.43 83.7656 128.758 84.1562 128.852 84.25C129.383 84.0938 129.758 84.1562 129.977 84.4375C130.196 84.7188 130.305 85.0938 130.305 85.5625C130.305 86.1875 130.165 86.8438 129.883 87.5312C129.633 88.1875 129.29 88.7969 128.852 89.3594C128.415 89.8906 127.915 90.3438 127.352 90.7188C126.821 91.0625 126.274 91.2344 125.712 91.2344C125.462 91.2344 125.212 91.2031 124.962 91.1406C124.743 91.0781 124.508 90.9531 124.258 90.7656C124.196 90.7344 123.962 90.5156 123.555 90.1094C123.149 89.6719 122.649 89.0625 122.055 88.2812C121.462 87.5 120.821 86.5312 120.133 85.375C119.477 84.1875 118.852 82.8281 118.258 81.2969C117.696 79.7656 117.227 78.0469 116.852 76.1406C116.477 74.2344 116.29 72.1562 116.29 69.9062C116.29 65.5625 116.946 61.5781 118.258 57.9531C119.602 54.2969 121.493 51.1719 123.93 48.5781C126.368 45.9531 129.305 43.9219 132.743 42.4844C136.18 41.0156 140.008 40.2812 144.227 40.2812C148.696 40.2812 152.54 41.1406 155.758 42.8594C159.008 44.5469 161.665 46.7969 163.727 49.6094C165.821 52.4219 167.368 55.6406 168.368 59.2656C169.368 62.8906 169.868 66.6406 169.868 70.5156C169.868 75.0469 169.508 79.2344 168.79 83.0781C168.102 86.9219 167.149 90.4062 165.93 93.5312C164.743 96.6562 163.352 99.4219 161.758 101.828C160.165 104.203 158.477 106.203 156.696 107.828C154.915 109.422 153.087 110.625 151.212 111.438C149.337 112.25 147.524 112.656 145.774 112.656C143.524 112.656 141.602 112.297 140.008 111.578C138.446 110.891 137.18 109.875 136.212 108.531C135.243 107.156 134.54 105.484 134.102 103.516C133.665 101.516 133.446 99.25 133.446 96.7188V59.9219C133.446 59.0156 133.383 58.375 133.258 58C133.133 57.5938 133.071 57.2188 133.071 56.875C133.071 56.375 133.321 55.9844 133.821 55.7031C134.321 55.3906 134.915 55.2344 135.602 55.2344C137.196 55.2344 138.477 55.6562 139.446 56.5C140.446 57.3125 140.946 58.2969 140.946 59.4531V97.1875ZM196.281 111.672C195.156 111.672 193.999 111.5 192.812 111.156C191.656 110.812 190.593 110.219 189.624 109.375C188.687 108.531 187.906 107.422 187.281 106.047C186.687 104.641 186.39 102.875 186.39 100.75C186.39 97.6562 186.796 94.3906 187.609 90.9531C188.452 87.4844 189.656 83.6719 191.218 79.5156H183.906H182.827C182.796 80.4531 182.734 81.6406 182.64 83.0781C182.577 84.5156 182.452 86.0469 182.265 87.6719C182.077 89.2969 181.827 90.9375 181.515 92.5938C181.234 94.25 180.874 95.7812 180.437 97.1875C180.124 98.1875 179.624 98.7656 178.937 98.9219C178.281 99.0781 177.624 98.9688 176.968 98.5938C176.312 98.1875 175.781 97.6094 175.374 96.8594C174.968 96.1094 174.874 95.3281 175.093 94.5156C175.343 93.5469 175.562 92.375 175.749 91C175.937 89.5938 176.077 88.125 176.171 86.5938C176.296 85.0312 176.39 83.4844 176.452 81.9531C176.515 80.3906 176.562 79 176.593 77.7812C175.406 77.125 174.421 76.2969 173.64 75.2969C172.859 74.2656 172.468 73.0469 172.468 71.6406C172.468 70.9844 172.593 70.3906 172.843 69.8594C173.124 69.2969 173.484 68.8281 173.921 68.4531C174.359 68.0469 174.874 67.75 175.468 67.5625C176.062 67.3438 176.671 67.2344 177.296 67.2344C177.859 67.2344 178.437 67.3125 179.031 67.4688C179.656 67.625 180.234 67.9062 180.765 68.3125C181.327 68.7188 181.827 69.25 182.265 69.9062C182.702 70.5625 183.062 71.375 183.343 72.3438C184.124 72.4375 184.781 72.5156 185.312 72.5781C185.874 72.6094 186.343 72.6406 186.718 72.6719C187.093 72.7031 187.406 72.7188 187.656 72.7188C187.906 72.7188 188.156 72.7188 188.406 72.7188H193.421C193.702 72.7188 194.109 72.8906 194.64 73.2344C195.202 73.5781 195.749 74.0312 196.281 74.5938C196.812 75.125 197.249 75.7031 197.593 76.3281C197.968 76.9531 198.109 77.5469 198.015 78.1094C198.015 78.2969 197.906 78.75 197.687 79.4688C197.468 80.1875 197.202 81.0938 196.89 82.1875C196.577 83.2812 196.234 84.5469 195.859 85.9844C195.484 87.3906 195.14 88.875 194.827 90.4375C194.515 92 194.249 93.625 194.031 95.3125C193.812 96.9688 193.702 98.5938 193.702 100.188C193.702 100.844 193.781 101.484 193.937 102.109C194.093 102.734 194.327 103.297 194.64 103.797C194.952 104.266 195.343 104.641 195.812 104.922C196.312 105.203 196.89 105.344 197.546 105.344C198.64 105.344 199.577 105 200.359 104.312C201.14 103.625 201.796 102.766 202.327 101.734C202.859 100.703 203.281 99.5938 203.593 98.4062C203.937 97.1875 204.218 96.0469 204.437 94.9844C204.624 93.9844 204.937 93.2656 205.374 92.8281C205.812 92.3594 206.265 92.125 206.734 92.125C207.109 92.125 207.499 92.25 207.906 92.5C208.312 92.7188 208.671 93.0156 208.984 93.3906C209.327 93.7656 209.593 94.1875 209.781 94.6562C209.999 95.125 210.109 95.5938 210.109 96.0625C210.109 96.2188 210.093 96.3438 210.062 96.4375C210.031 96.5312 210.015 96.625 210.015 96.7188C209.577 98.3125 208.999 99.9844 208.281 101.734C207.593 103.484 206.702 105.094 205.609 106.562C204.515 108.031 203.202 109.25 201.671 110.219C200.14 111.188 198.343 111.672 196.281 111.672ZM208.912 62.8281C208.131 62.8281 207.381 62.6719 206.662 62.3594C205.975 62.0469 205.365 61.625 204.834 61.0938C204.334 60.5625 203.928 59.9531 203.615 59.2656C203.303 58.5469 203.146 57.7812 203.146 56.9688C203.146 56.125 203.303 55.3438 203.615 54.625C203.928 53.9062 204.334 53.2969 204.834 52.7969C205.365 52.2656 205.975 51.8594 206.662 51.5781C207.381 51.2656 208.131 51.1094 208.912 51.1094C209.756 51.1094 210.537 51.2656 211.256 51.5781C211.975 51.8594 212.584 52.2656 213.084 52.7969C213.615 53.2969 214.021 53.9062 214.303 54.625C214.615 55.3438 214.771 56.125 214.771 56.9688C214.771 57.7812 214.615 58.5469 214.303 59.2656C214.021 59.9531 213.615 60.5625 213.084 61.0938C212.584 61.625 211.975 62.0469 211.256 62.3594C210.537 62.6719 209.756 62.8281 208.912 62.8281ZM211.115 100.938C211.115 101.156 211.131 101.516 211.162 102.016C211.193 102.484 211.287 102.969 211.443 103.469C211.6 103.969 211.85 104.406 212.193 104.781C212.537 105.156 213.021 105.344 213.646 105.344C214.584 105.344 215.396 105 216.084 104.312C216.803 103.625 217.412 102.766 217.912 101.734C218.443 100.703 218.881 99.5938 219.225 98.4062C219.568 97.1875 219.85 96.0469 220.068 94.9844C220.256 94.0156 220.537 93.3125 220.912 92.875C221.318 92.4375 221.74 92.2031 222.178 92.1719C222.646 92.1094 223.1 92.2188 223.537 92.5C224.006 92.7812 224.412 93.1562 224.756 93.625C225.131 94.0625 225.396 94.5625 225.553 95.125C225.74 95.6875 225.771 96.2188 225.646 96.7188C225.209 98.3125 224.631 99.9844 223.912 101.734C223.225 103.484 222.334 105.094 221.24 106.562C220.146 108.031 218.834 109.25 217.303 110.219C215.771 111.188 213.975 111.672 211.912 111.672C210.631 111.672 209.49 111.422 208.49 110.922C207.49 110.453 206.646 109.812 205.959 109C205.271 108.188 204.74 107.234 204.365 106.141C204.021 105.047 203.85 103.891 203.85 102.672V77.0312C203.85 76.125 203.771 75.4688 203.615 75.0625C203.49 74.6562 203.428 74.2812 203.428 73.9375C203.428 73.4688 203.678 73.0938 204.178 72.8125C204.678 72.5 205.271 72.3438 205.959 72.3438C207.553 72.3438 208.803 72.7656 209.709 73.6094C210.646 74.4219 211.115 75.4062 211.115 76.5625V100.938ZM219.387 77.0312C219.387 76.125 219.309 75.4688 219.153 75.0625C219.028 74.6562 218.965 74.2812 218.965 73.9375C218.965 73.4688 219.215 73.0938 219.715 72.8125C220.215 72.5 220.809 72.3438 221.497 72.3438C223.09 72.3438 224.34 72.7656 225.247 73.6094C226.184 74.4219 226.653 75.4062 226.653 76.5625V102.391C226.653 103.297 226.794 104.016 227.075 104.547C227.356 105.078 227.919 105.344 228.762 105.344C229.95 105.344 231.137 104.953 232.325 104.172C233.544 103.359 234.622 102.203 235.559 100.703C236.528 99.1719 237.309 97.3125 237.903 95.125C238.528 92.9375 238.84 90.4531 238.84 87.6719C238.84 85.7344 238.684 84.125 238.372 82.8438C238.09 81.5625 237.747 80.5312 237.34 79.75C236.934 78.9375 236.497 78.3281 236.028 77.9219C235.59 77.5156 235.215 77.1875 234.903 76.9375C234.653 76.75 234.372 76.6406 234.059 76.6094C233.747 76.5469 233.59 76.375 233.59 76.0938C233.59 75.6562 233.7 75.1719 233.919 74.6406C234.169 74.0781 234.481 73.5625 234.856 73.0938C235.231 72.5938 235.653 72.1875 236.122 71.875C236.59 71.5312 237.059 71.3594 237.528 71.3594C238.497 71.3594 239.481 71.8438 240.481 72.8125C241.481 73.75 242.387 75 243.2 76.5625C244.044 78.125 244.731 79.9062 245.262 81.9062C245.794 83.875 246.059 85.8906 246.059 87.9531C246.059 91.2031 245.622 94.2656 244.747 97.1406C243.872 100.016 242.622 102.531 240.997 104.688C239.403 106.844 237.465 108.547 235.184 109.797C232.903 111.047 230.356 111.672 227.544 111.672C226.012 111.672 224.715 111.422 223.653 110.922C222.622 110.422 221.794 109.75 221.169 108.906C220.544 108.062 220.09 107.078 219.809 105.953C219.528 104.797 219.387 103.578 219.387 102.297V77.0312ZM271.628 81.0625C271.628 82.8438 271.316 84.6719 270.691 86.5469C270.097 88.4219 269.191 90.2031 267.972 91.8906C266.785 93.5469 265.3 95.0469 263.519 96.3906C261.769 97.7031 259.738 98.7031 257.425 99.3906C257.738 100.203 258.144 100.984 258.644 101.734C259.175 102.453 259.8 103.078 260.519 103.609C261.238 104.141 262.066 104.562 263.003 104.875C263.972 105.188 265.081 105.344 266.331 105.344C268.206 105.344 269.816 105 271.16 104.312C272.503 103.594 273.628 102.656 274.535 101.5C275.472 100.344 276.222 99.0469 276.785 97.6094C277.347 96.1719 277.769 94.7188 278.05 93.25C278.269 92.1875 278.706 91.4844 279.363 91.1406C280.05 90.7656 280.738 90.6719 281.425 90.8594C282.144 91.0469 282.753 91.4531 283.253 92.0781C283.785 92.6719 284.003 93.3906 283.91 94.2344C283.785 95.2031 283.566 96.3125 283.253 97.5625C282.972 98.8125 282.535 100.078 281.941 101.359C281.347 102.641 280.581 103.906 279.644 105.156C278.738 106.375 277.613 107.469 276.269 108.438C274.925 109.406 273.347 110.188 271.535 110.781C269.722 111.375 267.644 111.672 265.3 111.672C263.113 111.672 260.988 111.234 258.925 110.359C256.894 109.516 255.081 108.297 253.488 106.703C251.925 105.078 250.66 103.094 249.691 100.75C248.753 98.375 248.285 95.6875 248.285 92.6875C248.285 89.6562 248.706 86.8438 249.55 84.25C250.394 81.625 251.503 79.3594 252.878 77.4531C254.253 75.5469 255.816 74.0625 257.566 73C259.316 71.9062 261.113 71.3594 262.956 71.3594C264.3 71.3594 265.503 71.5938 266.566 72.0625C267.66 72.5312 268.581 73.2031 269.331 74.0781C270.081 74.9219 270.644 75.9375 271.019 77.125C271.425 78.3125 271.628 79.625 271.628 81.0625ZM256.16 92.4062C256.16 92.6875 256.175 92.9688 256.206 93.25C256.238 93.5312 256.253 93.8281 256.253 94.1406C257.441 93.5781 258.519 92.8594 259.488 91.9844C260.456 91.1094 261.285 90.1094 261.972 88.9844C262.66 87.8594 263.191 86.6406 263.566 85.3281C263.941 83.9844 264.128 82.5938 264.128 81.1562C264.128 80.0938 263.941 79.2656 263.566 78.6719C263.222 78.0781 262.738 77.7812 262.113 77.7812C261.331 77.7812 260.628 78.0469 260.003 78.5781C259.41 79.1094 258.878 79.8125 258.41 80.6875C257.972 81.5312 257.597 82.5 257.285 83.5938C257.003 84.6562 256.769 85.7344 256.581 86.8281C256.394 87.9219 256.269 88.9688 256.206 89.9688C256.144 90.9375 256.128 91.75 256.16 92.4062ZM326.282 109.469C326.282 110.281 326.016 110.844 325.485 111.156C324.954 111.5 324.329 111.672 323.61 111.672C323.047 111.672 322.485 111.594 321.922 111.438C321.36 111.281 320.844 111.078 320.376 110.828C319.938 110.578 319.563 110.281 319.251 109.938C318.969 109.625 318.829 109.281 318.829 108.906V49.2812C316.672 49.5625 314.626 50.1719 312.688 51.1094C310.782 52.0469 309.11 53.3281 307.672 54.9531C306.266 56.5781 305.141 58.5469 304.297 60.8594C303.485 63.1719 303.079 65.8438 303.079 68.875C303.079 70.8125 303.282 72.5625 303.688 74.125C304.094 75.6562 304.579 76.9688 305.141 78.0625C305.704 79.125 306.266 79.9531 306.829 80.5469C307.391 81.1406 307.829 81.4375 308.141 81.4375C308.391 81.4375 308.563 81.3281 308.657 81.1094C308.782 80.8906 308.969 80.7812 309.219 80.7812C309.469 80.7812 309.641 80.9375 309.735 81.25C309.829 81.5625 309.876 81.8906 309.876 82.2344C309.876 83.2344 309.672 84.2031 309.266 85.1406C308.86 86.0469 308.344 86.7969 307.719 87.3906C307.126 87.9531 306.454 88.3125 305.704 88.4688C304.954 88.625 304.235 88.4531 303.547 87.9531C302.704 87.3906 301.797 86.5312 300.829 85.375C299.891 84.2188 299.016 82.8281 298.204 81.2031C297.422 79.5469 296.766 77.6875 296.235 75.625C295.735 73.5625 295.485 71.3125 295.485 68.875C295.485 65.5 295.891 62.4844 296.704 59.8281C297.516 57.1406 298.594 54.7969 299.938 52.7969C301.313 50.7969 302.907 49.0938 304.719 47.6875C306.532 46.2812 308.438 45.1406 310.438 44.2656C312.438 43.3906 314.469 42.7656 316.532 42.3906C318.594 41.9844 320.563 41.7812 322.438 41.7812C322.938 41.7812 323.422 41.8906 323.891 42.1094C324.36 42.2969 324.766 42.5781 325.11 42.9531C325.454 43.2969 325.735 43.7188 325.954 44.2188C326.172 44.7188 326.282 45.25 326.282 45.8125V109.469ZM334.132 77.0312C334.132 76.125 334.054 75.4688 333.898 75.0625C333.773 74.6562 333.71 74.2812 333.71 73.9375C333.71 73.4688 333.96 73.0938 334.46 72.8125C334.96 72.5 335.554 72.3438 336.242 72.3438C337.835 72.3438 339.085 72.7656 339.992 73.6094C340.929 74.4219 341.398 75.4062 341.398 76.5625V80.875C342.054 79.5312 342.757 78.2812 343.507 77.125C344.288 75.9688 345.117 74.9688 345.992 74.125C346.898 73.25 347.851 72.5781 348.851 72.1094C349.882 71.6094 350.992 71.3594 352.179 71.3594C353.773 71.3594 355.085 71.6562 356.117 72.25C357.148 72.8438 357.96 73.6094 358.554 74.5469C359.148 75.4844 359.554 76.5312 359.773 77.6875C360.023 78.8438 360.148 79.9688 360.148 81.0625V100.938C360.148 101.156 360.163 101.516 360.195 102.016C360.226 102.484 360.32 102.969 360.476 103.469C360.632 103.969 360.867 104.406 361.179 104.781C361.523 105.156 362.007 105.344 362.632 105.344C363.601 105.344 364.429 105 365.117 104.312C365.835 103.625 366.445 102.766 366.945 101.734C367.476 100.703 367.898 99.5938 368.21 98.4062C368.554 97.1875 368.835 96.0469 369.054 94.9844C369.242 93.9844 369.554 93.2656 369.992 92.8281C370.429 92.3594 370.882 92.125 371.351 92.125C371.726 92.125 372.117 92.25 372.523 92.5C372.929 92.7188 373.288 93.0156 373.601 93.3906C373.945 93.7656 374.21 94.1875 374.398 94.6562C374.617 95.125 374.726 95.5938 374.726 96.0625C374.726 96.125 374.726 96.2031 374.726 96.2969C374.726 96.3906 374.695 96.5312 374.632 96.7188C374.226 98.3125 373.663 99.9844 372.945 101.734C372.257 103.484 371.351 105.094 370.226 106.562C369.132 108.031 367.82 109.25 366.288 110.219C364.757 111.188 362.96 111.672 360.898 111.672C359.617 111.672 358.476 111.422 357.476 110.922C356.507 110.453 355.663 109.812 354.945 109C354.257 108.188 353.726 107.234 353.351 106.141C353.007 105.047 352.835 103.891 352.835 102.672V83.1719C352.835 82.4219 352.82 81.7188 352.788 81.0625C352.757 80.4062 352.663 79.8281 352.507 79.3281C352.382 78.8281 352.179 78.4375 351.898 78.1562C351.648 77.8438 351.288 77.6875 350.82 77.6875C350.132 77.6875 349.288 78.1562 348.288 79.0938C347.288 80.0312 346.304 81.25 345.335 82.75C344.367 84.25 343.507 85.9531 342.757 87.8594C342.038 89.7344 341.585 91.625 341.398 93.5312V107.547C341.398 108.016 341.382 108.5 341.351 109C341.351 109.469 341.257 109.891 341.07 110.266C340.913 110.672 340.648 111 340.273 111.25C339.929 111.531 339.413 111.672 338.726 111.672C338.257 111.672 337.742 111.609 337.179 111.484C336.648 111.391 336.148 111.188 335.679 110.875C335.242 110.594 334.867 110.172 334.554 109.609C334.273 109.078 334.132 108.359 334.132 107.453V77.0312ZM193.409 213.609C193.409 215.734 193.268 217.547 192.987 219.047C192.737 220.547 192.378 221.766 191.909 222.703C191.44 223.641 190.862 224.328 190.174 224.766C189.518 225.203 188.799 225.422 188.018 225.422C187.424 225.422 186.768 225.219 186.049 224.812C185.331 224.406 184.643 223.906 183.987 223.312C183.362 222.719 182.831 222.109 182.393 221.484C181.987 220.859 181.784 220.312 181.784 219.844C181.784 219.531 181.815 219.328 181.878 219.234C181.971 219.172 182.081 219.141 182.206 219.141C182.362 219.172 182.534 219.219 182.721 219.281C182.94 219.344 183.174 219.375 183.424 219.375C184.299 219.375 184.924 218.828 185.299 217.734C185.706 216.609 185.909 214.828 185.909 212.391V197.297H180.94C180.44 197.297 179.971 197.141 179.534 196.828C179.128 196.516 178.768 196.125 178.456 195.656C178.143 195.188 177.893 194.672 177.706 194.109C177.549 193.547 177.471 193.016 177.471 192.516C177.471 191.984 177.581 191.531 177.799 191.156C178.049 190.781 178.424 190.594 178.924 190.594H185.909V159.375C182.534 159.594 179.456 160.094 176.674 160.875C173.893 161.656 171.503 162.844 169.503 164.438C167.503 166.031 165.94 168.109 164.815 170.672C163.721 173.203 163.174 176.359 163.174 180.141C163.174 181.797 163.331 183.297 163.643 184.641C163.987 185.953 164.424 187.141 164.956 188.203C165.487 189.266 166.065 190.203 166.69 191.016C167.346 191.828 167.987 192.547 168.612 193.172C169.143 193.016 169.518 193.078 169.737 193.359C169.956 193.641 170.065 194.031 170.065 194.531C170.065 195.156 169.924 195.812 169.643 196.5C169.393 197.156 169.049 197.766 168.612 198.328C168.174 198.859 167.674 199.312 167.112 199.688C166.581 200.031 166.034 200.203 165.471 200.203C165.221 200.203 164.971 200.172 164.721 200.109C164.503 200.047 164.268 199.906 164.018 199.688C163.331 199.188 162.503 198.375 161.534 197.25C160.565 196.094 159.643 194.672 158.768 192.984C157.893 191.297 157.143 189.375 156.518 187.219C155.893 185.031 155.581 182.672 155.581 180.141C155.581 170.922 158.518 163.891 164.393 159.047C170.299 154.203 179.003 151.781 190.503 151.781C191.378 151.781 192.471 151.797 193.784 151.828C195.128 151.828 196.549 151.828 198.049 151.828C199.549 151.828 201.065 151.844 202.596 151.875C204.159 151.906 205.596 151.922 206.909 151.922C208.253 151.922 209.393 151.938 210.331 151.969C211.299 151.969 211.956 151.969 212.299 151.969C212.768 151.969 213.159 151.938 213.471 151.875C213.784 151.781 214.034 151.688 214.221 151.594C214.44 151.5 214.596 151.422 214.69 151.359C214.815 151.266 214.924 151.219 215.018 151.219C215.174 151.219 215.331 151.328 215.487 151.547C215.643 151.734 215.784 151.984 215.909 152.297C216.034 152.578 216.128 152.906 216.19 153.281C216.284 153.656 216.331 154.031 216.331 154.406C216.331 154.969 216.237 155.562 216.049 156.188C215.893 156.781 215.628 157.328 215.253 157.828C214.878 158.297 214.409 158.688 213.846 159C213.315 159.312 212.674 159.469 211.924 159.469C211.643 159.469 211.128 159.469 210.378 159.469C209.628 159.438 208.721 159.422 207.659 159.422C206.628 159.391 205.487 159.375 204.237 159.375C202.987 159.344 201.721 159.328 200.44 159.328C199.19 159.297 197.956 159.281 196.737 159.281C195.518 159.25 194.409 159.219 193.409 159.188V190.594H205.409C205.909 190.219 206.284 190.125 206.534 190.312C206.784 190.5 206.924 190.844 206.956 191.344C207.018 191.844 206.987 192.438 206.862 193.125C206.768 193.812 206.596 194.469 206.346 195.094C206.128 195.688 205.862 196.203 205.549 196.641C205.237 197.078 204.893 197.297 204.518 197.297H193.409V213.609ZM217.197 172.828C216.415 172.828 215.665 172.672 214.947 172.359C214.259 172.047 213.65 171.625 213.118 171.094C212.618 170.562 212.212 169.953 211.9 169.266C211.587 168.547 211.431 167.781 211.431 166.969C211.431 166.125 211.587 165.344 211.9 164.625C212.212 163.906 212.618 163.297 213.118 162.797C213.65 162.266 214.259 161.859 214.947 161.578C215.665 161.266 216.415 161.109 217.197 161.109C218.04 161.109 218.822 161.266 219.54 161.578C220.259 161.859 220.868 162.266 221.368 162.797C221.9 163.297 222.306 163.906 222.587 164.625C222.9 165.344 223.056 166.125 223.056 166.969C223.056 167.781 222.9 168.547 222.587 169.266C222.306 169.953 221.9 170.562 221.368 171.094C220.868 171.625 220.259 172.047 219.54 172.359C218.822 172.672 218.04 172.828 217.197 172.828ZM219.4 210.938C219.4 211.156 219.415 211.516 219.447 212.016C219.478 212.484 219.572 212.969 219.728 213.469C219.884 213.969 220.134 214.406 220.478 214.781C220.822 215.156 221.306 215.344 221.931 215.344C222.868 215.344 223.681 215 224.368 214.312C225.087 213.625 225.697 212.766 226.197 211.734C226.728 210.703 227.165 209.594 227.509 208.406C227.853 207.188 228.134 206.047 228.353 204.984C228.54 204.016 228.822 203.312 229.197 202.875C229.603 202.438 230.025 202.203 230.462 202.172C230.931 202.109 231.384 202.219 231.822 202.5C232.29 202.781 232.697 203.156 233.04 203.625C233.415 204.062 233.681 204.562 233.837 205.125C234.025 205.688 234.056 206.219 233.931 206.719C233.493 208.312 232.915 209.984 232.197 211.734C231.509 213.484 230.618 215.094 229.525 216.562C228.431 218.031 227.118 219.25 225.587 220.219C224.056 221.188 222.259 221.672 220.197 221.672C218.915 221.672 217.775 221.422 216.775 220.922C215.775 220.453 214.931 219.812 214.243 219C213.556 218.188 213.025 217.234 212.65 216.141C212.306 215.047 212.134 213.891 212.134 212.672V187.031C212.134 186.125 212.056 185.469 211.9 185.062C211.775 184.656 211.712 184.281 211.712 183.938C211.712 183.469 211.962 183.094 212.462 182.812C212.962 182.5 213.556 182.344 214.243 182.344C215.837 182.344 217.087 182.766 217.993 183.609C218.931 184.422 219.4 185.406 219.4 186.562V210.938ZM234.938 190.594C235.281 189.938 235.609 189.062 235.922 187.969C236.266 186.844 236.578 185.609 236.859 184.266C237.172 182.922 237.453 181.516 237.703 180.047C237.953 178.578 238.172 177.141 238.359 175.734C238.547 174.328 238.688 173.016 238.781 171.797C238.906 170.547 238.969 169.484 238.969 168.609C238.969 165.422 238.734 163.094 238.266 161.625C237.797 160.125 237.172 159.375 236.391 159.375C236.141 159.375 235.922 159.5 235.734 159.75C235.547 160 235.391 160.328 235.266 160.734C235.141 161.109 235.047 161.531 234.984 162C234.953 162.438 234.938 162.844 234.938 163.219V190.594ZM248.578 205.078C248.766 204.141 249.047 203.469 249.422 203.062C249.828 202.625 250.25 202.391 250.688 202.359C251.156 202.297 251.625 202.406 252.094 202.688C252.562 202.938 252.969 203.281 253.312 203.719C253.656 204.156 253.906 204.656 254.062 205.219C254.25 205.75 254.281 206.281 254.156 206.812C253.719 208.094 253.094 209.594 252.281 211.312C251.469 213.031 250.438 214.656 249.188 216.188C247.938 217.719 246.469 219.016 244.781 220.078C243.094 221.141 241.156 221.672 238.969 221.672C237.125 221.672 235.5 221.359 234.094 220.734C232.688 220.141 231.5 219.297 230.531 218.203C229.594 217.078 228.875 215.75 228.375 214.219C227.906 212.656 227.672 210.922 227.672 209.016V165.328C227.672 163.547 227.891 161.906 228.328 160.406C228.797 158.875 229.422 157.578 230.203 156.516C231.016 155.422 231.953 154.578 233.016 153.984C234.078 153.359 235.203 153.047 236.391 153.047C237.797 153.047 238.984 153.312 239.953 153.844C240.922 154.344 241.719 155.016 242.344 155.859C242.969 156.703 243.453 157.672 243.797 158.766C244.172 159.859 244.438 160.984 244.594 162.141C244.75 163.266 244.844 164.391 244.875 165.516C244.906 166.609 244.922 167.609 244.922 168.516C244.922 170.859 244.703 173.328 244.266 175.922C243.828 178.484 243.266 181.016 242.578 183.516C241.922 186.016 241.188 188.422 240.375 190.734C239.594 193.016 238.828 195.047 238.078 196.828C237.359 198.609 236.703 200.062 236.109 201.188C235.547 202.312 235.156 202.969 234.938 203.156V208.734C234.938 210.672 235.344 212.266 236.156 213.516C236.969 214.734 238.266 215.344 240.047 215.344C241.141 215.344 242.156 215.016 243.094 214.359C244.062 213.672 244.906 212.828 245.625 211.828C246.375 210.797 247 209.688 247.5 208.5C248 207.281 248.359 206.141 248.578 205.078ZM305.085 206.719C304.647 208.312 304.069 209.984 303.35 211.734C302.663 213.484 301.772 215.094 300.678 216.562C299.585 218.031 298.272 219.25 296.741 220.219C295.21 221.188 293.413 221.672 291.35 221.672C290.069 221.672 288.928 221.422 287.928 220.922C286.96 220.453 286.116 219.812 285.397 219C284.71 218.188 284.178 217.234 283.803 216.141C283.46 215.047 283.288 213.891 283.288 212.672V193.172C283.288 192.422 283.272 191.719 283.241 191.062C283.21 190.406 283.132 189.828 283.007 189.328C282.882 188.828 282.694 188.438 282.444 188.156C282.225 187.844 281.913 187.688 281.507 187.688C280.85 187.688 280.053 188.156 279.116 189.094C278.178 190.031 277.272 191.25 276.397 192.75C275.522 194.25 274.741 195.953 274.053 197.859C273.366 199.734 272.96 201.625 272.835 203.531V217.547C272.835 218.016 272.819 218.5 272.788 219C272.788 219.469 272.694 219.891 272.507 220.266C272.35 220.672 272.085 221 271.71 221.25C271.366 221.531 270.85 221.672 270.163 221.672C269.694 221.672 269.178 221.609 268.616 221.484C268.085 221.391 267.585 221.188 267.116 220.875C266.678 220.594 266.303 220.172 265.991 219.609C265.71 219.078 265.569 218.359 265.569 217.453V193.172C265.569 192.422 265.538 191.719 265.475 191.062C265.444 190.406 265.366 189.828 265.241 189.328C265.116 188.828 264.928 188.438 264.678 188.156C264.46 187.844 264.147 187.688 263.741 187.688C263.085 187.688 262.288 188.156 261.35 189.094C260.444 190.031 259.538 191.25 258.632 192.75C257.757 194.25 256.975 195.953 256.288 197.859C255.632 199.734 255.225 201.625 255.069 203.531V217.547C255.069 218.016 255.053 218.5 255.022 219C255.022 219.469 254.928 219.891 254.741 220.266C254.585 220.672 254.319 221 253.944 221.25C253.6 221.531 253.085 221.672 252.397 221.672C251.928 221.672 251.413 221.609 250.85 221.484C250.319 221.391 249.819 221.188 249.35 220.875C248.913 220.594 248.538 220.172 248.225 219.609C247.944 219.078 247.803 218.359 247.803 217.453V187.031C247.803 186.125 247.725 185.469 247.569 185.062C247.444 184.656 247.382 184.281 247.382 183.938C247.382 183.469 247.632 183.094 248.132 182.812C248.632 182.5 249.225 182.344 249.913 182.344C251.507 182.344 252.757 182.766 253.663 183.609C254.6 184.422 255.069 185.406 255.069 186.562V190.594C255.694 189.281 256.366 188.062 257.085 186.938C257.835 185.812 258.632 184.844 259.475 184.031C260.319 183.188 261.21 182.531 262.147 182.062C263.116 181.594 264.147 181.359 265.241 181.359C266.678 181.359 267.866 181.625 268.803 182.156C269.772 182.688 270.538 183.391 271.1 184.266C271.694 185.141 272.116 186.125 272.366 187.219C272.616 188.281 272.772 189.344 272.835 190.406C273.428 189.125 274.085 187.938 274.803 186.844C275.522 185.75 276.303 184.797 277.147 183.984C277.991 183.172 278.882 182.531 279.819 182.062C280.788 181.594 281.819 181.359 282.913 181.359C284.475 181.359 285.757 181.656 286.757 182.25C287.757 182.844 288.538 183.609 289.1 184.547C289.663 185.484 290.053 186.531 290.272 187.688C290.491 188.844 290.6 189.969 290.6 191.062V210.938C290.6 211.156 290.616 211.516 290.647 212.016C290.678 212.484 290.772 212.969 290.928 213.469C291.085 213.969 291.319 214.406 291.632 214.781C291.975 215.156 292.46 215.344 293.085 215.344C294.053 215.344 294.882 215 295.569 214.312C296.288 213.625 296.897 212.766 297.397 211.734C297.928 210.703 298.366 209.594 298.71 208.406C299.053 207.188 299.335 206.047 299.553 204.984C299.741 203.984 300.038 203.266 300.444 202.828C300.882 202.359 301.35 202.125 301.85 202.125C302.225 202.125 302.6 202.25 302.975 202.5C303.382 202.719 303.741 203.016 304.053 203.391C304.397 203.766 304.663 204.188 304.85 204.656C305.069 205.125 305.178 205.594 305.178 206.062C305.178 206.125 305.178 206.203 305.178 206.297C305.178 206.391 305.147 206.531 305.085 206.719ZM304.31 205.828C304.06 206.828 303.591 207.453 302.904 207.703C302.216 207.922 301.529 207.891 300.841 207.609C300.185 207.328 299.622 206.844 299.154 206.156C298.716 205.469 298.591 204.719 298.779 203.906C299.247 201.781 299.919 199.438 300.794 196.875C301.701 194.281 302.591 191.703 303.466 189.141C302.997 188.422 302.622 187.703 302.341 186.984C302.06 186.234 301.919 185.453 301.919 184.641C301.919 183.828 302.216 182.984 302.81 182.109C303.435 181.203 304.169 180.375 305.013 179.625C305.888 178.875 306.779 178.266 307.685 177.797C308.622 177.297 309.419 177.047 310.076 177.047C311.232 177.047 312.091 177.438 312.654 178.219C313.247 179 313.544 180.047 313.544 181.359C313.544 182.078 313.419 182.797 313.169 183.516C312.951 184.203 312.701 184.859 312.419 185.484C312.138 186.078 311.872 186.594 311.622 187.031C311.404 187.469 311.279 187.75 311.247 187.875C312.372 189.875 313.544 191.641 314.763 193.172C315.982 194.703 317.091 196.219 318.091 197.719C319.122 199.219 319.966 200.812 320.622 202.5C321.279 204.188 321.607 206.172 321.607 208.453C321.607 209.016 321.56 209.594 321.466 210.188C321.404 210.781 321.294 211.344 321.138 211.875C322.263 211.656 323.247 211.312 324.091 210.844C324.966 210.375 325.716 209.844 326.341 209.25C326.997 208.625 327.529 207.953 327.935 207.234C328.372 206.516 328.732 205.766 329.013 204.984C329.357 204.078 329.701 203.422 330.044 203.016C330.388 202.609 330.779 202.406 331.216 202.406C331.622 202.406 332.029 202.547 332.435 202.828C332.872 203.078 333.247 203.406 333.56 203.812C333.904 204.219 334.169 204.641 334.357 205.078C334.576 205.516 334.685 205.906 334.685 206.25C334.685 206.719 334.56 207.281 334.31 207.938C334.06 208.594 333.716 209.266 333.279 209.953C332.872 210.641 332.404 211.312 331.872 211.969C331.341 212.594 330.794 213.141 330.232 213.609C328.732 214.828 326.966 215.859 324.935 216.703C322.904 217.516 320.388 218.031 317.388 218.25C316.232 219.25 314.857 220.062 313.263 220.688C311.701 221.344 309.935 221.672 307.966 221.672C306.966 221.672 305.935 221.547 304.872 221.297C303.841 221.047 302.841 220.719 301.872 220.312C300.935 219.938 300.076 219.516 299.294 219.047C298.513 218.578 297.888 218.109 297.419 217.641C296.232 216.516 295.466 215.391 295.122 214.266C294.779 213.109 294.701 212.078 294.888 211.172C295.044 210.266 295.372 209.531 295.872 208.969C296.372 208.375 296.888 208.078 297.419 208.078C297.732 208.078 298.216 208.219 298.872 208.5C299.56 208.75 300.341 209.094 301.216 209.531C302.091 209.938 303.044 210.375 304.076 210.844C305.107 211.312 306.138 211.766 307.169 212.203C308.201 212.609 309.201 212.953 310.169 213.234C311.169 213.484 312.076 213.609 312.888 213.609C313.419 212.984 313.904 212.156 314.341 211.125C314.779 210.094 314.997 208.969 314.997 207.75C314.997 206.25 314.794 204.859 314.388 203.578C313.982 202.297 313.451 201.109 312.794 200.016C312.138 198.922 311.388 197.906 310.544 196.969C309.732 196 308.904 195.094 308.06 194.25C307.31 196.094 306.654 197.922 306.091 199.734C305.529 201.516 304.935 203.547 304.31 205.828Z" fill="#28FAEF"/>
</g>
<g filter="url(#filter2_d_361_962)">
<line x1="91" y1="0.0182481" x2="90" y2="274.018" stroke="#28FAEF" stroke-width="10"/>
</g>
<g filter="url(#filter3_d_361_962)">
<path d="M360 278.058L84.9999 278.058" stroke="#28FAEF" stroke-width="10"/>
</g>
<g filter="url(#filter4_d_361_962)">
<path d="M423.882 275.951L339.957 308.252L340.161 243.125L423.882 275.951Z" fill="#28FAEF"/>
</g>
<path d="M333.5 274L334.735 277.109H338.731L335.498 279.031L336.733 282.141L333.5 280.219L330.267 282.141L331.502 279.031L328.269 277.109H332.265L333.5 274Z" fill="#FA3590"/>
<path d="M302.5 274L303.735 277.109H307.731L304.498 279.031L305.733 282.141L302.5 280.219L299.267 282.141L300.502 279.031L297.269 277.109H301.265L302.5 274Z" fill="#FA3590"/>
<path d="M272.5 274L273.735 277.109H277.731L274.498 279.031L275.733 282.141L272.5 280.219L269.267 282.141L270.502 279.031L267.269 277.109H271.265L272.5 274Z" fill="#FA3590"/>
<path d="M242.5 274L243.735 277.109H247.731L244.498 279.031L245.733 282.141L242.5 280.219L239.267 282.141L240.502 279.031L237.269 277.109H241.265L242.5 274Z" fill="#FA3590"/>
<path d="M215.5 274L216.735 277.109H220.731L217.498 279.031L218.733 282.141L215.5 280.219L212.267 282.141L213.502 279.031L210.269 277.109H214.265L215.5 274Z" fill="#FA3590"/>
<path d="M184.5 274L185.735 277.109H189.731L186.498 279.031L187.733 282.141L184.5 280.219L181.267 282.141L182.502 279.031L179.269 277.109H183.265L184.5 274Z" fill="#FA3590"/>
<path d="M154.5 274L155.735 277.109H159.731L156.498 279.031L157.733 282.141L154.5 280.219L151.267 282.141L152.502 279.031L149.269 277.109H153.265L154.5 274Z" fill="#FA3590"/>
<path d="M124.5 274L125.735 277.109H129.731L126.498 279.031L127.733 282.141L124.5 280.219L121.267 282.141L122.502 279.031L119.269 277.109H123.265L124.5 274Z" fill="#FA3590"/>
<path d="M95.5 274L96.7348 277.109H100.731L97.498 279.031L98.7328 282.141L95.5 280.219L92.2672 282.141L93.502 279.031L90.2692 277.109H94.2652L95.5 274Z" fill="#FA3590"/>
<path d="M91.0856 7.02619L92.1949 10.8144L95.8483 10.8334L92.8805 13.1556L93.9897 16.9438L91.0462 14.5908L88.0784 16.913L89.2271 13.1366L86.2835 10.7836L89.937 10.8026L91.0856 7.02619Z" fill="#FA3590"/>
<path d="M90.8253 30.0248L91.8761 33.8135L95.3403 33.8315L92.5255 36.155L93.5763 39.9437L90.7859 37.591L87.971 39.9145L89.0613 36.137L86.2708 33.7843L89.7351 33.8023L90.8253 30.0248Z" fill="#FA3590"/>
<path d="M90.0882 61.0262L91.1981 64.8152L94.8534 64.8342L91.884 67.1569L92.9939 70.9458L90.0488 68.5924L87.0794 70.915L88.2287 67.1378L85.2837 64.7844L88.939 64.8034L90.0882 61.0262Z" fill="#FA3590"/>
<path d="M90.0871 89.0262L91.1966 92.8152L94.8511 92.8342L91.8824 95.1569L92.992 98.9458L90.0477 96.5924L87.079 98.915L88.228 95.1378L85.2836 92.7844L88.9381 92.8034L90.0871 89.0262Z" fill="#FA3590"/>
<path d="M91.0871 117.026L92.1966 120.815L95.8511 120.834L92.8824 123.157L93.992 126.946L91.0477 124.592L88.079 126.915L89.228 123.138L86.2836 120.784L89.9381 120.803L91.0871 117.026Z" fill="#FA3590"/>
<path d="M91.0871 148.026L92.1966 151.815L95.8511 151.834L92.8824 154.157L93.992 157.946L91.0477 155.592L88.079 157.915L89.228 154.138L86.2836 151.784L89.9381 151.803L91.0871 148.026Z" fill="#FA3590"/>
<path d="M90.0871 175.026L91.1966 178.815L94.8511 178.834L91.8824 181.157L92.992 184.946L90.0477 182.592L87.079 184.915L88.228 181.138L85.2836 178.784L88.9381 178.803L90.0871 175.026Z" fill="#FA3590"/>
<path d="M91.0871 205.026L92.1966 208.815L95.8511 208.834L92.8824 211.157L93.992 214.946L91.0477 212.592L88.079 214.915L89.228 211.138L86.2836 208.784L89.9381 208.803L91.0871 205.026Z" fill="#FA3590"/>
<path d="M90.0871 230.026L91.1966 233.815L94.8511 233.834L91.8824 236.157L92.992 239.946L90.0477 237.592L87.079 239.915L88.228 236.138L85.2836 233.784L88.9381 233.803L90.0871 230.026Z" fill="#FA3590"/>
<path d="M90.0871 257.026L91.1966 260.815L94.8511 260.834L91.8824 263.157L92.992 266.946L90.0477 264.592L87.079 266.915L88.228 263.138L85.2836 260.784L88.9381 260.803L90.0871 257.026Z" fill="#FA3590"/>
<defs>
<filter id="filter0_i_361_962" x="94" y="0" width="310" height="282" filterUnits="userSpaceOnUse" color-interpolation-filters="sRGB">
<feFlood flood-opacity="0" result="BackgroundImageFix"/>
<feBlend mode="normal" in="SourceGraphic" in2="BackgroundImageFix" result="shape"/>
<feColorMatrix in="SourceAlpha" type="matrix" values="0 0 0 0 0 0 0 0 0 0 0 0 0 0 0 0 0 0 127 0" result="hardAlpha"/>
<feOffset dy="4"/>
<feGaussianBlur stdDeviation="2"/>
<feComposite in2="hardAlpha" operator="arithmetic" k2="-1" k3="1"/>
<feColorMatrix type="matrix" values="0 0 0 0 0.980392 0 0 0 0 0.207843 0 0 0 0 0.564706 0 0 0 1 0"/>
<feBlend mode="normal" in2="shape" result="effect1_innerShadow_361_962"/>
</filter>
<filter id="filter1_d_361_962" x="112.29" y="40.2812" width="266.436" height="193.141" filterUnits="userSpaceOnUse" color-interpolation-filters="sRGB">
<feFlood flood-opacity="0" result="BackgroundImageFix"/>
<feColorMatrix in="SourceAlpha" type="matrix" values="0 0 0 0 0 0 0 0 0 0 0 0 0 0 0 0 0 0 127 0" result="hardAlpha"/>
<feOffset dy="4"/>
<feGaussianBlur stdDeviation="2"/>
<feComposite in2="hardAlpha" operator="out"/>
<feColorMatrix type="matrix" values="0 0 0 0 0.980392 0 0 0 0 0.207843 0 0 0 0 0.564706 0 0 0 1 0"/>
<feBlend mode="normal" in2="BackgroundImageFix" result="effect1_dropShadow_361_962"/>
<feBlend mode="normal" in="SourceGraphic" in2="effect1_dropShadow_361_962" result="shape"/>
</filter>
<filter id="filter2_d_361_962" x="81" y="0" width="19" height="282.037" filterUnits="userSpaceOnUse" color-interpolation-filters="sRGB">
<feFlood flood-opacity="0" result="BackgroundImageFix"/>
<feColorMatrix in="SourceAlpha" type="matrix" values="0 0 0 0 0 0 0 0 0 0 0 0 0 0 0 0 0 0 127 0" result="hardAlpha"/>
<feOffset dy="4"/>
<feGaussianBlur stdDeviation="2"/>
<feComposite in2="hardAlpha" operator="out"/>
<feColorMatrix type="matrix" values="0 0 0 0 0.980392 0 0 0 0 0.207843 0 0 0 0 0.564706 0 0 0 1 0"/>
<feBlend mode="normal" in2="BackgroundImageFix" result="effect1_dropShadow_361_962"/>
<feBlend mode="normal" in="SourceGraphic" in2="effect1_dropShadow_361_962" result="shape"/>
</filter>
<filter id="filter3_d_361_962" x="81" y="273.058" width="283" height="18" filterUnits="userSpaceOnUse" color-interpolation-filters="sRGB">
<feFlood flood-opacity="0" result="BackgroundImageFix"/>
<feColorMatrix in="SourceAlpha" type="matrix" values="0 0 0 0 0 0 0 0 0 0 0 0 0 0 0 0 0 0 127 0" result="hardAlpha"/>
<feOffset dy="4"/>
<feGaussianBlur stdDeviation="2"/>
<feComposite in2="hardAlpha" operator="out"/>
<feColorMatrix type="matrix" values="0 0 0 0 0.980392 0 0 0 0 0.207843 0 0 0 0 0.564706 0 0 0 0.8 0"/>
<feBlend mode="normal" in2="BackgroundImageFix" result="effect1_dropShadow_361_962"/>
<feBlend mode="normal" in="SourceGraphic" in2="effect1_dropShadow_361_962" result="shape"/>
</filter>
<filter id="filter4_d_361_962" x="335.957" y="243.125" width="91.9253" height="73.127" filterUnits="userSpaceOnUse" color-interpolation-filters="sRGB">
<feFlood flood-opacity="0" result="BackgroundImageFix"/>
<feColorMatrix in="SourceAlpha" type="matrix" values="0 0 0 0 0 0 0 0 0 0 0 0 0 0 0 0 0 0 127 0" result="hardAlpha"/>
<feOffset dy="4"/>
<feGaussianBlur stdDeviation="2"/>
<feComposite in2="hardAlpha" operator="out"/>
<feColorMatrix type="matrix" values="0 0 0 0 0.980392 0 0 0 0 0.207843 0 0 0 0 0.564706 0 0 0 0.8 0"/>
<feBlend mode="normal" in2="BackgroundImageFix" result="effect1_dropShadow_361_962"/>
<feBlend mode="normal" in="SourceGraphic" in2="effect1_dropShadow_361_962" result="shape"/>
</filter>
</defs>
</svg>
