<svg width="52" height="52" viewBox="0 0 52 52" fill="none" xmlns="http://www.w3.org/2000/svg">
<g filter="url(#filter0_d_48_207)">
<path d="M37.748 7.612C37.2259 7.612 36.7154 7.76683 36.2813 8.05692C35.8471 8.34701 35.5088 8.75932 35.309 9.24172C35.1091 9.72411 35.0569 10.2549 35.1587 10.767C35.2606 11.2791 35.512 11.7496 35.8812 12.1188C36.2505 12.488 36.7209 12.7394 37.233 12.8413C37.7451 12.9431 38.2759 12.8909 38.7583 12.691C39.2407 12.4912 39.653 12.1529 39.9431 11.7187C40.2332 11.2846 40.388 10.7741 40.388 10.252C40.388 9.55183 40.1099 8.88033 39.6148 8.38524C39.1197 7.89014 38.4482 7.612 37.748 7.612ZM47.868 12.936C47.8252 11.1107 47.4833 9.30469 46.856 7.59C46.2966 6.12289 45.426 4.79441 44.304 3.696C43.2146 2.56834 41.883 1.70319 40.41 1.166C38.6998 0.519554 36.8919 0.169862 35.064 0.132C32.732 -1.22935e-07 31.984 0 26 0C20.016 0 19.268 -1.22935e-07 16.936 0.132C15.1081 0.169862 13.3002 0.519554 11.59 1.166C10.1197 1.70863 8.78925 2.57303 7.696 3.696C6.56834 4.78539 5.70319 6.11697 5.166 7.59C4.51955 9.30015 4.16986 11.1081 4.132 12.936C4 15.268 4 16.016 4 22C4 27.984 4 28.732 4.132 31.064C4.16986 32.8919 4.51955 34.6998 5.166 36.41C5.70319 37.883 6.56834 39.2146 7.696 40.304C8.78925 41.427 10.1197 42.2914 11.59 42.834C13.3002 43.4804 15.1081 43.8301 16.936 43.868C19.268 44 20.016 44 26 44C31.984 44 32.732 44 35.064 43.868C36.8919 43.8301 38.6998 43.4804 40.41 42.834C41.883 42.2968 43.2146 41.4317 44.304 40.304C45.4309 39.2097 46.3023 37.88 46.856 36.41C47.4833 34.6953 47.8252 32.8893 47.868 31.064C47.868 28.732 48 27.984 48 22C48 16.016 48 15.268 47.868 12.936ZM43.908 30.8C43.892 32.1965 43.6391 33.5801 43.16 34.892C42.8087 35.8494 42.2445 36.7145 41.51 37.422C40.7964 38.1491 39.9331 38.7122 38.98 39.072C37.6681 39.5511 36.2845 39.804 34.888 39.82C32.688 39.93 31.874 39.952 26.088 39.952C20.302 39.952 19.488 39.952 17.288 39.82C15.838 39.8472 14.3941 39.6239 13.02 39.16C12.1087 38.7818 11.285 38.2201 10.6 37.51C9.86979 36.8032 9.31266 35.9374 8.972 34.98C8.43488 33.6493 8.13698 32.2343 8.092 30.8C8.092 28.6 7.96 27.786 7.96 22C7.96 16.214 7.96 15.4 8.092 13.2C8.10186 11.7723 8.36249 10.3575 8.862 9.02C9.2493 8.0914 9.84378 7.26365 10.6 6.6C11.2684 5.84357 12.0944 5.24281 13.02 4.84C14.361 4.3561 15.7744 4.10318 17.2 4.092C19.4 4.092 20.214 3.96 26 3.96C31.786 3.96 32.6 3.96 34.8 4.092C36.1965 4.10802 37.5801 4.36094 38.892 4.84C39.8917 5.21104 40.789 5.81426 41.51 6.6C42.2309 7.27579 42.7943 8.10201 43.16 9.02C43.649 10.3597 43.902 11.7739 43.908 13.2C44.018 15.4 44.04 16.214 44.04 22C44.04 27.786 44.018 28.6 43.908 30.8ZM26 10.714C23.7688 10.7183 21.5889 11.384 19.7358 12.6267C17.8828 13.8695 16.4396 15.6336 15.5888 17.6963C14.738 19.7589 14.5176 22.0274 14.9555 24.2152C15.3935 26.4031 16.4701 28.412 18.0494 29.9882C19.6286 31.5643 21.6396 32.637 23.8283 33.0707C26.017 33.5044 28.2851 33.2796 30.346 32.4248C32.407 31.5699 34.1683 30.1234 35.4075 28.2679C36.6466 26.4124 37.308 24.2312 37.308 22C37.3109 20.5152 37.0202 19.0445 36.4527 17.6725C35.8852 16.3005 35.052 15.0542 34.0011 14.0053C32.9502 12.9564 31.7023 12.1257 30.3292 11.5608C28.956 10.996 27.4848 10.7082 26 10.714ZM26 29.326C24.5511 29.326 23.1346 28.8963 21.9299 28.0913C20.7251 27.2864 19.7861 26.1422 19.2317 24.8035C18.6772 23.4649 18.5321 21.9919 18.8148 20.5708C19.0974 19.1497 19.7952 17.8443 20.8197 16.8197C21.8443 15.7952 23.1497 15.0974 24.5708 14.8148C25.9919 14.5321 27.4649 14.6772 28.8035 15.2317C30.1422 15.7861 31.2864 16.7251 32.0913 17.9299C32.8963 19.1346 33.326 20.5511 33.326 22C33.326 22.9621 33.1365 23.9147 32.7683 24.8035C32.4002 25.6924 31.8605 26.5 31.1803 27.1803C30.5 27.8605 29.6924 28.4002 28.8035 28.7683C27.9147 29.1365 26.9621 29.326 26 29.326Z" fill="#28FAEF"/>
</g>
<defs>
<filter id="filter0_d_48_207" x="0" y="0" width="52" height="52" filterUnits="userSpaceOnUse" color-interpolation-filters="sRGB">
<feFlood flood-opacity="0" result="BackgroundImageFix"/>
<feColorMatrix in="SourceAlpha" type="matrix" values="0 0 0 0 0 0 0 0 0 0 0 0 0 0 0 0 0 0 127 0" result="hardAlpha"/>
<feOffset dy="4"/>
<feGaussianBlur stdDeviation="2"/>
<feComposite in2="hardAlpha" operator="out"/>
<feColorMatrix type="matrix" values="0 0 0 0 0.156863 0 0 0 0 0.980392 0 0 0 0 0.937255 0 0 0 0.5 0"/>
<feBlend mode="normal" in2="BackgroundImageFix" result="effect1_dropShadow_48_207"/>
<feBlend mode="normal" in="SourceGraphic" in2="effect1_dropShadow_48_207" result="shape"/>
</filter>
</defs>
</svg>
