<svg width="159" height="59" viewBox="0 0 159 59" fill="none" xmlns="http://www.w3.org/2000/svg">
<g filter="url(#filter0_dd_414_463)">
<path d="M23.3482 50.1999L15.4535 27.7504C20.9392 28.4093 27.8298 27.087 32.6799 24.4444L33.6841 48.2164C33.6841 48.2164 28.834 50.8589 23.3482 50.1999Z" stroke="#28FAEF" stroke-width="3" stroke-linecap="round" stroke-linejoin="round"/>
</g>
<g filter="url(#filter1_dd_414_463)">
<path d="M15.1788 26.7099C16.2036 27.2005 19.823 26.9634 23.5297 26.309C27.2365 25.6546 31.0308 24.5828 32.4053 23.4039C33.2271 22.6991 29.5544 22.9969 25.3914 23.6845C25.1618 23.7225 25.5496 25.1324 25.3177 25.1726C24.8583 25.2522 23.3667 25.5481 22.906 25.6354C22.4426 25.7233 22.3913 24.2317 21.9373 24.3258C18.2502 25.0893 15.0478 26.0293 15.1788 26.7099Z" stroke="#28FAEF" stroke-width="3" stroke-linecap="round" stroke-linejoin="round"/>
</g>
<g filter="url(#filter2_dd_414_463)">
<path d="M23.1236 24.9091L24.5017 24.6447L24.4464 13.6847L24.4377 11.9685L24.4344 11.3058L25.1984 11.4529L26.7263 11.7472L33.3387 13.0205L33.9007 12.228L27.1638 10.8937L24.2437 10.3154L23.5546 10.4476L23.2737 10.8439L23.2441 13.6166L23.1236 24.9091Z" stroke="#28FAEF" stroke-width="3" stroke-linecap="round" stroke-linejoin="round"/>
</g>
<g filter="url(#filter3_d_414_463)">
<path d="M82.9535 45.5237C83.1726 45.6212 83.261 45.7972 83.2187 46.0517C83.1763 46.3062 83.0409 46.5723 82.8124 46.8498C82.5881 47.1424 82.2992 47.404 81.9456 47.6347C81.5921 47.8654 81.2116 47.9981 80.8043 48.0329C80.4125 48.0658 80.0016 47.9998 79.5715 47.8349C79.1414 47.6699 78.7191 47.3872 78.3046 46.9867C77.9014 46.5692 77.5157 46.0405 77.1477 45.4005C76.7951 44.7586 76.4927 43.9781 76.2404 43.059L70.3591 21.6328C70.1192 20.7588 69.84 20.0923 69.5216 19.6331C69.2187 19.1721 68.9142 18.8514 68.6082 18.6711C68.3136 18.4739 68.0303 18.3765 67.7584 18.379C67.4979 18.3645 67.2901 18.3668 67.135 18.386C66.9644 18.4071 66.7536 18.4565 66.5023 18.5343C66.2511 18.6121 66.0366 18.7945 65.8588 19.0813C65.6924 19.3512 65.5984 19.7678 65.5767 20.3314C65.5509 20.8798 65.6744 21.6513 65.9474 22.6458L72.8089 47.643C72.8555 47.6373 72.9082 47.6541 72.9671 47.6936C73.0457 47.7462 73.0912 47.7951 73.1036 47.8403C73.1367 47.9608 73.0767 48.0929 72.9237 48.2364C72.7904 48.3931 72.6064 48.5405 72.3717 48.6786C72.1412 48.8318 71.8636 48.9596 71.539 49.062C71.234 49.1776 70.9342 49.2537 70.6396 49.2901C70.3295 49.3285 70.04 49.3253 69.7712 49.2807C69.5179 49.2341 69.3313 48.9923 69.2114 48.5554L62.1017 22.6541C61.8618 21.7801 61.5904 21.1126 61.2875 20.6516C61.0001 20.1886 60.7111 19.866 60.4206 19.6838C60.1259 19.4866 59.8427 19.3892 59.5708 19.3917C59.3103 19.3771 59.087 19.3814 58.9009 19.4044C58.7458 19.4236 58.5427 19.4721 58.2915 19.5499C58.0516 19.6107 57.8387 19.7695 57.6526 20.0262C57.4624 20.2678 57.3404 20.6412 57.2867 21.1464C57.2485 21.6497 57.3493 22.3382 57.5892 23.2122L63.2161 43.7117C63.7786 45.7609 63.8578 47.3636 63.4536 48.5197C63.0495 49.6758 62.1806 50.3363 60.847 50.5013C60.3973 50.5569 60.0045 50.5276 59.6685 50.4134C59.348 50.2972 59.0715 50.1367 58.8388 49.9318C58.6062 49.7268 58.416 49.5011 58.2682 49.2545C58.1358 49.0061 58.0407 48.7763 57.9828 48.5654C57.9538 48.4599 57.9662 48.3883 58.02 48.3505C58.0893 48.3107 58.1859 48.2832 58.31 48.2679C58.434 48.2525 58.5736 48.2353 58.7287 48.2161C58.8796 48.1818 59.0321 48.124 59.1861 48.0427C59.3246 47.9632 59.4466 47.8235 59.552 47.6235C59.673 47.4216 59.7479 47.1397 59.7769 46.7778C59.8058 46.4159 59.7866 45.9665 59.7194 45.4295C59.6522 44.8925 59.5131 44.2398 59.3022 43.4714L53.9916 24.1245C53.6194 22.7684 53.4756 21.6022 53.5604 20.6258C53.6606 19.6475 53.9092 18.83 54.3061 18.1733C54.7031 17.5166 55.2153 17.017 55.8428 16.6746C56.4858 16.3302 57.1639 16.1139 57.8773 16.0257C58.0789 16.0008 58.3564 15.9898 58.71 15.9928C59.0594 15.9807 59.4543 16.0176 59.8947 16.1033C60.3506 16.1871 60.8231 16.3312 61.3121 16.5356C61.7969 16.7249 62.2833 17.0075 62.7713 17.3834C62.9501 16.925 63.1848 16.5533 63.4753 16.2681C63.7616 15.9678 64.0568 15.7288 64.3607 15.551C64.6801 15.3712 64.9908 15.2471 65.2926 15.1786C65.6059 15.0932 65.8788 15.036 66.1114 15.0073C66.8557 14.9152 67.6197 14.9531 68.4033 15.1211C69.2025 15.2871 69.9618 15.6294 70.6813 16.148C71.4164 16.6646 72.0905 17.368 72.7036 18.2581C73.3166 19.1482 73.8093 20.2713 74.1815 21.6274L79.8333 42.2173C79.9657 42.6995 80.1399 43.1297 80.356 43.5081C80.5834 43.8694 80.8315 44.1893 81.1003 44.4676C81.3805 44.729 81.6813 44.9488 82.0029 45.1271C82.3203 45.2904 82.6371 45.4226 82.9535 45.5237ZM92.9423 31.2718C93.1781 32.1307 93.265 33.0313 93.203 33.9737C93.1565 34.9142 92.9425 35.8287 92.5611 36.7172C92.1911 37.5886 91.653 38.403 90.947 39.1602C90.2523 39.9004 89.3767 40.5073 88.3202 40.9807C88.5828 41.3533 88.8878 41.705 89.2351 42.036C89.5939 42.3499 89.9867 42.6129 90.4137 42.825C90.8407 43.037 91.3075 43.1896 91.814 43.2827C92.3361 43.3739 92.9073 43.3812 93.5275 43.3045C94.4579 43.1894 95.2111 42.9249 95.7869 42.5109C96.3585 42.0819 96.7927 41.5608 97.0894 40.9477C97.4015 40.3327 97.6021 39.6613 97.6909 38.9337C97.7798 38.206 97.7968 37.4795 97.742 36.7541C97.7099 36.2283 97.834 35.8625 98.1141 35.6564C98.4056 35.4334 98.7344 35.346 99.1003 35.3942C99.4818 35.4405 99.838 35.599 100.169 35.8697C100.511 36.1234 100.715 36.4565 100.78 36.8691C100.846 37.3438 100.884 37.8922 100.895 38.5141C100.921 39.134 100.871 39.7711 100.746 40.4253C100.621 41.0796 100.408 41.7368 100.109 42.397C99.8202 43.0403 99.4067 43.6367 98.8682 44.1863C98.3296 44.7358 97.6499 45.2094 96.8291 45.6069C96.0083 46.0044 95.0163 46.2751 93.8533 46.419C92.7679 46.5532 91.6555 46.4727 90.5162 46.1774C89.3966 45.8952 88.3359 45.4188 87.3341 44.7482C86.3437 44.0606 85.4531 43.1814 84.6622 42.1108C83.8826 41.0232 83.2943 39.7562 82.8973 38.3097C82.4961 36.8481 82.3332 35.4661 82.4086 34.1637C82.4799 32.8463 82.7305 31.6858 83.1605 30.6822C83.5905 29.6787 84.1694 28.8671 84.8972 28.2474C85.6208 27.6126 86.4401 27.2387 87.355 27.1255C88.0218 27.043 88.6498 27.0822 89.2391 27.243C89.8438 27.4019 90.3902 27.6693 90.8782 28.0451C91.362 28.4059 91.7756 28.8611 92.1188 29.4107C92.4776 29.9583 92.7521 30.5787 92.9423 31.2718ZM86.7678 37.6907C86.805 37.8264 86.85 37.961 86.9027 38.0947C86.9554 38.2284 87.0025 38.3706 87.0438 38.5212C87.5587 38.1771 87.9985 37.7644 88.3634 37.2831C88.7283 36.8017 89.0069 36.2687 89.1992 35.6841C89.3914 35.0995 89.4937 34.4792 89.5061 33.8234C89.5143 33.1524 89.4233 32.4704 89.2331 31.7773C89.0925 31.265 88.8898 30.8772 88.6252 30.614C88.376 30.3488 88.0963 30.2354 87.7862 30.2737C87.3985 30.3217 87.0848 30.4929 86.845 30.7874C86.6206 31.08 86.4501 31.4516 86.3333 31.9023C86.2279 32.336 86.17 32.8261 86.1597 33.3726C86.1607 33.9022 86.1871 34.4364 86.2389 34.9753C86.2906 35.5142 86.3671 36.0266 86.4684 36.5126C86.5656 36.9835 86.6654 37.3762 86.7678 37.6907ZM99.6723 30.2057C99.756 29.8682 99.803 29.4262 99.8133 28.8796C99.835 28.3161 99.8267 27.7018 99.7884 27.0366C99.7656 26.3695 99.7191 25.6742 99.6488 24.9507C99.5784 24.2271 99.4967 23.5206 99.4036 22.831C99.3106 22.1415 99.2066 21.5 99.0918 20.9066C98.9884 20.2963 98.8788 19.7801 98.763 19.3582C98.3412 17.8213 97.9167 16.7132 97.4897 16.0337C97.0586 15.3393 96.6492 15.016 96.2615 15.064C96.1375 15.0793 96.0455 15.153 95.9855 15.285C95.9256 15.4171 95.8915 15.5849 95.8832 15.7884C95.8708 15.9769 95.8801 16.1861 95.9111 16.4159C95.9535 16.6288 95.9996 16.8256 96.0492 17.0065L99.6723 30.2057ZM108.358 36.3524C108.327 35.8889 108.378 35.5477 108.51 35.3288C108.654 35.0929 108.832 34.954 109.045 34.9121C109.269 34.8532 109.516 34.8771 109.786 34.984C110.052 35.0758 110.299 35.2166 110.527 35.4064C110.756 35.5963 110.946 35.822 111.098 36.0836C111.261 36.3283 111.347 36.5825 111.356 36.8463C111.308 37.491 111.196 38.2526 111.021 39.1311C110.845 40.0097 110.548 40.8565 110.131 41.6716C109.713 42.4866 109.156 43.2021 108.459 43.8179C107.762 44.4338 106.871 44.8089 105.786 44.9431C104.871 45.0563 104.023 45.0053 103.243 44.7903C102.466 44.5903 101.765 44.2564 101.14 43.7884C100.526 43.3036 99.9934 42.7073 99.5426 41.9997C99.1032 41.275 98.7574 40.4532 98.5051 39.534L92.723 18.4694C92.4873 17.6106 92.3787 16.8061 92.3973 16.056C92.4272 15.2889 92.5657 14.6253 92.8127 14.065C93.0712 13.4878 93.4247 13.0234 93.8733 12.6719C94.3179 12.3054 94.8348 12.0856 95.424 12.0128C96.1218 11.9264 96.7462 11.9816 97.2973 12.1783C97.8441 12.36 98.3285 12.635 98.7503 13.0035C99.1721 13.3719 99.5407 13.8093 99.856 14.3156C100.187 14.8199 100.468 15.3461 100.698 15.894C100.925 16.4268 101.12 16.9635 101.284 17.504C101.445 18.0295 101.585 18.5107 101.705 18.9477C102.015 20.0777 102.233 21.2815 102.359 22.559C102.481 23.8214 102.537 25.0764 102.527 26.324C102.532 27.5697 102.486 28.7749 102.389 29.9398C102.303 31.0877 102.192 32.1141 102.056 33.019C101.935 33.922 101.802 34.6629 101.656 35.2418C101.526 35.8187 101.419 36.1591 101.335 36.2629L102.073 38.9525C102.33 39.8867 102.742 40.6302 103.311 41.1831C103.875 41.7208 104.599 41.9351 105.483 41.8257C106.026 41.7586 106.487 41.5381 106.865 41.1641C107.255 40.7732 107.562 40.3146 107.786 39.7883C108.022 39.245 108.185 38.6718 108.276 38.0685C108.363 37.4502 108.39 36.8781 108.358 36.3524ZM104.846 10.9409C105.156 10.9025 105.467 10.9264 105.779 11.0124C106.103 11.0814 106.404 11.2155 106.684 11.4147C106.963 11.6138 107.212 11.879 107.431 12.2102C107.646 12.5264 107.818 12.918 107.946 13.3851C108.066 13.8221 108.075 14.3507 107.972 14.9709C107.866 15.5761 107.699 16.1654 107.472 16.7388C107.244 17.3122 106.973 17.8131 106.658 18.2416C106.354 18.6531 106.054 18.877 105.76 18.9135C105.558 18.9384 105.36 18.9162 105.164 18.8469C104.965 18.7625 104.784 18.6602 104.623 18.54C104.473 18.4027 104.337 18.256 104.214 18.0998C104.106 17.9418 104.034 17.7949 103.997 17.6593C103.963 17.5388 103.976 17.4671 104.034 17.4444C104.087 17.4066 104.153 17.3518 104.229 17.28C104.387 17.2137 104.576 16.9957 104.795 16.6258C105.026 16.239 105.251 15.806 105.473 15.3268C104.943 15.2677 104.456 15.0708 104.012 14.7363C103.563 14.3868 103.269 13.9558 103.128 13.4435C103.041 13.1271 103.025 12.8331 103.078 12.5617C103.128 12.2751 103.234 12.0204 103.398 11.7977C103.557 11.5599 103.762 11.371 104.012 11.231C104.258 11.076 104.536 10.9792 104.846 10.9409ZM120.367 35.2411C120.375 35.7386 120.225 36.0687 119.917 36.2314C119.605 36.3791 119.259 36.4062 118.881 36.3128C118.518 36.2175 118.175 36.0185 117.851 35.7157C117.543 35.4111 117.382 35.0572 117.367 34.6539C117.319 33.6005 117.342 32.4292 117.437 31.14C117.543 29.8337 117.644 28.536 117.739 27.2467C117.412 26.9289 117.13 26.6054 116.896 26.2761C116.657 25.9317 116.484 25.5637 116.376 25.1719C116.269 24.7802 116.304 24.3551 116.483 23.8968C116.673 23.4215 116.928 22.9771 117.247 22.5637C117.582 22.1484 117.944 21.7999 118.331 21.5182C118.73 21.2196 119.093 21.0502 119.418 21.0099C119.992 20.9389 120.47 21.0745 120.853 21.4167C121.251 21.757 121.537 22.2435 121.71 22.8763C121.805 23.2229 121.839 23.5771 121.81 23.939C121.792 24.2839 121.755 24.6157 121.698 24.9343C121.637 25.2379 121.574 25.5028 121.507 25.7291C121.457 25.9535 121.432 26.0967 121.433 26.1589C122.256 27.0542 123.071 27.8336 123.879 28.4971C124.686 29.1606 125.437 29.8233 126.132 30.4852C126.842 31.1452 127.472 31.8618 128.021 32.6352C128.57 33.4086 128.995 34.3452 129.297 35.4452C129.371 35.7164 129.425 35.998 129.457 36.2901C129.504 36.5802 129.525 36.8581 129.517 37.1239C130.047 36.9493 130.49 36.7232 130.846 36.4454C131.218 36.1657 131.52 35.8635 131.752 35.5388C131.995 35.1972 132.169 34.8407 132.276 34.4692C132.398 34.0958 132.477 33.7121 132.513 33.3181C132.564 32.8601 132.647 32.5225 132.764 32.3056C132.881 32.0886 133.048 31.9667 133.265 31.9398C133.467 31.9149 133.687 31.9578 133.926 32.0684C134.176 32.1621 134.405 32.2973 134.614 32.474C134.839 32.6488 135.026 32.8359 135.177 33.0354C135.344 33.2329 135.45 33.4145 135.495 33.5803C135.557 33.8063 135.569 34.0852 135.532 34.4169C135.495 34.7487 135.413 35.0937 135.287 35.4521C135.177 35.8085 135.033 36.1612 134.856 36.5103C134.675 36.8442 134.476 37.1415 134.259 37.402C133.676 38.0817 132.937 38.6873 132.04 39.2188C131.14 39.7352 129.96 40.1382 128.5 40.4278C128.059 40.9809 127.484 41.4571 126.776 41.8563C126.087 42.2686 125.255 42.5352 124.278 42.656C123.782 42.7174 123.253 42.7204 122.693 42.665C122.148 42.6078 121.608 42.511 121.074 42.3745C120.559 42.2513 120.077 42.1006 119.627 41.9225C119.177 41.7445 118.805 41.5568 118.511 41.3596C117.773 40.89 117.244 40.3946 116.924 39.8732C116.601 39.3368 116.425 38.8444 116.398 38.3959C116.356 37.9494 116.422 37.5751 116.595 37.2732C116.765 36.9562 116.981 36.7815 117.245 36.7489C117.4 36.7297 117.659 36.7677 118.022 36.8631C118.396 36.9414 118.829 37.0592 119.321 37.2165C119.809 37.3586 120.34 37.5111 120.914 37.6738C121.488 37.8365 122.06 37.9917 122.629 38.1394C123.195 38.272 123.736 38.3763 124.254 38.4525C124.784 38.5117 125.25 38.5163 125.653 38.4665C125.834 38.1325 125.965 37.7035 126.045 37.1794C126.126 36.6553 126.086 36.0994 125.924 35.5118C125.726 34.7886 125.441 34.1305 125.07 33.5377C124.699 32.9448 124.278 32.4049 123.807 31.9178C123.337 31.4307 122.83 30.987 122.288 30.5868C121.756 30.1695 121.225 29.7834 120.695 29.4284C120.567 30.3634 120.483 31.2851 120.444 32.1936C120.401 33.0869 120.375 34.1028 120.367 35.2411Z" fill="#28FAEF"/>
</g>
<defs>
<filter id="filter0_dd_414_463" x="8.95264" y="17.9453" width="31.2324" height="38.8594" filterUnits="userSpaceOnUse" color-interpolation-filters="sRGB">
<feFlood flood-opacity="0" result="BackgroundImageFix"/>
<feColorMatrix in="SourceAlpha" type="matrix" values="0 0 0 0 0 0 0 0 0 0 0 0 0 0 0 0 0 0 127 0" result="hardAlpha"/>
<feOffset/>
<feGaussianBlur stdDeviation="1.5"/>
<feColorMatrix type="matrix" values="0 0 0 0 0.980392 0 0 0 0 0.207843 0 0 0 0 0.564706 0 0 0 1 0"/>
<feBlend mode="normal" in2="BackgroundImageFix" result="effect1_dropShadow_414_463"/>
<feColorMatrix in="SourceAlpha" type="matrix" values="0 0 0 0 0 0 0 0 0 0 0 0 0 0 0 0 0 0 127 0" result="hardAlpha"/>
<feOffset/>
<feGaussianBlur stdDeviation="2.5"/>
<feColorMatrix type="matrix" values="0 0 0 0 0.980392 0 0 0 0 0.207843 0 0 0 0 0.564706 0 0 0 1 0"/>
<feBlend mode="normal" in2="effect1_dropShadow_414_463" result="effect2_dropShadow_414_463"/>
<feBlend mode="normal" in="SourceGraphic" in2="effect2_dropShadow_414_463" result="shape"/>
</filter>
<filter id="filter1_dd_414_463" x="8.67285" y="16.501" width="30.3496" height="16.9695" filterUnits="userSpaceOnUse" color-interpolation-filters="sRGB">
<feFlood flood-opacity="0" result="BackgroundImageFix"/>
<feColorMatrix in="SourceAlpha" type="matrix" values="0 0 0 0 0 0 0 0 0 0 0 0 0 0 0 0 0 0 127 0" result="hardAlpha"/>
<feOffset/>
<feGaussianBlur stdDeviation="1.5"/>
<feColorMatrix type="matrix" values="0 0 0 0 0.980392 0 0 0 0 0.207843 0 0 0 0 0.564706 0 0 0 1 0"/>
<feBlend mode="normal" in2="BackgroundImageFix" result="effect1_dropShadow_414_463"/>
<feColorMatrix in="SourceAlpha" type="matrix" values="0 0 0 0 0 0 0 0 0 0 0 0 0 0 0 0 0 0 127 0" result="hardAlpha"/>
<feOffset/>
<feGaussianBlur stdDeviation="2.5"/>
<feColorMatrix type="matrix" values="0 0 0 0 0.980392 0 0 0 0 0.207843 0 0 0 0 0.564706 0 0 0 1 0"/>
<feBlend mode="normal" in2="effect1_dropShadow_414_463" result="effect2_dropShadow_414_463"/>
<feBlend mode="normal" in="SourceGraphic" in2="effect2_dropShadow_414_463" result="shape"/>
</filter>
<filter id="filter2_dd_414_463" x="16.6226" y="3.81616" width="23.7788" height="27.592" filterUnits="userSpaceOnUse" color-interpolation-filters="sRGB">
<feFlood flood-opacity="0" result="BackgroundImageFix"/>
<feColorMatrix in="SourceAlpha" type="matrix" values="0 0 0 0 0 0 0 0 0 0 0 0 0 0 0 0 0 0 127 0" result="hardAlpha"/>
<feOffset/>
<feGaussianBlur stdDeviation="1.5"/>
<feColorMatrix type="matrix" values="0 0 0 0 0.980392 0 0 0 0 0.207843 0 0 0 0 0.564706 0 0 0 1 0"/>
<feBlend mode="normal" in2="BackgroundImageFix" result="effect1_dropShadow_414_463"/>
<feColorMatrix in="SourceAlpha" type="matrix" values="0 0 0 0 0 0 0 0 0 0 0 0 0 0 0 0 0 0 127 0" result="hardAlpha"/>
<feOffset/>
<feGaussianBlur stdDeviation="2.5"/>
<feColorMatrix type="matrix" values="0 0 0 0 0.980392 0 0 0 0 0.207843 0 0 0 0 0.564706 0 0 0 1 0"/>
<feBlend mode="normal" in2="effect1_dropShadow_414_463" result="effect2_dropShadow_414_463"/>
<feBlend mode="normal" in="SourceGraphic" in2="effect2_dropShadow_414_463" result="shape"/>
</filter>
<filter id="filter3_d_414_463" x="45.3408" y="7.31738" width="96.2017" height="51.4856" filterUnits="userSpaceOnUse" color-interpolation-filters="sRGB">
<feFlood flood-opacity="0" result="BackgroundImageFix"/>
<feColorMatrix in="SourceAlpha" type="matrix" values="0 0 0 0 0 0 0 0 0 0 0 0 0 0 0 0 0 0 127 0" result="hardAlpha"/>
<feOffset dy="4"/>
<feGaussianBlur stdDeviation="2"/>
<feComposite in2="hardAlpha" operator="out"/>
<feColorMatrix type="matrix" values="0 0 0 0 0.980392 0 0 0 0 0.207843 0 0 0 0 0.564706 0 0 0 1 0"/>
<feBlend mode="normal" in2="BackgroundImageFix" result="effect1_dropShadow_414_463"/>
<feBlend mode="normal" in="SourceGraphic" in2="effect1_dropShadow_414_463" result="shape"/>
</filter>
</defs>
</svg>
