<svg width="43" height="24" viewBox="0 0 43 24" fill="none" xmlns="http://www.w3.org/2000/svg">
<path d="M38.5021 0H4.49802C3.30549 0.00104464 2.16219 0.366147 1.31894 1.01521C0.47569 1.66427 0.00135717 2.54429 0 3.4622V20.5378C0.00135717 21.4557 0.47569 22.3357 1.31894 22.9848C2.16219 23.6339 3.30549 23.999 4.49802 24H38.502C39.6945 23.999 40.8378 23.6339 41.6811 22.9848C42.5243 22.3357 42.9986 21.4557 43 20.5378V3.4622C42.9987 2.54429 42.5244 1.66426 41.6811 1.01519C40.8379 0.366125 39.6946 0.00102638 38.5021 0ZM30.5046 11.9953L41.2009 5.53357V19.9874L30.5046 11.9953ZM4.49802 1.38488H38.502C39.2175 1.3855 39.9035 1.60457 40.4094 1.994C40.9154 2.38344 41.2 2.91146 41.2008 3.4622V3.77311L23.8915 14.2302C23.2587 14.6105 22.4787 14.8168 21.6758 14.8163C20.8729 14.8158 20.0934 14.6085 19.4613 14.2274L1.79921 3.77048V3.4622C1.80002 2.91146 2.08462 2.38344 2.59057 1.994C3.09652 1.60457 3.7825 1.3855 4.49802 1.38488ZM12.8138 12.0388L1.79921 20.0153V5.51765L12.8138 12.0388ZM38.5021 22.6151H4.49802C4.03728 22.6149 3.58427 22.5239 3.18213 22.3509C2.77999 22.1778 2.44209 21.9283 2.20061 21.6263L14.2584 12.8946L18.3589 15.3223C19.3073 15.8925 20.4761 16.2021 21.6795 16.2019C22.8828 16.2016 24.0515 15.8916 24.9995 15.321L29.0764 12.8586L40.8041 21.6208C40.563 21.9243 40.2248 22.1752 39.8217 22.3493C39.4186 22.5234 38.9643 22.6149 38.5021 22.6151Z" fill="#28FAEF"/>
</svg>
