<svg width="600" height="200" viewBox="0 0 600 200" fill="none" xmlns="http://www.w3.org/2000/svg">
<g filter="url(#filter0_d_1_2)">
<path d="M88.4135 166.171C88.9975 166.431 89.2335 166.9 89.1195 167.579C89.0065 168.258 88.6455 168.967 88.0355 169.708C87.4375 170.488 86.6665 171.186 85.7235 171.801C84.7805 172.417 83.7665 172.771 82.6805 172.864C81.6355 172.952 80.5395 172.776 79.3935 172.336C78.2465 171.897 77.1205 171.143 76.0155 170.075C74.9405 168.961 73.9135 167.551 72.9325 165.845C71.9935 164.133 71.1875 162.051 70.5155 159.6L54.8555 102.457C54.2165 100.126 53.4735 98.3492 52.6245 97.1242C51.8175 95.8952 51.0055 95.0402 50.1895 94.5592C49.4045 94.0332 48.6495 93.7742 47.9245 93.7802C47.2295 93.7422 46.6755 93.7482 46.2625 93.7992C45.8075 93.8562 45.2445 93.9882 44.5745 94.1952C43.9045 94.4032 43.3325 94.8892 42.8585 95.6542C42.4145 96.3742 42.1635 97.4852 42.1045 98.9892C42.0355 100.451 42.3645 102.509 43.0905 105.161L61.3615 171.828C61.4855 171.813 61.6255 171.857 61.7825 171.963C61.9925 172.103 62.1135 172.233 62.1465 172.354C62.2345 172.675 62.0745 173.028 61.6665 173.41C61.3105 173.828 60.8195 174.222 60.1945 174.59C59.5795 174.999 58.8385 175.34 57.9735 175.613C57.1595 175.922 56.3605 176.124 55.5745 176.222C54.7475 176.324 53.9755 176.316 53.2595 176.197C52.5835 176.073 52.0865 175.428 51.7675 174.263L32.8365 105.185C32.1975 102.854 31.4745 101.074 30.6675 99.8442C29.9015 98.6102 29.1315 97.7502 28.3565 97.2642C27.5715 96.7382 26.8165 96.4782 26.0915 96.4852C25.3965 96.4462 24.8015 96.4582 24.3045 96.5192C23.8915 96.5712 23.3495 96.7002 22.6795 96.9082C22.0405 97.0702 21.4725 97.4932 20.9755 98.1782C20.4685 98.8232 20.1425 99.8192 19.9985 101.166C19.8965 102.508 20.1645 104.345 20.8035 106.676L35.7865 161.347C37.2835 166.812 37.4935 171.087 36.4145 174.17C35.3355 177.254 33.0185 179.016 29.4615 179.457C28.2625 179.605 27.2155 179.527 26.3195 179.223C25.4655 178.913 24.7275 178.485 24.1075 177.939C23.4875 177.392 22.9805 176.79 22.5865 176.133C22.2345 175.47 21.9805 174.857 21.8265 174.295C21.7495 174.014 21.7825 173.822 21.9255 173.722C22.1105 173.616 22.3685 173.542 22.6995 173.501C23.0305 173.46 23.4025 173.414 23.8155 173.363C24.2185 173.271 24.6245 173.117 25.0355 172.9C25.4055 172.688 25.7305 172.315 26.0115 171.782C26.3345 171.243 26.5345 170.492 26.6125 169.526C26.6895 168.561 26.6395 167.362 26.4605 165.93C26.2815 164.498 25.9115 162.757 25.3495 160.708L11.2095 109.111C10.2185 105.494 9.83646 102.383 10.0635 99.7792C10.3315 97.1702 10.9955 94.9902 12.0545 93.2382C13.1135 91.4862 14.4795 90.1542 16.1535 89.2402C17.8685 88.3212 19.6765 87.7442 21.5785 87.5082C22.1165 87.4422 22.8565 87.4122 23.7995 87.4202C24.7315 87.3882 25.7845 87.4862 26.9585 87.7152C28.1735 87.9382 29.4335 88.3222 30.7375 88.8672C32.0295 89.3712 33.3265 90.1252 34.6275 91.1272C35.1045 89.9052 35.7305 88.9132 36.5055 88.1522C37.2695 87.3512 38.0565 86.7142 38.8675 86.2392C39.7195 85.7602 40.5475 85.4292 41.3525 85.2462C42.1885 85.0182 42.9155 84.8652 43.5365 84.7882C45.5205 84.5422 47.5585 84.6432 49.6475 85.0912C51.7785 85.5332 53.8025 86.4462 55.7205 87.8292C57.6805 89.2062 59.4765 91.0822 61.1105 93.4562C62.7445 95.8292 64.0565 98.8242 65.0485 102.441L80.0965 157.354C80.4495 158.64 80.9135 159.787 81.4895 160.796C82.0955 161.76 82.7565 162.613 83.4735 163.355C84.2195 164.052 85.0215 164.638 85.8795 165.113C86.7255 165.549 87.5695 165.901 88.4135 166.171ZM115.063 128.155C115.69 130.445 115.921 132.847 115.755 135.361C115.63 137.869 115.059 140.308 114.041 142.678C113.053 145.003 111.617 147.175 109.734 149.195C107.881 151.169 105.545 152.788 102.728 154.052C103.428 155.045 104.24 155.983 105.166 156.866C106.123 157.703 107.17 158.404 108.308 158.969C109.446 159.535 110.691 159.941 112.042 160.19C113.434 160.433 114.957 160.452 116.611 160.247C119.092 159.939 121.1 159.234 122.636 158.129C124.161 156.985 125.319 155.595 126.111 153.959C126.944 152.319 127.479 150.528 127.717 148.588C127.954 146.647 128.001 144.709 127.855 142.774C127.77 141.372 128.101 140.396 128.849 139.847C129.626 139.252 130.503 139.018 131.479 139.147C132.496 139.27 133.445 139.693 134.327 140.414C135.239 141.091 135.782 141.979 135.955 143.08C136.131 144.346 136.233 145.808 136.26 147.467C136.328 149.12 136.195 150.82 135.861 152.565C135.527 154.309 134.96 156.062 134.16 157.823C133.39 159.539 132.287 161.13 130.85 162.596C129.414 164.062 127.601 165.325 125.412 166.386C123.223 167.447 120.577 168.169 117.476 168.553C114.582 168.912 111.616 168.698 108.578 167.911C105.593 167.159 102.765 165.888 100.095 164.1C97.4545 162.267 95.0805 159.922 92.9735 157.067C90.8955 154.167 89.3285 150.788 88.2715 146.93C87.2025 143.032 86.7695 139.346 86.9725 135.873C87.1635 132.359 87.8335 129.264 88.9805 126.587C90.1285 123.91 91.6725 121.745 93.6145 120.092C95.5445 118.399 97.7295 117.401 100.168 117.099C101.946 116.879 103.621 116.983 105.192 117.411C106.805 117.835 108.261 118.548 109.562 119.55C110.852 120.512 111.954 121.726 112.869 123.191C113.825 124.652 114.556 126.306 115.063 128.155ZM98.5925 145.278C98.6915 145.639 98.8115 145.998 98.9515 146.355C99.0925 146.711 99.2175 147.091 99.3275 147.493C100.7 146.575 101.873 145.474 102.847 144.19C103.82 142.906 104.564 141.484 105.077 139.925C105.59 138.365 105.864 136.711 105.897 134.962C105.92 133.172 105.678 131.353 105.172 129.505C104.797 128.139 104.257 127.104 103.552 126.402C102.888 125.695 102.142 125.393 101.315 125.495C100.281 125.623 99.4455 126.08 98.8055 126.866C98.2065 127.646 97.7515 128.637 97.4395 129.839C97.1585 130.996 97.0035 132.303 96.9755 133.761C96.9775 135.173 97.0475 136.598 97.1845 138.035C97.3225 139.473 97.5255 140.839 97.7955 142.136C98.0535 143.392 98.3195 144.439 98.5925 145.278ZM133.009 125.308C133.233 124.408 133.358 123.229 133.386 121.771C133.445 120.268 133.423 118.63 133.322 116.856C133.262 115.077 133.139 113.222 132.952 111.293C132.765 109.363 132.548 107.479 132.3 105.639C132.053 103.8 131.776 102.09 131.471 100.507C131.196 98.8792 130.904 97.5032 130.596 96.3772C129.472 92.2792 128.342 89.3232 127.204 87.5112C126.055 85.6592 124.964 84.7972 123.93 84.9252C123.599 84.9662 123.354 85.1632 123.194 85.5152C123.034 85.8672 122.943 86.3152 122.921 86.8582C122.887 87.3612 122.912 87.9182 122.994 88.5312C123.107 89.0992 123.23 89.6242 123.362 90.1062L133.009 125.308ZM156.163 141.698C156.081 140.462 156.216 139.552 156.569 138.968C156.952 138.339 157.428 137.968 157.996 137.856C158.594 137.699 159.253 137.763 159.972 138.048C160.681 138.292 161.339 138.668 161.948 139.174C162.558 139.68 163.065 140.282 163.47 140.98C163.905 141.632 164.133 142.31 164.155 143.014C164.028 144.733 163.729 146.765 163.26 149.108C162.791 151.451 161.999 153.71 160.884 155.884C159.77 158.058 158.283 159.966 156.425 161.609C154.566 163.252 152.19 164.253 149.295 164.611C146.856 164.914 144.595 164.778 142.514 164.205C140.444 163.672 138.576 162.782 136.908 161.534C135.271 160.241 133.852 158.651 132.651 156.764C131.48 154.832 130.559 152.64 129.887 150.188L114.491 94.0102C113.863 91.7192 113.575 89.5742 113.625 87.5732C113.706 85.5272 114.076 83.7572 114.735 82.2632C115.425 80.7232 116.368 79.4842 117.565 78.5472C118.75 77.5692 120.129 76.9832 121.7 76.7882C123.561 76.5572 125.226 76.7042 126.695 77.2292C128.153 77.7132 129.444 78.4462 130.568 79.4292C131.693 80.4112 132.675 81.5782 133.515 82.9282C134.397 84.2732 135.145 85.6762 135.759 87.1372C136.362 88.5582 136.883 89.9892 137.321 91.4312C137.748 92.8322 138.121 94.1162 138.44 95.2812C139.266 98.2952 139.847 101.505 140.182 104.912C140.506 108.279 140.654 111.627 140.625 114.954C140.638 118.276 140.514 121.491 140.254 124.598C140.024 127.659 139.726 130.397 139.362 132.81C139.038 135.219 138.682 137.195 138.293 138.739C137.945 140.278 137.66 141.186 137.436 141.463L139.402 148.636C140.085 151.127 141.184 153.11 142.7 154.584C144.204 156.018 146.135 156.589 148.492 156.297C149.939 156.118 151.167 155.53 152.177 154.532C153.216 153.489 154.035 152.266 154.634 150.862C155.263 149.413 155.699 147.884 155.942 146.275C156.174 144.626 156.248 143.1 156.163 141.698ZM146.825 73.9252C147.652 73.8222 148.481 73.8862 149.314 74.1152C150.176 74.2992 150.98 74.6562 151.724 75.1882C152.468 75.7192 153.132 76.4262 153.716 77.3092C154.289 78.1522 154.747 79.1972 155.088 80.4422C155.407 81.6082 155.43 83.0172 155.157 84.6722C154.872 86.2862 154.427 87.8582 153.82 89.3872C153.213 90.9162 152.489 92.2532 151.647 93.3962C150.837 94.4932 150.038 95.0912 149.253 95.1882C148.715 95.2552 148.186 95.1962 147.665 95.0112C147.133 94.7862 146.652 94.5132 146.222 94.1922C145.823 93.8262 145.459 93.4352 145.131 93.0192C144.844 92.5972 144.652 92.2062 144.553 91.8442C144.464 91.5222 144.498 91.3312 144.652 91.2712C144.795 91.1702 144.969 91.0242 145.173 90.8322C145.595 90.6552 146.098 90.0742 146.683 89.0872C147.298 88.0552 147.901 86.9002 148.491 85.6222C147.08 85.4652 145.782 84.9402 144.597 84.0482C143.401 83.1162 142.615 81.9672 142.241 80.6002C142.01 79.7562 141.966 78.9722 142.109 78.2482C142.242 77.4842 142.526 76.8052 142.962 76.2112C143.387 75.5762 143.932 75.0722 144.6 74.6992C145.256 74.2852 145.998 74.0272 146.825 73.9252ZM188.184 138.728C188.206 140.055 187.806 140.936 186.984 141.37C186.152 141.764 185.231 141.837 184.222 141.588C183.255 141.333 182.34 140.803 181.477 139.996C180.656 139.183 180.226 138.239 180.188 137.164C180.06 134.354 180.123 131.23 180.377 127.792C180.663 124.308 180.932 120.847 181.187 117.408C180.314 116.561 179.564 115.698 178.939 114.82C178.302 113.901 177.841 112.92 177.555 111.875C177.268 110.83 177.364 109.696 177.841 108.474C178.349 107.206 179.029 106.021 179.881 104.918C180.774 103.81 181.738 102.881 182.772 102.129C183.836 101.333 184.803 100.88 185.671 100.773C187.201 100.583 188.476 100.945 189.495 101.857C190.556 102.765 191.318 104.062 191.781 105.75C192.034 106.674 192.122 107.619 192.044 108.584C191.997 109.504 191.898 110.389 191.746 111.239C191.583 112.048 191.413 112.755 191.236 113.358C191.101 113.957 191.035 114.339 191.038 114.505C193.231 116.892 195.404 118.971 197.556 120.74C199.708 122.509 201.71 124.276 203.562 126.041C205.455 127.801 207.134 129.712 208.597 131.775C210.06 133.837 211.193 136.335 211.997 139.269C212.195 139.992 212.337 140.743 212.422 141.522C212.549 142.296 212.602 143.037 212.583 143.746C213.994 143.28 215.176 142.677 216.127 141.935C217.12 141.189 217.925 140.383 218.543 139.517C219.191 138.606 219.657 137.655 219.941 136.664C220.267 135.668 220.478 134.645 220.575 133.594C220.71 132.372 220.934 131.472 221.246 130.893C221.557 130.315 222.003 129.989 222.581 129.918C223.119 129.851 223.706 129.965 224.343 130.26C225.01 130.51 225.622 130.871 226.178 131.342C226.776 131.808 227.276 132.307 227.679 132.839C228.122 133.365 228.405 133.85 228.526 134.292C228.691 134.895 228.724 135.638 228.624 136.523C228.525 137.408 228.307 138.328 227.97 139.284C227.675 140.235 227.291 141.176 226.82 142.107C226.337 142.997 225.806 143.79 225.227 144.485C223.672 146.298 221.699 147.914 219.308 149.332C216.907 150.71 213.76 151.785 209.867 152.558C208.69 154.034 207.157 155.304 205.268 156.369C203.432 157.469 201.211 158.18 198.606 158.503C197.283 158.667 195.874 158.675 194.38 158.528C192.927 158.375 191.489 158.117 190.064 157.754C188.691 157.425 187.405 157.024 186.206 156.549C185.007 156.074 184.015 155.574 183.229 155.048C181.262 153.796 179.852 152.475 179.001 151.084C178.139 149.654 177.672 148.341 177.6 147.144C177.488 145.953 177.663 144.955 178.127 144.15C178.579 143.305 179.157 142.838 179.86 142.751C180.273 142.7 180.964 142.801 181.931 143.056C182.929 143.264 184.084 143.578 185.396 143.997C186.697 144.376 188.112 144.783 189.642 145.216C191.172 145.65 192.696 146.064 194.215 146.457C195.722 146.811 197.167 147.089 198.548 147.292C199.959 147.449 201.202 147.461 202.277 147.328C202.76 146.438 203.109 145.293 203.325 143.895C203.54 142.498 203.433 141.015 203.004 139.448C202.475 137.519 201.716 135.764 200.727 134.183C199.738 132.602 198.617 131.162 197.363 129.863C196.109 128.564 194.759 127.381 193.312 126.314C191.895 125.201 190.48 124.172 189.066 123.225C188.724 125.719 188.5 128.177 188.394 130.6C188.277 132.983 188.208 135.692 188.184 138.728ZM280.524 129.097C281.46 132.512 282.708 135.038 284.267 136.673C285.857 138.262 287.934 138.898 290.498 138.581C292.111 138.381 293.606 137.676 294.985 136.467C296.364 135.257 297.586 133.631 298.65 131.588C299.704 129.504 300.535 127.075 301.142 124.299C301.78 121.478 302.175 118.395 302.328 115.053C302.469 111.67 302.312 108.053 301.856 104.204C301.4 100.355 300.61 96.3812 299.487 92.2822C298.352 88.1432 296.803 84.2842 294.839 80.7052C292.916 77.1212 290.588 74.0852 287.854 71.5992C285.15 69.0672 282.049 67.1862 278.548 65.9582C275.089 64.7252 271.251 64.3692 267.033 64.8922C263.518 65.3272 260.521 66.0932 258.043 67.1892C255.564 68.2862 253.52 69.6402 251.909 71.2522C250.329 72.8192 249.105 74.5912 248.236 76.5692C247.408 78.5412 246.867 80.6232 246.613 82.8152C246.389 84.9622 246.42 87.1812 246.706 89.4722C246.981 91.7242 247.415 93.9342 248.01 96.1042C248.825 99.0782 249.862 101.692 251.121 103.945C252.421 106.194 253.69 108.094 254.927 109.644C256.195 111.149 257.301 112.3 258.246 113.097C259.233 113.889 259.805 114.337 259.962 114.442C260.61 114.154 261.128 114.173 261.517 114.499C261.905 114.825 262.182 115.289 262.347 115.892C262.567 116.696 262.613 117.563 262.483 118.493C262.383 119.378 262.143 120.218 261.762 121.013C261.371 121.768 260.869 122.432 260.257 123.007C259.675 123.536 259.012 123.846 258.268 123.939C257.937 123.98 257.595 123.98 257.242 123.941C256.931 123.897 256.576 123.774 256.18 123.574C256.086 123.544 255.699 123.301 255.018 122.845C254.326 122.349 253.45 121.648 252.389 120.741C251.328 119.833 250.139 118.692 248.822 117.318C247.535 115.899 246.229 114.253 244.903 112.382C243.619 110.505 242.393 108.371 241.225 105.982C240.058 103.592 239.077 100.95 238.284 98.0572C236.753 92.4712 236.218 87.2402 236.677 82.3632C237.166 77.4412 238.567 73.1132 240.878 69.3782C243.178 65.6032 246.35 62.5102 250.392 60.0982C254.423 57.6452 259.229 56.0732 264.811 55.3822C270.725 54.6492 276.114 55.1242 280.978 56.8072C285.874 58.4442 290.181 60.9022 293.902 64.1812C297.663 67.4542 300.844 71.3402 303.445 75.8372C306.046 80.3352 308.029 85.0752 309.394 90.0582C310.991 95.8852 311.991 101.328 312.395 106.389C312.84 111.444 312.807 116.081 312.295 120.299C311.825 124.513 310.96 128.297 309.699 131.652C308.427 134.968 306.899 137.816 305.114 140.198C303.319 142.539 301.324 144.386 299.129 145.738C296.935 147.09 294.679 147.91 292.364 148.197C289.387 148.566 286.717 148.418 284.355 147.755C282.045 147.128 280.012 146.029 278.257 144.46C276.49 142.851 274.971 140.816 273.698 138.356C272.414 135.856 271.327 132.978 270.435 129.723L257.467 82.4052C257.148 81.2402 256.839 80.4272 256.542 79.9652C256.233 79.4632 256.018 78.9912 255.897 78.5492C255.721 77.9062 255.914 77.3632 256.477 76.9192C257.028 76.4352 257.759 76.1372 258.668 76.0242C260.777 75.7632 262.621 76.0962 264.2 77.0222C265.81 77.9032 266.819 79.0862 267.226 80.5732L280.524 129.097ZM360.245 138.479C358.757 138.663 357.166 138.632 355.474 138.384C353.823 138.132 352.207 137.542 350.628 136.616C349.09 135.685 347.666 134.386 346.354 132.721C345.073 131.01 344.058 128.788 343.309 126.055C342.219 122.077 341.605 117.811 341.469 113.258C341.363 108.659 341.612 103.559 342.214 97.9582L332.538 99.1572L331.112 99.3342C331.401 100.544 331.737 102.082 332.119 103.945C332.543 105.804 332.917 107.794 333.242 109.914C333.566 112.034 333.814 114.185 333.984 116.366C334.195 118.542 334.26 120.57 334.176 122.45C334.115 123.787 333.657 124.613 332.803 124.926C331.989 125.235 331.082 125.202 330.082 124.827C329.07 124.412 328.164 123.756 327.362 122.858C326.56 121.96 326.161 120.971 326.164 119.89C326.153 118.604 326.03 117.061 325.793 115.262C325.546 113.423 325.214 111.511 324.799 109.527C324.413 107.497 323.992 105.492 323.535 103.513C323.067 101.494 322.639 99.6982 322.251 98.1252C320.449 97.4762 318.854 96.5732 317.468 95.4152C316.071 94.2172 315.124 92.7132 314.629 90.9052C314.398 90.0612 314.354 89.2772 314.497 88.5532C314.671 87.7842 314.982 87.1222 315.428 86.5682C315.864 85.9742 316.442 85.5082 317.161 85.1692C317.87 84.7912 318.638 84.5502 319.465 84.4482C320.209 84.3552 321.002 84.3612 321.842 84.4652C322.724 84.5632 323.589 84.8302 324.435 85.2652C325.322 85.6962 326.171 86.2972 326.981 87.0692C327.791 87.8412 328.553 88.8272 329.267 90.0272C330.334 90.0192 331.229 90.0122 331.954 90.0052C332.71 89.9532 333.341 89.9172 333.848 89.8952C334.355 89.8742 334.774 89.8432 335.105 89.8022C335.436 89.7612 335.767 89.7202 336.098 89.6792L342.734 88.8572C343.107 88.8112 343.705 88.9652 344.529 89.3202C345.394 89.6702 346.278 90.1632 347.179 90.7992C348.069 91.3952 348.852 92.0672 349.527 92.8142C350.243 93.5572 350.638 94.2972 350.713 95.0362C350.779 95.2772 350.794 95.8772 350.758 96.8382C350.721 97.7982 350.689 99.0072 350.661 100.464C350.633 101.922 350.624 103.606 350.635 105.516C350.634 107.386 350.702 109.351 350.839 111.411C350.977 113.472 351.198 115.605 351.503 117.811C351.797 119.976 352.225 122.084 352.787 124.133C353.018 124.977 353.347 125.788 353.774 126.566C354.201 127.344 354.71 128.029 355.299 128.621C355.878 129.173 356.527 129.591 357.246 129.876C358.007 130.155 358.822 130.241 359.69 130.134C361.137 129.954 362.257 129.359 363.048 128.347C363.84 127.334 364.405 126.122 364.745 124.709C365.084 123.295 365.251 121.8 365.247 120.221C365.272 118.598 365.242 117.085 365.157 115.683C365.053 114.366 365.213 113.391 365.638 112.756C366.051 112.082 366.568 111.706 367.189 111.629C367.685 111.568 368.246 111.665 368.871 111.92C369.486 112.134 370.066 112.457 370.612 112.888C371.199 113.314 371.699 113.813 372.112 114.385C372.567 114.952 372.877 115.537 373.042 116.14C373.097 116.34 373.121 116.504 373.112 116.629C373.104 116.755 373.116 116.878 373.149 116.999C373.132 119.12 372.956 121.365 372.622 123.733C372.329 126.096 371.718 128.311 370.788 130.379C369.858 132.447 368.551 134.23 366.866 135.726C365.181 137.223 362.975 138.141 360.245 138.479ZM361.144 73.4262C360.11 73.5542 359.063 73.4762 358.002 73.1922C356.982 72.9032 356.027 72.4602 355.137 71.8642C354.288 71.2632 353.535 70.5462 352.88 69.7132C352.213 68.8402 351.736 67.8812 351.45 66.8362C351.153 65.7512 351.084 64.7212 351.244 63.7462C351.404 62.7702 351.727 61.9202 352.213 61.1952C352.728 60.4252 353.392 59.8022 354.202 59.3282C355.043 58.8082 355.98 58.4852 357.014 58.3572C358.131 58.2182 359.22 58.2912 360.281 58.5752C361.331 58.8192 362.28 59.2412 363.129 59.8432C364.008 60.3992 364.761 61.1162 365.386 61.9942C366.053 62.8672 366.535 63.8462 366.832 64.9312C367.119 65.9762 367.182 66.9862 367.022 67.9612C366.892 68.8912 366.569 69.7422 366.053 70.5122C365.579 71.2772 364.921 71.9192 364.08 72.4392C363.239 72.9592 362.26 73.2882 361.144 73.4262ZM377.489 122.07C377.566 122.352 377.714 122.811 377.931 123.449C378.138 124.047 378.433 124.654 378.815 125.272C379.198 125.889 379.683 126.41 380.27 126.836C380.857 127.262 381.564 127.424 382.391 127.321C383.632 127.168 384.586 126.593 385.253 125.596C385.962 124.594 386.466 123.389 386.764 121.981C387.103 120.568 387.291 119.069 387.328 117.486C387.353 115.862 387.323 114.35 387.238 112.947C387.145 111.671 387.269 110.721 387.611 110.097C387.995 109.467 388.47 109.097 389.038 108.985C389.637 108.828 390.275 108.894 390.953 109.184C391.672 109.469 392.342 109.885 392.962 110.431C393.612 110.932 394.14 111.532 394.545 112.229C394.991 112.922 395.22 113.6 395.231 114.263C395.213 116.384 395.038 118.629 394.703 120.997C394.41 123.36 393.799 125.576 392.869 127.644C391.939 129.712 390.632 131.494 388.947 132.991C387.263 134.488 385.056 135.405 382.327 135.743C380.631 135.953 379.034 135.819 377.534 135.34C376.046 134.901 374.704 134.215 373.508 133.283C372.312 132.351 371.273 131.213 370.391 129.868C369.551 128.517 368.916 127.059 368.486 125.492L359.451 92.5202C359.131 91.3542 358.797 90.5232 358.447 90.0272C358.138 89.5252 357.923 89.0532 357.802 88.6112C357.637 88.0082 357.835 87.4852 358.398 87.0412C358.949 86.5572 359.68 86.2592 360.59 86.1462C362.699 85.8852 364.501 86.2232 365.998 87.1592C367.525 88.0502 368.492 89.2392 368.899 90.7262L377.489 122.07ZM381.408 89.8002C381.088 88.6342 380.754 87.8032 380.404 87.3062C380.095 86.8052 379.88 86.3332 379.759 85.8912C379.594 85.2882 379.793 84.7652 380.355 84.3212C380.907 83.8372 381.637 83.5392 382.547 83.4262C384.656 83.1652 386.459 83.5032 387.955 84.4392C389.482 85.3302 390.449 86.5192 390.856 88.0062L399.959 121.219C400.278 122.384 400.717 123.285 401.277 123.922C401.836 124.559 402.674 124.809 403.79 124.671C405.362 124.476 406.795 123.779 408.091 122.58C409.418 121.335 410.437 119.671 411.149 117.589C411.891 115.461 412.269 112.942 412.284 110.032C412.34 107.116 411.878 103.87 410.898 100.294C410.215 97.8022 409.442 95.7592 408.577 94.1622C407.753 92.5612 406.935 91.2912 406.122 90.3532C405.298 89.3752 404.504 88.6632 403.741 88.2172C403.019 87.7672 402.407 87.4062 401.905 87.1362C401.508 86.9362 401.098 86.8412 400.673 86.8522C400.238 86.8232 399.97 86.6282 399.871 86.2662C399.717 85.7032 399.691 85.0632 399.793 84.3442C399.926 83.5792 400.158 82.8652 400.489 82.2012C400.809 81.4962 401.224 80.9052 401.734 80.4262C402.233 79.9072 402.793 79.6092 403.413 79.5332C404.695 79.3742 406.168 79.8352 407.833 80.9172C409.486 81.9592 411.126 83.4172 412.752 85.2942C414.419 87.1642 415.956 89.3422 417.364 91.8272C418.761 94.2722 419.823 96.8202 420.549 99.4722C421.695 103.651 422.195 107.661 422.05 111.502C421.906 115.342 421.138 118.782 419.748 121.821C418.399 124.855 416.435 127.363 413.857 129.344C411.279 131.326 408.129 132.547 404.408 133.008C402.382 133.259 400.577 133.15 398.995 132.681C397.455 132.207 396.122 131.479 394.998 130.496C393.873 129.514 392.927 128.322 392.158 126.922C391.379 125.481 390.763 123.937 390.311 122.289L381.408 89.8002ZM453.352 86.2472C453.979 88.5382 454.21 90.9402 454.044 93.4532C453.919 95.9622 453.348 98.4012 452.33 100.77C451.342 103.095 449.906 105.267 448.023 107.287C446.17 109.262 443.835 110.881 441.017 112.144C441.717 113.137 442.53 114.075 443.455 114.958C444.412 115.795 445.459 116.496 446.597 117.062C447.736 117.627 448.98 118.034 450.331 118.282C451.723 118.525 453.246 118.544 454.9 118.339C457.381 118.032 459.389 117.326 460.925 116.221C462.45 115.077 463.608 113.687 464.4 112.052C465.233 110.411 465.768 108.62 466.006 106.68C466.244 104.739 466.29 102.801 466.144 100.866C466.059 99.4642 466.39 98.4882 467.138 97.9392C467.915 97.3442 468.792 97.1112 469.768 97.2392C470.785 97.3622 471.734 97.7852 472.616 98.5072C473.528 99.1832 474.071 100.071 474.244 101.172C474.42 102.438 474.522 103.9 474.549 105.559C474.617 107.213 474.484 108.912 474.15 110.657C473.816 112.402 473.249 114.155 472.449 115.916C471.679 117.631 470.576 119.222 469.139 120.688C467.703 122.154 465.89 123.418 463.701 124.478C461.512 125.539 458.866 126.261 455.765 126.646C452.871 127.004 449.905 126.79 446.867 126.003C443.882 125.251 441.054 123.981 438.384 122.192C435.743 120.359 433.369 118.015 431.262 115.16C429.184 112.259 427.617 108.88 426.56 105.022C425.491 101.124 425.058 97.4392 425.261 93.9652C425.452 90.4512 426.122 87.3562 427.269 84.6792C428.417 82.0032 429.961 79.8382 431.903 78.1842C433.833 76.4912 436.018 75.4932 438.457 75.1912C440.236 74.9712 441.91 75.0752 443.481 75.5042C445.094 75.9272 446.55 76.6402 447.851 77.6422C449.141 78.6042 450.243 79.8182 451.158 81.2842C452.114 82.7442 452.845 84.3992 453.352 86.2472ZM436.881 103.37C436.98 103.732 437.1 104.091 437.24 104.447C437.381 104.804 437.506 105.183 437.616 105.585C438.989 104.667 440.162 103.566 441.136 102.282C442.109 100.998 442.853 99.5762 443.366 98.0172C443.879 96.4572 444.153 94.8032 444.187 93.0542C444.209 91.2642 443.967 89.4462 443.461 87.5972C443.086 86.2312 442.546 85.1972 441.841 84.4952C441.177 83.7872 440.431 83.4852 439.604 83.5872C438.57 83.7162 437.734 84.1722 437.094 84.9582C436.495 85.7382 436.04 86.7302 435.728 87.9322C435.447 89.0882 435.292 90.3962 435.264 91.8532C435.266 93.2662 435.336 94.6902 435.473 96.1282C435.611 97.5652 435.814 98.9322 436.084 100.228C436.343 101.484 436.608 102.531 436.881 103.37ZM490.158 57.4432C489.124 57.5722 488.077 57.4942 487.015 57.2102C485.996 56.9202 485.041 56.4782 484.15 55.8822C483.302 55.2812 482.549 54.5632 481.893 53.7312C481.227 52.8582 480.75 51.8992 480.464 50.8542C480.166 49.7692 480.098 48.7392 480.258 47.7632C480.418 46.7882 480.741 45.9382 481.226 45.2132C481.742 44.4422 482.405 43.8202 483.216 43.3462C484.057 42.8262 484.994 42.5022 486.028 42.3742C487.145 42.2362 488.233 42.3092 489.295 42.5932C490.345 42.8372 491.294 43.2592 492.143 43.8602C493.022 44.4162 493.775 45.1332 494.4 46.0112C495.067 46.8842 495.549 47.8632 495.846 48.9482C496.133 49.9932 496.196 51.0032 496.035 51.9792C495.905 52.9092 495.583 53.7592 495.067 54.5292C494.593 55.2942 493.935 55.9372 493.094 56.4562C492.253 56.9762 491.274 57.3052 490.158 57.4432ZM506.503 106.088C506.58 106.369 506.727 106.829 506.945 107.467C507.152 108.064 507.446 108.672 507.829 109.289C508.212 109.906 508.697 110.428 509.284 110.854C509.871 111.28 510.578 111.441 511.405 111.339C512.646 111.185 513.6 110.61 514.267 109.613C514.976 108.611 515.479 107.407 515.778 105.998C516.117 104.585 516.305 103.087 516.342 101.504C516.367 99.8802 516.337 98.3672 516.252 96.9652C516.159 95.6892 516.283 94.7382 516.625 94.1142C517.009 93.4852 517.484 93.1152 518.052 93.0032C518.65 92.8452 519.288 92.9122 519.966 93.2022C520.686 93.4872 521.356 93.9022 521.976 94.4492C522.626 94.9502 523.155 95.5492 523.56 96.2472C524.006 96.9392 524.235 97.6172 524.245 98.2812C524.228 100.402 524.051 102.647 523.717 105.015C523.424 107.378 522.813 109.593 521.883 111.661C520.953 113.729 519.646 115.512 517.961 117.009C516.276 118.505 514.07 119.423 511.34 119.761C509.645 119.971 508.048 119.836 506.548 119.357C505.06 118.918 503.718 118.233 502.522 117.301C501.325 116.369 500.287 115.23 499.405 113.885C498.565 112.535 497.93 111.076 497.5 109.509L488.464 76.5372C488.145 75.3722 487.81 74.5412 487.46 74.0442C487.152 73.5422 486.937 73.0702 486.816 72.6282C486.651 72.0252 486.849 71.5022 487.412 71.0592C487.963 70.5752 488.694 70.2772 489.604 70.1642C491.712 69.9032 493.515 70.2402 495.012 71.1772C496.539 72.0682 497.506 73.2572 497.913 74.7442L506.503 106.088ZM510.421 73.8172C510.102 72.6522 509.767 71.8212 509.418 71.3242C509.109 70.8222 508.894 70.3502 508.773 69.9082C508.608 69.3052 508.806 68.7822 509.369 68.3392C509.92 67.8552 510.651 67.5562 511.561 67.4442C513.67 67.1832 515.472 67.5202 516.969 68.4572C518.496 69.3482 519.463 70.5372 519.87 72.0242L521.39 77.5692C521.785 75.7342 522.275 74.0112 522.86 72.4012C523.486 70.7862 524.229 69.3652 525.09 68.1362C525.981 66.8622 527.005 65.8422 528.163 65.0752C529.351 64.2632 530.731 63.7602 532.303 63.5652C534.412 63.3042 536.253 63.4712 537.827 64.0652C539.4 64.6602 540.745 65.5112 541.861 66.6192C542.977 67.7282 543.884 69.0072 544.581 70.4582C545.319 71.9042 545.881 73.3302 546.266 74.7372L553.271 100.294C553.348 100.576 553.496 101.035 553.714 101.673C553.92 102.271 554.214 102.878 554.597 103.495C554.98 104.113 555.444 104.637 555.99 105.068C556.577 105.494 557.284 105.656 558.111 105.553C559.393 105.394 560.367 104.817 561.035 103.82C561.743 102.818 562.247 101.613 562.545 100.205C562.885 98.7922 563.052 97.2962 563.047 95.7182C563.072 94.0942 563.043 92.5812 562.958 91.1792C562.853 89.8622 563.013 88.8872 563.438 88.2532C563.852 87.5782 564.37 87.2022 564.99 87.1262C565.486 87.0642 566.046 87.1612 566.672 87.4162C567.287 87.6302 567.867 87.9532 568.412 88.3842C568.999 88.8102 569.5 89.3092 569.913 89.8812C570.368 90.4482 570.678 91.0332 570.844 91.6362C570.866 91.7162 570.892 91.8172 570.925 91.9372C570.958 92.0582 570.967 92.2442 570.951 92.4952C570.975 94.6112 570.819 96.8532 570.484 99.2212C570.191 101.584 569.56 103.802 568.589 105.876C567.66 107.943 566.352 109.726 564.667 111.223C562.982 112.719 560.776 113.637 558.047 113.975C556.351 114.185 554.753 114.05 553.254 113.571C551.807 113.127 550.464 112.442 549.227 111.515C548.031 110.583 546.992 109.444 546.11 108.099C545.27 106.749 544.635 105.29 544.206 103.723L537.334 78.6482C537.069 77.6832 536.802 76.7822 536.529 75.9432C536.257 75.1042 535.928 74.3762 535.545 73.7592C535.203 73.1362 534.797 72.6672 534.326 72.3522C533.885 71.9912 533.354 71.8492 532.734 71.9262C531.824 72.0382 530.873 72.7802 529.88 74.1492C528.887 75.5182 528.014 77.2472 527.261 79.3352C526.508 81.4222 525.971 83.7532 525.65 86.3282C525.36 88.8562 525.427 91.3622 525.85 93.8442L530.789 111.867C530.955 112.47 531.106 113.095 531.24 113.743C531.406 114.346 531.429 114.904 531.313 115.417C531.25 115.965 531.015 116.43 530.607 116.813C530.251 117.231 529.617 117.497 528.708 117.609C528.087 117.686 527.383 117.69 526.595 117.622C525.859 117.588 525.127 117.409 524.396 117.084C523.718 116.794 523.073 116.313 522.461 115.641C521.902 115.004 521.462 114.103 521.142 112.937L510.421 73.8172ZM580.987 98.2322C582.724 98.0172 584.352 98.4172 585.87 99.4342C587.378 100.411 588.364 101.743 588.826 103.431C589.036 104.194 589.073 104.958 588.94 105.723C588.797 106.447 588.507 107.106 588.071 107.7C587.677 108.289 587.152 108.79 586.495 109.204C585.839 109.618 585.077 109.878 584.209 109.986C583.382 110.088 582.552 110.025 581.719 109.796C580.887 109.566 580.11 109.226 579.388 108.776C578.707 108.32 578.108 107.771 577.59 107.129C577.061 106.446 576.691 105.723 576.482 104.96C576.251 104.116 576.202 103.312 576.334 102.548C576.467 101.783 576.73 101.107 577.125 100.518C577.549 99.8832 578.095 99.3792 578.763 99.0062C579.419 98.5922 580.16 98.3342 580.987 98.2322ZM583.323 88.0332C583.763 89.6402 583.69 90.8542 583.103 91.6752C582.515 92.4962 581.684 92.9732 580.609 93.1062C579.947 93.1882 579.226 93.1322 578.446 92.9372C577.666 92.7432 576.922 92.4412 576.211 92.0302C575.53 91.5752 574.909 91.0282 574.349 90.3912C573.82 89.7092 573.44 88.9462 573.209 88.1022L556.542 27.2822C556.223 26.1162 555.773 25.2582 555.194 24.7062C554.646 24.1102 554.306 23.5702 554.173 23.0882C554.052 22.6462 554.263 22.2462 554.806 21.8882C555.35 21.5292 556.284 21.2682 557.607 21.1042C558.475 20.9972 559.344 20.9722 560.215 21.0312C561.128 21.0842 561.97 21.2702 562.741 21.5902C563.543 21.8652 564.239 22.2982 564.829 22.8902C565.408 23.4412 565.829 24.1992 566.094 25.1642L583.323 88.0332Z" fill="#28FAEF"/>
</g>
<defs>
<filter id="filter0_d_1_2" x="6" y="21" width="587.018" height="166.53" filterUnits="userSpaceOnUse" color-interpolation-filters="sRGB">
<feFlood flood-opacity="0" result="BackgroundImageFix"/>
<feColorMatrix in="SourceAlpha" type="matrix" values="0 0 0 0 0 0 0 0 0 0 0 0 0 0 0 0 0 0 127 0" result="hardAlpha"/>
<feOffset dy="4"/>
<feGaussianBlur stdDeviation="2"/>
<feComposite in2="hardAlpha" operator="out"/>
<feColorMatrix type="matrix" values="0 0 0 0 0.980392 0 0 0 0 0.207843 0 0 0 0 0.564706 0 0 0 1 0"/>
<feBlend mode="normal" in2="BackgroundImageFix" result="effect1_dropShadow_1_2"/>
<feBlend mode="normal" in="SourceGraphic" in2="effect1_dropShadow_1_2" result="shape"/>
</filter>
</defs>
</svg>
