<svg width="42" height="31" viewBox="0 0 42 31" fill="none" xmlns="http://www.w3.org/2000/svg">
<g clip-path="url(#clip0_1093_230)">
<g filter="url(#filter0_d_1093_230)">
<path d="M29.8443 20.5866C29.5148 20.2978 29.1234 20.0685 28.6924 19.9121C28.2613 19.7557 27.7992 19.6752 27.3325 19.6752C26.8658 19.6752 26.4037 19.7557 25.9727 19.9121C25.5417 20.0685 25.1502 20.2978 24.8208 20.5866L23.1069 22.0844C21.1771 21.0141 19.3892 19.76 17.776 18.3452C16.1604 16.9327 14.7256 15.3706 13.4972 13.6866L15.2111 12.1888C15.5417 11.9009 15.804 11.5588 15.9829 11.1821C16.1619 10.8055 16.254 10.4016 16.254 9.99378C16.254 9.58593 16.1619 9.1821 15.9829 8.80543C15.804 8.42876 15.5417 8.08667 15.2111 7.79877L11.866 4.88587C11.5412 4.59601 11.1531 4.36618 10.7246 4.21003C10.2962 4.05387 9.83619 3.97458 9.37198 3.97687C8.90448 3.97587 8.44136 4.05567 8.00928 4.21167C7.5772 4.36767 7.18468 4.5968 6.85431 4.88587L5.24679 6.28034C4.48058 7.00027 3.90872 7.86111 3.57326 8.79957C3.2378 9.73803 3.14726 10.7303 3.3083 11.7033C3.68654 15.5769 6.59427 20.2354 11.0741 24.1606C15.5539 28.0858 20.9438 30.6166 25.3763 30.9884C25.707 31.0039 26.0385 31.0039 26.3692 30.9884C27.3233 31.0234 28.2759 30.8916 29.171 30.6007C30.0661 30.3098 30.8857 29.8657 31.5818 29.2944L33.1775 27.8896C33.5083 27.6009 33.7705 27.2579 33.949 26.8803C34.1275 26.5027 34.2188 26.0979 34.2177 25.6894C34.2203 25.2837 34.1296 24.8817 33.9509 24.5073C33.7722 24.1329 33.5092 23.7937 33.1775 23.5099L29.8443 20.5866ZM31.5109 26.4331L29.9034 27.8276C29.309 28.2605 28.6152 28.5767 27.8688 28.755C27.1224 28.9332 26.3409 28.9692 25.5772 28.8605C21.7357 28.5713 16.8422 26.1955 12.7998 22.6629C8.75734 19.1302 6.03873 14.8848 5.67231 11.5277C5.54484 10.8603 5.58451 10.1767 5.78857 9.52407C5.99263 8.87138 6.35623 8.26514 6.85431 7.74713L8.52094 6.34232C8.63138 6.24659 8.76237 6.17084 8.90638 6.11944C9.05039 6.06804 9.2046 6.04198 9.36016 6.04277C9.51572 6.04198 9.66993 6.06804 9.81394 6.11944C9.95795 6.17084 10.0889 6.24659 10.1994 6.34232L13.5445 9.29655C13.7646 9.49008 13.8882 9.75188 13.8882 10.0248C13.8882 10.2977 13.7646 10.5595 13.5445 10.753L11.1804 12.8189C10.9955 12.9798 10.8766 13.1896 10.8424 13.4157C10.8082 13.6418 10.8605 13.8714 10.9913 14.0688C12.4066 16.1744 14.1269 18.1116 16.1094 19.8326C18.0787 21.5651 20.2955 23.0684 22.705 24.3053C22.9308 24.4195 23.1936 24.4653 23.4523 24.4354C23.711 24.4055 23.9511 24.3016 24.1352 24.14L26.4992 22.0741C26.7207 21.8817 27.0203 21.7737 27.3325 21.7737C27.6448 21.7737 27.9444 21.8817 28.1658 22.0741L31.5109 24.9973C31.6205 25.0938 31.7071 25.2083 31.766 25.3342C31.8248 25.46 31.8546 25.5948 31.8537 25.7307C31.8463 25.9945 31.7236 26.2458 31.5109 26.4331ZM33.5676 4.53466C31.9249 3.09367 29.9721 1.9511 27.8217 1.17282C25.6713 0.394539 23.3659 -0.00405084 21.0384 3.10364e-05C20.7249 3.10364e-05 20.4242 0.108859 20.2026 0.302574C19.9809 0.496289 19.8564 0.759023 19.8564 1.03298C19.8564 1.30693 19.9809 1.56967 20.2026 1.76338C20.4242 1.9571 20.7249 2.06592 21.0384 2.06592C23.0672 2.06586 25.0761 2.41692 26.9489 3.09885C28.8217 3.78078 30.5214 4.78008 31.95 6.03907C33.3786 7.29806 34.5077 8.79183 35.2723 10.4342C36.0368 12.0765 36.4216 13.8349 36.4044 15.6078C36.4044 15.8818 36.5289 16.1445 36.7506 16.3382C36.9723 16.532 37.2729 16.6408 37.5864 16.6408C37.8999 16.6408 38.2005 16.532 38.4222 16.3382C38.6439 16.1445 38.7684 15.8818 38.7684 15.6078C38.791 13.5522 38.3425 11.5134 37.4493 9.61166C36.5561 7.70989 35.2363 5.98364 33.5676 4.53466Z" fill="#28FAEF"/>
</g>
<g filter="url(#filter1_d_1093_230)">
<path d="M27.4444 10.7629C28.1892 11.3093 28.7785 11.9602 29.1775 12.6773C29.5764 13.3943 29.777 14.1631 29.7675 14.9382C29.7675 15.1951 29.9058 15.4415 30.1519 15.6232C30.3981 15.8049 30.7319 15.9069 31.08 15.9069C31.4281 15.9069 31.7619 15.8049 32.0081 15.6232C32.2542 15.4415 32.3925 15.1951 32.3925 14.9382C32.4099 13.9123 32.1511 12.8941 31.6312 11.9426C31.1113 10.9911 30.3407 10.1253 29.3639 9.39537C28.3872 8.66543 27.2238 8.08589 25.9412 7.69037C24.6587 7.29485 23.2825 7.09123 21.8925 7.09131C21.5444 7.09131 21.2106 7.19337 20.9644 7.37505C20.7183 7.55672 20.58 7.80313 20.58 8.06006C20.58 8.31699 20.7183 8.56339 20.9644 8.74507C21.2106 8.92674 21.5444 9.02881 21.8925 9.02881C22.9269 9.03456 23.9495 9.19066 24.9022 9.4882C25.8548 9.78573 26.7186 10.2189 27.4444 10.7629Z" fill="#FA3590"/>
</g>
</g>
<defs>
<filter id="filter0_d_1093_230" x="-0.76923" y="0" width="43.5385" height="39" filterUnits="userSpaceOnUse" color-interpolation-filters="sRGB">
<feFlood flood-opacity="0" result="BackgroundImageFix"/>
<feColorMatrix in="SourceAlpha" type="matrix" values="0 0 0 0 0 0 0 0 0 0 0 0 0 0 0 0 0 0 127 0" result="hardAlpha"/>
<feOffset dy="4"/>
<feGaussianBlur stdDeviation="2"/>
<feComposite in2="hardAlpha" operator="out"/>
<feColorMatrix type="matrix" values="0 0 0 0 0 0 0 0 0 0 0 0 0 0 0 0 0 0 0.25 0"/>
<feBlend mode="normal" in2="BackgroundImageFix" result="effect1_dropShadow_1093_230"/>
<feBlend mode="normal" in="SourceGraphic" in2="effect1_dropShadow_1093_230" result="shape"/>
</filter>
<filter id="filter1_d_1093_230" x="16.58" y="7.09131" width="19.8133" height="16.8157" filterUnits="userSpaceOnUse" color-interpolation-filters="sRGB">
<feFlood flood-opacity="0" result="BackgroundImageFix"/>
<feColorMatrix in="SourceAlpha" type="matrix" values="0 0 0 0 0 0 0 0 0 0 0 0 0 0 0 0 0 0 127 0" result="hardAlpha"/>
<feOffset dy="4"/>
<feGaussianBlur stdDeviation="2"/>
<feComposite in2="hardAlpha" operator="out"/>
<feColorMatrix type="matrix" values="0 0 0 0 0.980392 0 0 0 0 0.207843 0 0 0 0 0.564706 0 0 0 0.5 0"/>
<feBlend mode="normal" in2="BackgroundImageFix" result="effect1_dropShadow_1093_230"/>
<feBlend mode="normal" in="SourceGraphic" in2="effect1_dropShadow_1093_230" result="shape"/>
</filter>
<clipPath id="clip0_1093_230">
<rect width="42" height="31" fill="white"/>
</clipPath>
</defs>
</svg>
