<svg width="365" height="467" viewBox="0 0 365 467" fill="none" xmlns="http://www.w3.org/2000/svg">
<path d="M355.467 176.16L213.785 120.134L135.87 119.57L78.7158 417.082L147.199 454.245L261.714 464.241L355.467 176.16Z" stroke="url(#paint0_linear_166_1298)" stroke-width="3.99999" stroke-linecap="round" stroke-linejoin="round"/>
<path d="M209.069 138.433L151.915 435.946" stroke="url(#paint1_linear_166_1298)" stroke-width="3.99999" stroke-linecap="round" stroke-linejoin="round"/>
<path d="M117.673 417.364L167.753 147.301" stroke="url(#paint2_linear_166_1298)" stroke-width="3.99999" stroke-linecap="round" stroke-linejoin="round"/>
<path d="M188.514 445.377L261.611 161.731" stroke="url(#paint3_linear_166_1298)" stroke-width="3.99999" stroke-linecap="round" stroke-linejoin="round"/>
<path d="M227.472 445.659L314.151 185.028" stroke="url(#paint4_linear_166_1298)" stroke-width="3.99999" stroke-linecap="round" stroke-linejoin="round"/>
<path d="M186.37 13.0928C186.37 13.0928 148.261 -14.7159 147.231 21.3325C146.201 57.3809 166.801 29.5721 166.801 29.5721C166.801 29.5721 135.902 65.6205 159.591 61.5007C183.28 57.3809 174.01 36.7818 174.01 36.7818C174.01 36.7818 182.25 70.7703 194.609 55.3209C206.969 39.8716 202.849 47.0813 193.579 40.9016C184.31 34.7219 221.975 31.3557 221.975 19.2301C221.975 7.10447 202.12 -7.30983 186.37 13.0928Z" stroke="url(#paint5_linear_166_1298)" stroke-width="5.03282"/>
<path d="M310.484 135.708C310.484 135.708 277.115 169.056 312.57 175.649C348.026 182.243 323.738 157.59 323.738 157.59C323.738 157.59 354.573 193.693 354.167 169.652C353.761 145.611 331.976 151.583 331.976 151.583C331.976 151.583 366.83 148.7 353.479 134.099C340.127 119.499 346.613 124.684 339.074 132.887C331.534 141.089 334.035 103.356 322.055 101.48C310.076 99.6044 292.764 116.991 310.484 135.708Z" stroke="url(#paint6_linear_166_1298)" stroke-width="5.03282"/>
<path d="M295.122 110.729C295.122 110.729 326.408 75.4195 290.618 70.987C254.829 66.5544 280.566 89.6898 280.566 89.6898C280.566 89.6898 247.599 55.5223 249.462 79.4945C251.324 103.467 272.707 96.1857 272.707 96.1857C272.707 96.1857 238.092 101.176 252.304 114.94C266.516 128.705 259.728 123.922 266.756 115.278C273.784 106.634 273.576 144.449 285.647 145.595C297.718 146.741 313.945 128.337 295.122 110.729Z" stroke="url(#paint7_linear_166_1298)" stroke-width="5.03282"/>
<path d="M192.106 93.1098C192.106 93.1098 201.612 139.318 226.615 113.329C251.618 87.3408 217.671 94.0717 217.671 94.0717C217.671 94.0717 264.782 88.168 244.478 75.2879C224.174 62.4077 217.183 83.8874 217.183 83.8874C217.183 83.8874 233.94 53.1901 214.403 56.3139C194.867 59.4377 202.764 56.8718 205.47 67.679C208.175 78.4862 178.033 55.6498 169.88 64.6246C161.726 73.5994 166.729 97.6198 192.106 93.1098Z" stroke="url(#paint8_linear_166_1298)" stroke-width="5.03282"/>
<path d="M122.73 115.738C122.73 115.738 158.241 146.795 162.442 110.978C166.643 75.16 143.674 101.047 143.674 101.047C143.674 101.047 177.628 67.8595 153.668 69.877C129.709 71.8944 137.128 93.2298 137.128 93.2298C137.128 93.2298 131.914 58.6478 118.242 72.9485C104.57 87.2492 109.308 80.4304 117.998 87.4025C126.687 94.3746 88.8714 94.4104 87.8034 106.489C86.7355 118.567 105.244 134.674 122.73 115.738Z" stroke="url(#paint9_linear_166_1298)" stroke-width="5.03282"/>
<path d="M107.516 232.966C107.516 232.966 99.3239 186.507 73.5946 211.777C47.8652 237.046 81.9886 231.28 81.9886 231.28C81.9886 231.28 34.7301 235.846 54.6606 249.297C74.591 262.747 82.1878 241.474 82.1878 241.474C82.1878 241.474 64.5678 271.684 84.1851 269.116C103.802 266.547 95.8354 268.888 93.4374 258.008C91.0395 247.129 120.522 270.81 128.927 262.07C137.331 253.33 133.011 229.178 107.516 232.966Z" stroke="url(#paint10_linear_166_1298)" stroke-width="5.03282"/>
<path d="M60.9898 382.43C60.9898 382.43 69.2355 335.981 36.3978 350.888C3.55993 365.795 37.5902 372.087 37.5902 372.087C37.5902 372.087 -8.366 360.161 5.73947 379.633C19.8449 399.106 34.2796 381.731 34.2796 381.731C34.2796 381.731 7.36374 404.061 26.6715 408.379C45.9793 412.698 37.6928 412.163 39.1733 401.121C40.6538 390.079 60.2208 422.439 71.1143 417.113C82.0078 411.788 86.2368 387.619 60.9898 382.43Z" stroke="url(#paint11_linear_166_1298)" stroke-width="5.03282"/>
<path d="M97.2796 418.071C97.2796 418.071 62.464 449.905 97.5917 458.066C132.719 466.226 109.549 440.52 109.549 440.52C109.549 440.52 138.752 477.955 139.413 453.92C140.075 429.884 118.046 434.884 118.046 434.884C118.046 434.884 152.994 433.55 140.303 418.371C127.612 403.193 133.862 408.661 125.966 416.521C118.07 424.38 122.242 386.795 110.358 384.39C98.4731 381.985 80.4066 398.586 97.2796 418.071Z" stroke="url(#paint12_linear_166_1298)" stroke-width="5.03282"/>
<path d="M264.022 62.8215C264.022 62.8215 310.371 71.6189 295.855 38.6062C281.339 5.5935 274.643 39.5466 274.643 39.5466C274.643 39.5466 287.115 -6.2646 267.476 7.60837C247.837 21.4813 265.039 36.1216 265.039 36.1216C265.039 36.1216 243.03 8.94209 238.483 28.1972C233.936 47.4522 234.569 39.1726 245.592 40.7843C256.616 42.3961 224.026 61.5769 229.221 72.533C234.417 83.489 258.534 88.005 264.022 62.8215Z" stroke="url(#paint13_linear_166_1298)" stroke-width="5.03282"/>
<defs>
<linearGradient id="paint0_linear_166_1298" x1="2763.95" y1="-944.019" x2="2763.95" y2="-944.019" gradientUnits="userSpaceOnUse">
<stop stop-color="#28FAEF"/>
</linearGradient>
<linearGradient id="paint1_linear_166_1298" x1="2763.94" y1="-944.019" x2="2763.94" y2="-944.019" gradientUnits="userSpaceOnUse">
<stop stop-color="#28FAEF"/>
</linearGradient>
<linearGradient id="paint2_linear_166_1298" x1="2763.95" y1="-944.019" x2="2763.95" y2="-944.019" gradientUnits="userSpaceOnUse">
<stop stop-color="#28FAEF"/>
</linearGradient>
<linearGradient id="paint3_linear_166_1298" x1="2763.95" y1="-944.019" x2="2763.95" y2="-944.019" gradientUnits="userSpaceOnUse">
<stop stop-color="#28FAEF"/>
</linearGradient>
<linearGradient id="paint4_linear_166_1298" x1="2763.94" y1="-944.019" x2="2763.94" y2="-944.019" gradientUnits="userSpaceOnUse">
<stop stop-color="#28FAEF"/>
</linearGradient>
<linearGradient id="paint5_linear_166_1298" x1="2763.95" y1="-944.019" x2="2763.95" y2="-944.019" gradientUnits="userSpaceOnUse">
<stop stop-color="#28FAEF"/>
</linearGradient>
<linearGradient id="paint6_linear_166_1298" x1="-236.384" y1="-2558.9" x2="-236.384" y2="-2558.9" gradientUnits="userSpaceOnUse">
<stop stop-color="#28FAEF"/>
</linearGradient>
<linearGradient id="paint7_linear_166_1298" x1="1004.33" y1="2767.23" x2="1004.33" y2="2767.23" gradientUnits="userSpaceOnUse">
<stop stop-color="#28FAEF"/>
</linearGradient>
<linearGradient id="paint8_linear_166_1298" x1="-2359.29" y1="-931.754" x2="-2359.29" y2="-931.754" gradientUnits="userSpaceOnUse">
<stop stop-color="#28FAEF"/>
</linearGradient>
<linearGradient id="paint9_linear_166_1298" x1="-2529.13" y1="842.115" x2="-2529.13" y2="842.115" gradientUnits="userSpaceOnUse">
<stop stop-color="#28FAEF"/>
</linearGradient>
<linearGradient id="paint10_linear_166_1298" x1="2628.84" y1="1329.74" x2="2628.84" y2="1329.74" gradientUnits="userSpaceOnUse">
<stop stop-color="#28FAEF"/>
</linearGradient>
<linearGradient id="paint11_linear_166_1298" x1="2052.93" y1="2277.72" x2="2052.93" y2="2277.72" gradientUnits="userSpaceOnUse">
<stop stop-color="#28FAEF"/>
</linearGradient>
<linearGradient id="paint12_linear_166_1298" x1="-329.508" y1="-2298.14" x2="-329.508" y2="-2298.14" gradientUnits="userSpaceOnUse">
<stop stop-color="#28FAEF"/>
</linearGradient>
<linearGradient id="paint13_linear_166_1298" x1="-1654.82" y1="2032.09" x2="-1654.82" y2="2032.09" gradientUnits="userSpaceOnUse">
<stop stop-color="#28FAEF"/>
</linearGradient>
</defs>
</svg>
